<svg viewBox="-21 0 512 512.001" xmlns="http://www.w3.org/2000/svg"><path d="M253.43 236.547H4.64a4.641 4.641 0 0 1-4.64-4.64v-49.063a4.641 4.641 0 0 1 4.64-4.64h248.79a4.641 4.641 0 0 1 4.64 4.64v49.062a4.641 4.641 0 0 1-4.64 4.64zm0 0" fill="#eff2fa"/><path d="M379.414 236.547h-48.926c-15.64 0-28.32-12.68-28.32-28.32v-1.704c0-15.64 12.68-28.316 28.32-28.316h48.926c15.64 0 28.32 12.676 28.32 28.316v1.704c0 15.64-12.68 28.32-28.32 28.32zm0 0" fill="#87dbff"/><path d="M182.84 396.227c0 49.746-40.324 90.07-90.07 90.07-49.747 0-90.07-40.324-90.07-90.07 0-49.747 40.323-90.075 90.07-90.075 49.746 0 90.07 40.328 90.07 90.075zm0 0" fill="#cafff0"/><path d="M92.77 306.152c-7.797 0-15.364.993-22.579 2.856 38.82 10.02 67.496 45.27 67.496 87.219 0 41.949-28.675 77.199-67.496 87.218a90.372 90.372 0 0 0 22.579 2.852c49.746 0 90.074-40.324 90.074-90.07 0-49.747-40.328-90.075-90.074-90.075zm0 0" fill="#aaf2e4"/><path d="M92.613 413.16a7.693 7.693 0 0 1-5.441-2.254L56.23 379.965a7.698 7.698 0 0 1 10.887-10.883l25.496 25.496 92.563-92.562a7.702 7.702 0 0 1 10.887 0 7.695 7.695 0 0 1 0 10.886l-98.004 98.004a7.696 7.696 0 0 1-5.446 2.254zm0 0" fill="#5ed4cd"/><path d="M253.43 147.441H4.64A4.64 4.64 0 0 1 0 142.805V93.742a4.641 4.641 0 0 1 4.64-4.64h248.79a4.641 4.641 0 0 1 4.64 4.64v49.063a4.64 4.64 0 0 1-4.64 4.636zm0 0" fill="#eff2fa"/><path d="M379.414 147.441h-48.926c-15.64 0-28.32-12.675-28.32-28.316v-1.703c0-15.64 12.68-28.32 28.32-28.32h48.926c15.64 0 28.32 12.68 28.32 28.32v1.703c0 15.64-12.68 28.316-28.32 28.316zm0 0" fill="#87dbff"/><path d="M44.426 215.074H27.18a7.697 7.697 0 0 1-7.7-7.699 7.696 7.696 0 0 1 7.7-7.695h17.246a7.698 7.698 0 0 1 7.699 7.695 7.7 7.7 0 0 1-7.7 7.7zm0 0" fill="#707487"/><path d="M253.43 58.34H4.64A4.641 4.641 0 0 1 0 53.7V4.64A4.641 4.641 0 0 1 4.64 0h248.79a4.641 4.641 0 0 1 4.64 4.64V53.7a4.641 4.641 0 0 1-4.64 4.64zm0 0" fill="#eff2fa"/><path d="M379.414 58.34h-48.926c-15.64 0-28.32-12.68-28.32-28.32v-1.704C302.168 12.68 314.848 0 330.488 0h48.926c15.64 0 28.316 12.68 28.316 28.316v1.704c.004 15.64-12.675 28.32-28.316 28.32zm0 0" fill="#87dbff"/><path d="M378.563 178.207h-27.196c16.11 0 29.168 13.059 29.168 29.168s-13.058 29.172-29.168 29.172h27.195c16.11 0 29.172-13.063 29.172-29.172s-13.062-29.168-29.171-29.168zm0-89.105h-27.196c16.11 0 29.168 13.062 29.168 29.171 0 16.11-13.058 29.168-29.168 29.168h27.195c16.11 0 29.172-13.058 29.172-29.168 0-16.109-13.062-29.171-29.171-29.171zm0-89.102h-27.196c16.11 0 29.168 13.059 29.168 29.168S367.477 58.34 351.367 58.34h27.195c16.11 0 29.172-13.063 29.172-29.172S394.672 0 378.563 0zm0 0" fill="#6fc7ff"/><path d="M44.426 125.969H27.18a7.697 7.697 0 1 1 0-15.395h17.246c4.25 0 7.699 3.45 7.699 7.7s-3.45 7.695-7.7 7.695zm0-89.102H27.18a7.697 7.697 0 0 1-7.7-7.699 7.696 7.696 0 0 1 7.7-7.695h17.246a7.698 7.698 0 0 1 7.699 7.695 7.7 7.7 0 0 1-7.7 7.7zm0 0" fill="#707487"/><path d="M158.965 215.074H73.297a7.696 7.696 0 0 1-7.695-7.699 7.695 7.695 0 0 1 7.695-7.695h85.668a7.695 7.695 0 0 1 7.695 7.695c0 4.254-3.445 7.7-7.695 7.7zm-22.149-89.105h-63.52a7.699 7.699 0 0 1 0-15.395h63.52c4.25 0 7.696 3.45 7.696 7.7s-3.446 7.695-7.696 7.695zm53.805-89.102H73.297a7.696 7.696 0 0 1-7.695-7.699 7.695 7.695 0 0 1 7.695-7.695H190.62a7.695 7.695 0 0 1 7.695 7.695c0 4.254-3.445 7.7-7.695 7.7zm0 0" fill="#c7cfe2"/><path d="M470.285 360.328v86.195c0 4.258-.707 8.457-2.062 12.43a38.66 38.66 0 0 1-5.965 11.094 38.447 38.447 0 0 0-8.024 23.512v14.355a4.082 4.082 0 0 1-4.086 4.086h-97.894a4.089 4.089 0 0 1-4.094-4.086v-15.207a69.524 69.524 0 0 0-6.96-30.348l-12.993-26.828-40.64-79.844a15.154 15.154 0 0 1 4.476-19.054c6.578-4.899 15.937-3.399 21.09 2.996l28.734 35.672V215.67c0-7.655 5.828-14.265 13.465-14.726 8.18-.48 15.027 5.883 15.242 13.95.89 33.175 1.785 66.367 2.676 99.546a.361.361 0 0 0 .309.348c.183.023.378-.133.39-.348l.02-5.55c0-6.887 4.34-12.77 10.437-15.047a16.16 16.16 0 0 1 6.395-.996c8.629.414 15.281 7.851 15.281 16.492v16.926c0 .304.246.562.543.574.32.02.605-.246.605-.598a16.146 16.146 0 0 1 10.008-9.36 15.95 15.95 0 0 1 5.461-.745c8.711.297 15.485 7.758 15.485 16.48v18.637a1.17 1.17 0 0 0 1.168 1.172c.421 0 .8-.239 1.007-.598a16.076 16.076 0 0 1 8.98-7.234 15.68 15.68 0 0 1 5.235-.77c8.649.176 15.711 7.852 15.711 16.504zm0 0" fill="#fdd7bd"/><path d="M344.797 223.254v-7.594c0-6.37 5.164-11.535 11.535-11.535 6.25 0 11.363 4.977 11.531 11.227l.203 7.59c.176 6.546-5.082 11.949-11.632 11.949-6.43.004-11.637-5.207-11.637-11.637zm0 0" fill="#fff2ea"/><path d="M449.34 344.594v36.433c0 6.157-4.988 11.157-11.156 11.157v-40.93a1.17 1.17 0 0 0 1.168 1.172c.421 0 .8-.239 1.007-.598a16.076 16.076 0 0 1 8.98-7.234zm-32.102-27.707v36.718c0 6.168-5 11.165-11.156 11.165v-38.504c0 .308.246.562.543.574.32.02.605-.246.605-.594 1.766-4.426 5.442-7.894 10.008-9.36zm-32.832-23.043V345.3c0 6.168-4.996 11.156-11.156 11.156V314.44a.361.361 0 0 0 .309.348c.183.024.379-.133.39-.348l.02-5.55c0-6.887 4.34-12.77 10.437-15.047zm0 0" fill="#fac5aa"/></svg>