<svg xmlns="http://www.w3.org/2000/svg" viewBox="0 0 512 512"><g data-name="Layer 22"><path d="M472 96H176a8 8 0 1 0 0 16h296a16.018 16.018 0 0 1 16 16v64h-24a8 8 0 0 0 0 16h24v208a16.018 16.018 0 0 1-16 16H40a16.019 16.019 0 0 1-16-16V208h132.24a128 128 0 1 0 199.521 0H432a8 8 0 0 0 0-16h-91.62a127.25 127.25 0 0 0-168.76 0H24v-64a16.019 16.019 0 0 1 16-16h104a8 8 0 0 0 0-16h-16V72a8 8 0 0 0-8-8H56a8 8 0 0 0-8 8v24h-8a32.035 32.035 0 0 0-32 32v288a32.035 32.035 0 0 0 32 32h432a32.034 32.034 0 0 0 32-32V128a32.034 32.034 0 0 0-32-32zm-216 80a112 112 0 1 1-112 112 112.126 112.126 0 0 1 112-112zM64 80h48v16H64z"/><path d="M40 152a24 24 0 1 0 24-24 24.027 24.027 0 0 0-24 24zm32 0a8 8 0 1 1-8-8 8.007 8.007 0 0 1 8 8zm56-24a24 24 0 1 0 24 24 24.027 24.027 0 0 0-24-24zm0 32a8 8 0 1 1 8-8 8.008 8.008 0 0 1-8 8zm344 8v-32a8 8 0 0 0-8-8H352a8 8 0 0 0-8 8v32a8 8 0 0 0 8 8h112a8 8 0 0 0 8-8zm-96-8h-16v-16h16zm48 0h-32v-16h32zm32 0h-16v-16h16zm-40 224a8 8 0 0 0 0 16h32a8 8 0 0 0 0-16zm-352 0a8 8 0 0 0 0 16h32a8 8 0 0 0 0-16zm192 0a96 96 0 1 0-96-96 96.107 96.107 0 0 0 96 96zm80-96a80 80 0 0 1-156.407 23.724l100.132-100.131a79.687 79.687 0 0 1 22.294 11.076l-59.674 59.675a8 8 0 1 0 11.313 11.312l60.462-60.463A79.636 79.636 0 0 1 336 288zm-80-80c1.508 0 2.978.144 4.465.227l-84.239 84.238c-.082-1.486-.226-2.958-.226-4.465a80.092 80.092 0 0 1 80-80z"/><path d="m226.345 298.344-8 8a8 8 0 1 0 11.313 11.312l8-8a8 8 0 0 0-11.313-11.312z"/></g></svg>