<svg viewBox="0 -105 512 511" xmlns="http://www.w3.org/2000/svg"><path d="M273.305 289.883 153.332 30.94c-.004-.003-.004-.003-.004-.007l-.023-.051c-.028-.063-.067-.125-.098-.188-.059-.117-.117-.238-.18-.351-.054-.094-.113-.184-.172-.278a3.458 3.458 0 0 0-.16-.253c-.07-.106-.148-.208-.226-.31-.047-.062-.094-.128-.145-.187-.086-.109-.176-.207-.265-.308-.051-.055-.098-.11-.149-.16a6.756 6.756 0 0 0-.293-.285c-.05-.051-.105-.102-.16-.153-.098-.086-.203-.168-.305-.25-.062-.047-.12-.097-.183-.144-.102-.078-.211-.149-.317-.22a3.687 3.687 0 0 0-.203-.136c-.11-.066-.222-.129-.336-.191-.07-.04-.14-.078-.21-.114-.126-.066-.25-.12-.376-.175-.066-.028-.129-.059-.191-.086-.152-.063-.305-.114-.461-.168l-.129-.047c-.191-.059-.387-.2-.582-.246-.012 0-.02-.098-.031-.098h-.004c-.406 0-.824-.055-1.246-.078-.012 0-.024.043-.035.043-.149-.008-.301.02-.45.02-.066.003-.132.011-.203.011-.086.004-.175.024-.265.028-.13.011-.254.02-.38.039-.062.007-.12.02-.183.03-.152.024-.304.048-.453.079-.008.004-.02.004-.027.008-.059.012-.117.031-.176.047a5.306 5.306 0 0 0-.41.11c-.094.026-.184.062-.274.093a5.78 5.78 0 0 0-.625.25l-.257.117c-.106.055-.211.113-.317.172-.078.047-.156.086-.23.133a5.45 5.45 0 0 0-.293.195c-.078.05-.157.102-.23.156-.09.067-.177.137-.262.207a4.923 4.923 0 0 0-.235.188c-.078.066-.152.14-.226.21-.079.075-.157.15-.23.227-.067.07-.134.14-.2.215a6.798 6.798 0 0 0-.219.254c-.062.078-.125.156-.183.238a6.504 6.504 0 0 0-.196.262c-.062.094-.12.188-.18.281-.05.082-.105.164-.152.25a4.83 4.83 0 0 0-.18.344c-.035.066-.07.125-.101.188l-121.5 259a7.51 7.51 0 0 0 .46 7.21 7.504 7.504 0 0 0 6.333 3.477h241.5a7.497 7.497 0 0 0 6.8-10.656zm0 0" fill="#702d22"/><path d="M366.5 42.5A7.497 7.497 0 0 1 359 35V8c0-4.145 3.355-7.5 7.5-7.5S374 3.855 374 8v27c0 4.14-3.36 7.5-7.5 7.5zM146.5 42.5A7.5 7.5 0 0 1 139 35V8a7.5 7.5 0 1 1 15 0v27c0 4.14-3.36 7.5-7.5 7.5zm0 0" fill="#594235"/><path d="M148.133 26.68a7.498 7.498 0 0 0-8.422 4.132l-121.5 259a7.51 7.51 0 0 0 .457 7.211A7.51 7.51 0 0 0 25 300.5h121.5a7.5 7.5 0 0 0 7.5-7.5V34a7.498 7.498 0 0 0-5.867-7.32zm0 0" fill="#f26944"/><path d="M260.52 297.531c-26.489-34.242-48.25-35.96-74.77-27.62a7.49 7.49 0 0 1-6.191-.782 7.46 7.46 0 0 1-3.457-5.18L139.168 35.602c.121.527.293 1.046.523 1.546l97.086 142.454L259.7 296.148c.23.493.5.961.82 1.383zm0 0" fill="#d36e00"/><path d="m493.3 289.852-120-259a7.493 7.493 0 0 0-6.8-4.352h-220c-.16 0-.32.008-.48.02-.11 0-.211.011-.32.03-.282.02-.571.071-.848.141a4.283 4.283 0 0 0-.442.11c-.039.008-.07.02-.11.027-.222.07-.44.152-.66.242a4.11 4.11 0 0 0-.48.22 4.55 4.55 0 0 0-.492.269 6.782 6.782 0 0 0-1.34 1.011c-.078.078-.168.16-.238.239a7.833 7.833 0 0 0-.762.93c-.047.07-.098.152-.148.222a.409.409 0 0 0-.051.09c-.23.367-.43.758-.578 1.16-.063.11-.102.219-.133.328-.148.41-.25.832-.316 1.262-.024.129-.043.25-.051.379-.02.101-.02.191-.031.289-.032.39-.02.8.011 1.199.02.184.04.352.07.531l.067.403c.121.527.293 1.046.523 1.546l120.008 259c.23.493.488.973.82 1.383 1.731 2.114 3.102 2.824 5.461 2.95.168.007.34.019.52.019h220a7.512 7.512 0 0 0 6.32-3.46 7.487 7.487 0 0 0 .48-7.188zm0 0" fill="#dd9300"/><path d="M492.813 297.04a7.531 7.531 0 0 1-6.313 3.46h-20.914c2.555 0 4.934-1.32 6.316-3.46a7.485 7.485 0 0 0 .48-7.192L352.38 30.852a7.465 7.465 0 0 0-6.797-4.36h20.91a7.47 7.47 0 0 1 6.801 4.36l120.004 258.996a7.475 7.475 0 0 1-.485 7.191zm0 0" fill="#d68003"/><path d="m419.813 199.863-64-139A7.503 7.503 0 0 0 349 56.5H191a7.508 7.508 0 0 0-6.328 3.473 7.485 7.485 0 0 0-.465 7.203l65 139A7.49 7.49 0 0 0 256 210.5h157c2.559 0 4.938-1.3 6.316-3.457a7.493 7.493 0 0 0 .496-7.18zm0 0" fill="#ffb127"/><path d="m349.707 120.145-15-29.75c-1.27-2.54-3.867-3.895-6.707-3.895h-89.5c-2.582 0-4.98 1.078-6.355 3.266-1.372 2.187-1.52 4.8-.399 7.125l14.5 30.183c1.254 2.594 3.875 4.426 6.754 4.426h90c2.598 0 5.012-1.598 6.379-3.809 1.367-2.21 1.492-5.222.328-7.546zm0 0" fill="#efd6a3"/><g fill="#594235"><path d="M25 300.5a7.48 7.48 0 0 1-5.305-2.195l-17.5-17.5a7.51 7.51 0 0 1 0-10.61 7.51 7.51 0 0 1 10.61 0l17.5 17.5a7.51 7.51 0 0 1 0 10.61A7.496 7.496 0 0 1 25 300.5zM487 300.5a7.502 7.502 0 0 1-5.305-12.805l17.5-17.5a7.51 7.51 0 0 1 10.61 0 7.51 7.51 0 0 1 0 10.61l-17.5 17.5A7.496 7.496 0 0 1 487 300.5zM266.168 300.5a7.502 7.502 0 0 1-5.305-12.805l17.5-17.5a7.504 7.504 0 0 1 10.606 0 7.502 7.502 0 0 1 0 10.61l-17.5 17.5a7.487 7.487 0 0 1-5.301 2.195zm0 0"/></g></svg>