<svg viewBox="-39 0 511 512" xmlns="http://www.w3.org/2000/svg"><path d="M395.027 0H88.16a7.801 7.801 0 0 0-7.8 7.805 7.804 7.804 0 0 0 7.8 7.804h306.867c13.102 0 23.758 10.657 23.758 23.758V411.66a7.805 7.805 0 1 0 15.61 0V39.367C434.39 17.66 416.735 0 395.027 0zm31.563 436.633a7.802 7.802 0 0 0-7.805 7.805v28.199c0 13.097-10.656 23.758-23.758 23.758H39.863c-13.097 0-23.758-10.66-23.758-23.758V39.367c0-13.101 10.66-23.758 23.758-23.758h14.742a7.805 7.805 0 1 0 0-15.61H39.863C18.16.001.5 17.661.5 39.368v433.27C.5 494.34 18.16 512 39.863 512h355.164c21.707 0 39.364-17.66 39.364-39.363v-28.2a7.801 7.801 0 0 0-7.801-7.804zm0 0"/><path d="M109.113 50.363c-32.656 0-59.226 26.57-59.226 59.227 0 32.66 26.57 59.23 59.226 59.23 32.66 0 59.23-26.57 59.23-59.23 0-32.656-26.57-59.227-59.23-59.227zm0 102.848c-24.05 0-43.62-19.566-43.62-43.617 0-24.055 19.57-43.621 43.62-43.621s43.621 19.566 43.621 43.62c0 24.052-19.57 43.618-43.62 43.618zm95.614-72.684h170.109a7.805 7.805 0 1 0 0-15.61h-170.11a7.801 7.801 0 0 0-7.8 7.806 7.804 7.804 0 0 0 7.8 7.804zm0 36.868h123.132a7.802 7.802 0 0 0 7.805-7.805 7.805 7.805 0 0 0-7.805-7.805H204.727a7.804 7.804 0 0 0-7.801 7.805 7.801 7.801 0 0 0 7.8 7.805zm0 36.871h148.488c4.308 0 7.8-3.496 7.8-7.805a7.801 7.801 0 0 0-7.8-7.805H204.727a7.801 7.801 0 0 0-7.801 7.805 7.804 7.804 0 0 0 7.8 7.805zm0 72.789h170.109a7.805 7.805 0 1 0 0-15.61h-170.11a7.801 7.801 0 0 0-7.8 7.805 7.804 7.804 0 0 0 7.8 7.805zm0 36.867h123.132a7.802 7.802 0 0 0 7.805-7.805 7.805 7.805 0 0 0-7.805-7.805H204.727a7.804 7.804 0 0 0-7.801 7.805 7.801 7.801 0 0 0 7.8 7.805zm0 36.871h148.488c4.308 0 7.8-3.496 7.8-7.805a7.804 7.804 0 0 0-7.8-7.804H204.727a7.804 7.804 0 0 0-7.801 7.804 7.804 7.804 0 0 0 7.8 7.805zm-95.614 42.625c-32.656 0-59.226 26.57-59.226 59.227 0 32.66 26.57 59.23 59.226 59.23 32.66 0 59.23-26.57 59.23-59.23 0-32.657-26.57-59.227-59.23-59.227zm0 102.848c-24.05 0-43.62-19.567-43.62-43.621 0-24.051 19.57-43.618 43.62-43.618s43.621 19.567 43.621 43.618c0 24.054-19.57 43.62-43.62 43.62zm95.614-72.684h170.109c4.309 0 7.805-3.496 7.805-7.805s-3.496-7.804-7.805-7.804h-170.11c-4.308 0-7.8 3.496-7.8 7.804s3.492 7.805 7.8 7.805zm0 36.868h123.132a7.802 7.802 0 0 0 7.805-7.805 7.8 7.8 0 0 0-7.805-7.801H204.727a7.8 7.8 0 0 0-7.801 7.8 7.801 7.801 0 0 0 7.8 7.805zm0 36.87h148.488c4.308 0 7.8-3.496 7.8-7.804a7.801 7.801 0 0 0-7.8-7.805H204.727a7.801 7.801 0 0 0-7.801 7.805 7.804 7.804 0 0 0 7.8 7.804zM98.363 244.082a7.804 7.804 0 1 0-11.04 11.035l19.251 19.25c1.528 1.524 3.524 2.285 5.52 2.285s3.996-.761 5.52-2.285l40.265-40.265c.039-.04.074-.079.113-.114l26.735-26.734a7.804 7.804 0 1 0-11.04-11.035l-20.414 20.418c-11.144-12.504-27.07-19.746-44.16-19.746-32.656 0-59.226 26.57-59.226 59.23 0 32.656 26.57 59.227 59.226 59.227 32.66 0 59.23-26.57 59.23-59.227a7.805 7.805 0 0 0-7.804-7.805 7.802 7.802 0 0 0-7.805 7.805c0 24.05-19.57 43.617-43.62 43.617s-43.622-19.566-43.622-43.617c0-24.055 19.57-43.621 43.621-43.621 12.883 0 24.856 5.598 33.086 15.207l-30.105 30.11zm0 0"/></svg>