<svg viewBox="-40 0 512 512" xmlns="http://www.w3.org/2000/svg"><path d="M401.105 512H30.332C13.582 512 0 498.422 0 481.668V30.332C0 13.578 13.582 0 30.332 0h370.773c16.75 0 30.333 13.578 30.333 30.332v451.336c0 16.754-13.583 30.332-30.333 30.332zm0 0" fill="#eff2fa"/><path d="M157.023 104.988c0 29.293-23.75 53.04-53.043 53.04s-53.039-23.747-53.039-53.04 23.746-53.043 53.04-53.043 53.042 23.75 53.042 53.043zm0 0" fill="#c7cfe2"/><g fill="#d7deed"><path d="M378.059 75.008H202.602a8.049 8.049 0 1 1 0-16.098h175.457a8.049 8.049 0 0 1 8.046 8.05 8.045 8.045 0 0 1-8.046 8.048zM329.605 113.035H202.602a8.049 8.049 0 1 1 0-16.097h127.003a8.049 8.049 0 0 1 8.047 8.05 8.045 8.045 0 0 1-8.047 8.047zM355.754 151.066H202.602a8.049 8.049 0 1 1 0-16.098h153.152a8.049 8.049 0 1 1 0 16.098zm0 0"/></g><path d="M157.023 256.121c0 29.293-23.75 53.043-53.043 53.043s-53.039-23.75-53.039-53.043 23.746-53.039 53.04-53.039 53.042 23.746 53.042 53.04zm0 0" fill="#87dbff"/><path d="M378.059 226.145H202.602a8.049 8.049 0 1 1 0-16.098h175.457c4.445 0 8.046 3.601 8.046 8.047s-3.601 8.05-8.046 8.05zM329.605 264.172H202.602a8.049 8.049 0 1 1 0-16.098h127.003a8.045 8.045 0 0 1 8.047 8.047 8.049 8.049 0 0 1-8.047 8.05zM355.754 302.2H202.602a8.049 8.049 0 1 1 0-16.098h153.152a8.049 8.049 0 1 1 0 16.098zm0 0" fill="#d7deed"/><path d="M157.023 407.258c0 29.293-23.75 53.039-53.043 53.039s-53.039-23.746-53.039-53.04c0-29.292 23.746-53.042 53.04-53.042s53.042 23.75 53.042 53.043zm0 0" fill="#c7cfe2"/><path d="M378.059 377.277H202.602a8.049 8.049 0 1 1 0-16.097h175.457a8.049 8.049 0 0 1 8.046 8.05 8.045 8.045 0 0 1-8.046 8.047zM329.605 415.305H202.602a8.049 8.049 0 1 1 0-16.098h127.003a8.049 8.049 0 0 1 8.047 8.05 8.045 8.045 0 0 1-8.047 8.048zM355.754 453.336H202.602a8.049 8.049 0 1 1 0-16.098h153.152a8.049 8.049 0 1 1 0 16.098zm0 0" fill="#d7deed"/><path d="M107.055 277.3a8.02 8.02 0 0 1-5.692-2.355L81.508 255.09c-3.145-3.145-3.145-8.242 0-11.383 3.14-3.145 8.238-3.145 11.383 0l14.164 14.16 63.53-63.531c3.142-3.14 8.24-3.14 11.384 0 3.144 3.144 3.144 8.242 0 11.383l-69.223 69.222a8.015 8.015 0 0 1-5.691 2.36zm0 0" fill="#57afff"/></svg>