<svg viewBox="0 0 511.998 511.998" xmlns="http://www.w3.org/2000/svg"><path d="M71.451 511.998c-4.422 0-8-3.578-8-8V339.513c0-14.68 5.641-28.555 15.883-39.07l40.516-40.984c3.102-3.133 8.164-3.18 11.312-.062a7.996 7.996 0 0 1 .062 11.312l-40.469 40.938c-7.273 7.469-11.305 17.383-11.305 27.867v164.484a7.994 7.994 0 0 1-7.999 8z" fill="#966a5b"/><path d="m295.451 367.998-62.627-62.627a32 32 0 0 0-22.627-9.373h-75.198l24.452 40h48l72.854 57.243 15.146-9.243z" fill="#6f6571"/><path d="m306.844 397.819 9.332-27.997c1.349-4.048-2.502-7.898-6.549-6.549l-14.176 4.725-15.146 25.243 14.098 8.989c4.595 2.928 10.718.757 12.441-4.411z" fill="#966a5b"/><path d="M103.451 300.434a40 40 0 0 0 15.442 31.574l56.558 43.989 23.273 64 22.941 13.001 10.929-13.001-22.295-78.034a39.993 39.993 0 0 0-10.177-17.295l-48.671-48.671-19.952-14.499-28.048 14.499z" fill="#5d5360"/><path d="m198.724 439.998 2.982 8.202a24 24 0 0 0 22.555 15.798h20.469c4.039 0 6.113-4.838 3.327-7.763l-15.464-16.237z" fill="#966a5b"/><path d="m433.228 185.056-8.504-5.669a8 8 0 0 1-3.152-9.186L472.13 18.528c1.727-5.18-2.129-10.53-7.589-10.53H435.64l-80 200 33.769 135.073 50.004-139.297a16 16 0 0 0-6.185-18.718z" fill="#eac89f"/><path d="m400.003 321.45-26.154-104.615a31.998 31.998 0 0 1 .567-17.513L435.64 7.998h-13.333a16 16 0 0 0-14.769 9.846l-68.82 165.168a63.994 63.994 0 0 0-4.052 35.137l18.767 112.601a48.003 48.003 0 0 1-2.78 25.719L296.03 493.027c-2.102 5.255 1.768 10.971 7.428 10.971h40.115a16 16 0 0 0 15.384-11.604l40.565-141.978a56.015 56.015 0 0 0 .481-28.966z" fill="#dcb48c"/><path d="M380.818 2.06c-3.273-2.961-8.344-2.695-11.305.57L255.576 128.623l3.812 19.742 122-135c2.962-3.281 2.704-8.344-.57-11.305z" fill="#966a5b"/><circle cx="135.451" cy="151.998" fill="#e2a975" r="24"/><g fill="#e2a975"><path d="M39.451 231.998v56c0 17.673 14.327 32 32 32v-96l20.298-22.499-20.298-8.695c-18.257 3.707-32 19.843-32 39.194zM255.576 128.623l-56.125 63.375-10.202 15.501 10.202 16.499h1.63a31.997 31.997 0 0 0 23.917-10.741l31.904-35.892c12.662-14.245 12.151-35.266-1.326-48.742z"/></g><path d="m151.451 295.998 16-72h32v-32h-120c-2.74 0-5.415.281-8 .806v15.194l36.048 13.501 11.952 74.499zM135.451 119.998c-14.288 0-26.389 9.364-30.5 22.291-1.404 4.416 2.743 8.649 7.238 7.525l42.61-10.652c4.507-1.127 6.151-6.814 2.834-10.067-5.724-5.615-13.519-9.097-22.182-9.097z" fill="#b3e59f"/><path d="M71.451 223.998h32v72h16v-72c0-8.837-7.163-16-16-16h-32z" fill="#95d6a4"/></svg>