<svg viewBox="0 0 512.004 512.004" xmlns="http://www.w3.org/2000/svg"><path d="m359.614 329.672-18.805-112.828a56.563 56.563 0 0 1 3.585-31.09l73.07-175.367a7.5 7.5 0 0 0-13.846-5.77l-73.07 175.367a71.547 71.547 0 0 0-4.535 39.325l18.805 112.828a40.603 40.603 0 0 1-2.351 21.751l-59.131 147.828a7.5 7.5 0 0 0 4.178 9.749 7.47 7.47 0 0 0 2.783.539 7.502 7.502 0 0 0 6.966-4.716l59.131-147.828a55.594 55.594 0 0 0 3.22-29.788zM96.845 149.688a7.499 7.499 0 0 0 4.616 1.588c.464 0 .928-.057 1.39-.145 3.323 13.859 15.81 24.193 30.674 24.193 17.396 0 31.548-14.152 31.548-31.548 0-2.684-.357-5.359-1.03-7.949a7.491 7.491 0 0 0 4.488-4.068 7.498 7.498 0 0 0-.249-6.581c-6.936-12.933-20.254-20.967-34.758-20.967-21.816 0-39.564 17.749-39.564 39.565a7.504 7.504 0 0 0 2.885 5.912zm36.68 10.637c-7.837 0-14.404-5.481-16.106-12.807l32.092-8.023c.369 1.382.562 2.812.562 4.282.001 9.125-7.423 16.548-16.548 16.548zm0-41.113c5.451 0 10.639 1.849 14.839 5.108l-37.206 9.301c3.872-8.492 12.442-14.409 22.367-14.409z"/><path d="M380.001 215.145a24.524 24.524 0 0 1 .527-13.726l13.08-39.239a7.5 7.5 0 0 0-14.231-4.743l-13.08 39.238a39.504 39.504 0 0 0-.849 22.107l25.976 103.903a48.6 48.6 0 0 1-.762 26.291l-35.377 113.208a7.501 7.501 0 0 0 14.318 4.474L404.98 353.45a63.584 63.584 0 0 0 .996-34.402zM481.785 9.874a7.5 7.5 0 0 0-14.231-4.743l-54.177 162.53c-2.207 6.62.307 13.947 6.113 17.816l8.369 5.579a8.497 8.497 0 0 1 3.256 10.096l-19.582 52.217a7.5 7.5 0 1 0 14.044 5.266l19.582-52.217c3.86-10.294.167-21.744-8.981-27.842l-8.369-5.58a.517.517 0 0 1-.203-.592zm-194.36 381.692a.472.472 0 0 1-.444-.099l-42.006-33.605a7.501 7.501 0 0 0-9.371 11.713l42.006 33.605c2.793 2.234 6.179 3.408 9.654 3.408a15.65 15.65 0 0 0 3.694-.444 15.408 15.408 0 0 0 10.509-8.746l15.259-34.125a7.5 7.5 0 0 0-6.846-10.561h-20.942l-54.889-54.889c-5.958-5.958-13.881-9.24-22.308-9.24h-102.78v-64.645a7.5 7.5 0 0 0-7.5-7.5H76.897v-17.051c.172-.003.343-.013.516-.013h112.742v17.064H165.59a7.499 7.499 0 0 0-7.321 5.873l-8.907 40.081a7.5 7.5 0 0 0 14.642 3.253l7.602-34.208h27.682c11.292 0 22.07-4.84 29.571-13.279l31.968-35.964c12.93-14.547 14.619-35.833 4.288-52.184L379.381 12.736a7.5 7.5 0 1 0-10.743-10.467L191.202 184.373H77.413c-26.236 0-47.581 21.345-47.581 47.581v56.113c0 19.751 14.548 36.167 33.491 39.098a55.889 55.889 0 0 0-1.427 12.524v164.813a7.5 7.5 0 0 0 15 0V339.689c0-10.646 4.091-20.707 11.52-28.331l5.803-5.955c1.302 12.893 7.732 24.612 18.111 32.684l54.966 42.751 25.57 70.317c4.517 12.421 16.431 20.767 29.648 20.767h15.221a7.5 7.5 0 0 0 7.212-9.56l-29.211-102.239a47.69 47.69 0 0 0-12.105-20.573l-35.966-35.966h44.078a16.44 16.44 0 0 1 11.702 4.847l57.085 57.085a7.497 7.497 0 0 0 5.303 2.197h12.479l-10.536 23.564c-.032.067-.105.23-.351.289zm-37.809-219.337-31.969 35.964a24.571 24.571 0 0 1-12.492 7.524v-23.844c0-.105-.011-.206-.016-.31l49.041-50.332a28.556 28.556 0 0 1-4.564 30.998zM77.673 300.89a55.8 55.8 0 0 0-8.745 11.729c-13.329-.252-24.096-11.165-24.096-24.553v-56.113c0-12.351 6.909-23.119 17.064-28.643v76.74a7.5 7.5 0 0 0 15 0v-48.613H93.96v52.736zm115.35 49.265a32.656 32.656 0 0 1 8.289 14.087l26.48 92.679h-5.278c-6.933 0-13.183-4.377-15.552-10.893l-26.309-72.348a7.5 7.5 0 0 0-2.444-3.357l-56.671-44.078c-7.183-5.587-11.6-13.724-12.425-22.664h37.337z"/></svg>