<svg xmlns="http://www.w3.org/2000/svg" viewBox="0 0 511.997 511.997" style="enable-background:new 0 0 511.997 511.997" xml:space="preserve"><path d="M99.484 102.585a37.055 37.055 0 0 1 14.774 14.775 12.67 12.67 0 0 0 11.121 6.594c4.636 0 8.897-2.526 11.121-6.594l.001-.002a37.062 37.062 0 0 1 14.774-14.773 12.67 12.67 0 0 0 6.595-11.123c0-4.637-2.528-8.897-6.595-11.12a37.065 37.065 0 0 1-14.774-14.774 12.672 12.672 0 0 0-11.122-6.596 12.671 12.671 0 0 0-11.122 6.596 37.069 37.069 0 0 1-14.773 14.774 12.67 12.67 0 0 0-6.597 11.12 12.676 12.676 0 0 0 6.597 11.123zm25.896-26.406a51.995 51.995 0 0 0 15.283 15.283 51.987 51.987 0 0 0-15.283 15.284 51.99 51.99 0 0 0-15.284-15.284 51.987 51.987 0 0 0 15.284-15.283z"/><circle cx="127.323" cy="182.85" r="7.077"/><circle cx="82.222" cy="182.85" r="7.077"/><path d="M293.924 375.217a7.5 7.5 0 0 0-10.587.677c-2.892 3.286-10.575 12.016-14.385 23.857a7.422 7.422 0 0 1-9.367 4.807 7.39 7.39 0 0 1-4.342-3.686 7.396 7.396 0 0 1-.463-5.679c4.761-14.798 14.265-25.594 17.388-29.142a7.5 7.5 0 0 0-11.259-9.911c-3.633 4.128-14.69 16.689-20.408 34.46a22.302 22.302 0 0 0 1.397 17.121 22.293 22.293 0 0 0 13.091 11.116 22.404 22.404 0 0 0 6.88 1.085c9.78 0 18.364-6.259 21.362-15.575 2.853-8.87 9.038-15.897 11.366-18.542l.003-.004a7.499 7.499 0 0 0-.676-10.584z"/><path d="M496.36 383.295c-3.084-8.434-11.138-13.311-20.063-12.111-36.951 4.931-72.46-1.929-95.924-18.374-.455-17.725-5.646-34.847-15.158-50.05 22.984-18.486 37.418-46.827 37.418-77.861V177.62c0-33.647-15.051-64.82-40.807-85.669 8.108-6.219 13.35-15.997 13.35-26.982 0-18.745-15.25-33.995-33.995-33.995h-58.294A203.453 203.453 0 0 1 178.494 2.138a14.99 14.99 0 0 0-15.489.038 14.995 14.995 0 0 0-7.227 13.699l1.431 25.498c1.174 20.941 12.845 38.931 29.72 48.998a103.975 103.975 0 0 0-13.82 13.451c-2.683.574-5.048 1.322-7.202 2.267-9.009 3.951-13.771 11.354-13.771 21.406 0 .18.012.358.015.538a56.175 56.175 0 0 1-33.63 11.205H91.09c-42.257 0-76.636 34.379-76.636 76.636v32.177c0 42.258 34.379 76.636 76.636 76.636h69.307a97.654 97.654 0 0 0-4.908 30.665v.294c-3.789 4.041-15.179 16.215-21.437 33.734a22.294 22.294 0 0 0 .852 17.156 22.293 22.293 0 0 0 12.734 11.529 22.367 22.367 0 0 0 7.55 1.313c3.906 0 7.679-1.051 10.986-2.917 1.951 3.565 4.247 6.963 6.969 10.147 2.883 3.373 6.172 6.429 9.868 9.19a72.91 72.91 0 0 0-.328 4.469c-.506 12.18 1.858 24.233 6.836 34.859a7.5 7.5 0 1 0 13.582-6.364c-3.51-7.493-5.376-15.918-5.474-24.548 9.091 3.996 19.853 6.882 32.432 8.717 1.277 3.917 3.319 7.086 5.854 8.932a15.392 15.392 0 0 1 6.186 10.115 15.385 15.385 0 0 1-2.778 11.525 15.558 15.558 0 0 1-12.544 6.375h-.003c-3.106 0-6.109-.927-8.683-2.681a7.502 7.502 0 0 0-8.444 12.399 30.307 30.307 0 0 0 17.125 5.282h.007c9.728 0 18.95-4.69 24.669-12.547 4.793-6.585 6.735-14.642 5.469-22.688-.868-5.514-3.177-10.568-6.661-14.747a322.15 322.15 0 0 0 17.7.465c2.77 0 5.474-.034 8.126-.095-.155 12.127.213 23.357 1.024 29.953 1.875 15.265 14.872 26.776 30.234 26.776 1.237 0 2.496-.077 3.745-.23 16.687-2.05 28.596-17.293 26.547-33.981-.873-7.11-.735-21.305-.204-33.207a86.295 86.295 0 0 0 3.598-1.633c44.924-2.049 101.915-8.321 147.882-37.669 7.513-4.789 10.507-13.625 7.452-21.98zM155.188 404.38a7.427 7.427 0 0 1-2.504-.438 7.396 7.396 0 0 1-4.223-3.824 7.392 7.392 0 0 1-.282-5.689c2.163-6.056 5.116-11.387 8.063-15.817.661 8.139 1.88 16.115 4.106 23.649-1.368 1.322-3.211 2.119-5.16 2.119zm213.144-284.333a7.586 7.586 0 0 0-.858-.053h-43.918c-1.843-6.271-6.15-11.016-12.741-13.906-6.012-2.637-13.616-3.762-25.426-3.762-11.81 0-19.414 1.125-25.426 3.762-6.591 2.891-10.898 7.635-12.741 13.906h-17.72c-1.843-6.271-6.15-11.016-12.741-13.906-5.191-2.277-11.575-3.424-20.821-3.696a89.073 89.073 0 0 1 7.186-5.299c.426.108.857.203 1.287.302a62.541 62.541 0 0 0 2.327.495c.69.131 1.383.25 2.077.357.335.051.672.096 1.008.142.585.08 1.171.152 1.757.215.249.027.497.058.747.082.823.078 1.649.136 2.475.181.221.012.443.021.665.031a61.63 61.63 0 0 0 2.651.065h123.062c.703 0 1.399-.028 2.092-.071.164-.01.328-.025.493-.038.582-.044 1.16-.103 1.734-.176.075-.01.15-.013.225-.023a95.743 95.743 0 0 1 22.606 21.392zm-58.745 7.448c0 11.05-10.855 20.04-24.198 20.04-13.342 0-24.197-8.99-24.197-20.04 0-4.291 0-10.168 24.197-10.168 24.198-.001 24.198 5.876 24.198 10.168zM172.186 40.532l-1.391-25.522a218.45 218.45 0 0 0 112.092 30.963h58.294c10.474 0 18.995 8.521 18.995 18.995 0 9.079-6.407 16.68-14.934 18.546a18.93 18.93 0 0 1-1.995.331c-.114.012-.228.02-.342.03-.569.051-1.142.087-1.724.087H218.119c-.684 0-1.364-.02-2.041-.05-.241-.011-.482-.027-.723-.042a49.47 49.47 0 0 1-2.172-.18 46.015 46.015 0 0 1-1.055-.129c-.334-.044-.669-.084-1.002-.135-.183-.028-.363-.064-.546-.094a46.28 46.28 0 0 1-2.631-.515c-.133-.03-.267-.057-.399-.089-.466-.11-.93-.23-1.393-.355-.146-.04-.293-.079-.439-.12-.465-.13-.928-.267-1.39-.412-17.807-5.599-31.045-21.746-32.142-41.309zm19.147 76.794c24.198 0 24.198 5.877 24.198 10.168 0 11.05-10.855 20.04-24.198 20.04-13.342 0-24.197-8.99-24.197-20.04 0-4.291 0-10.168 24.197-10.168zm117.931 379.555c-8.579 1.04-16.238-5.102-17.268-13.486-.744-6.059-1.072-17.119-.899-28.853 11.66-.884 22.004-2.493 31.127-4.855-.36 11.281-.315 23.11.523 29.93 1.04 8.479-5.01 16.223-13.483 17.264zm26.968-68.269a7.39 7.39 0 0 0-1.071.547 73.221 73.221 0 0 1-6.774 2.953 7.442 7.442 0 0 0-1.483.541c-11.339 4.054-25.599 6.47-43.149 7.34a7.7 7.7 0 0 0-.793.038c-4.762.222-9.759.335-15.006.335-11.142 0-21.164-.501-30.153-1.513a7.466 7.466 0 0 0-1.309-.153c-17.551-2.099-31.052-6.209-41-12.483a7.462 7.462 0 0 0-.675-.442c-4.001-2.607-7.421-5.57-10.275-8.91-3.441-4.026-6.361-8.638-8.635-15.069a7.596 7.596 0 0 0-.482-1.423c-3.159-9.714-4.939-23.447-4.939-45.018a82.816 82.816 0 0 1 5.851-30.665h110.758c4.142 0 7.5-3.357 7.5-7.5s-3.358-7.5-7.5-7.5H91.09c-33.986 0-61.636-27.649-61.636-61.636v-32.178c0-33.985 27.649-61.636 61.636-61.636h27.431a71.184 71.184 0 0 0 37.853-10.926c6.477 11.393 19.711 19.223 34.96 19.223 18.734 0 34.432-11.812 38.285-27.54h17.486c3.853 15.728 19.551 27.54 38.285 27.54 18.734 0 34.432-11.812 38.285-27.54h43.801a7.496 7.496 0 0 0 7.207-5.443c8.368 14.329 12.95 30.821 12.95 48.068V224.9c0 40.314-28.645 75.283-68.111 83.151a7.5 7.5 0 0 0 2.933 14.711 98.82 98.82 0 0 0 30.381-11.514c8.255 13.412 12.589 28.525 12.589 44.108 0 27.82-2.352 47.815-14.056 61.511-3.949 4.616-8.968 8.521-15.137 11.745zm144.607-35.973c-35.788 22.847-79.535 30.776-118.029 33.924 13.082-15.341 16.514-35.55 17.356-56.192 26.073 14.714 61.619 20.555 98.116 15.68 2.679-.351 3.683 1.555 3.989 2.394.364.992.66 2.858-1.432 4.194z"/><path d="M120.577 251.731a30.004 30.004 0 0 1-19.173 6.941H90.656a7.5 7.5 0 0 0 0 15h10.749c10.496 0 20.715-3.7 28.776-10.42a7.5 7.5 0 1 0-9.604-11.521z"/></svg>