<svg xmlns="http://www.w3.org/2000/svg" viewBox="0 0 511.996 511.996" style="enable-background:new 0 0 511.996 511.996" xml:space="preserve"><path d="M449.878 406.784a46.545 46.545 0 0 1-18.551-18.551c-2.417-4.421-7.049-7.167-12.088-7.167s-9.67 2.747-12.087 7.168a46.53 46.53 0 0 1-18.551 18.55 13.771 13.771 0 0 0-7.168 12.087c0 5.038 2.747 9.67 7.168 12.087a46.537 46.537 0 0 1 18.551 18.55 13.772 13.772 0 0 0 12.087 7.169 13.77 13.77 0 0 0 12.088-7.169v.001a46.541 46.541 0 0 1 18.552-18.551 13.771 13.771 0 0 0 7.168-12.087 13.77 13.77 0 0 0-7.169-12.087zm-30.638 33.645a61.483 61.483 0 0 0-21.557-21.557 61.472 61.472 0 0 0 21.556-21.557 61.494 61.494 0 0 0 21.558 21.557 61.483 61.483 0 0 0-21.557 21.557zM108.46 299.428c4.78-2.613 7.75-7.621 7.75-13.069s-2.97-10.456-7.751-13.069a56.178 56.178 0 0 1-22.39-22.389 14.887 14.887 0 0 0-13.067-7.751h-.001a14.89 14.89 0 0 0-13.069 7.75 56.184 56.184 0 0 1-22.389 22.39c-4.78 2.613-7.751 7.62-7.751 13.068s2.97 10.456 7.75 13.069a56.174 56.174 0 0 1 22.39 22.39 14.89 14.89 0 0 0 13.07 7.75c5.447 0 10.455-2.97 13.067-7.751v.001a56.174 56.174 0 0 1 22.391-22.389zM73 314.453a71.168 71.168 0 0 0-28.093-28.095 71.176 71.176 0 0 0 28.094-28.092 71.182 71.182 0 0 0 28.093 28.093A71.149 71.149 0 0 0 73 314.453zM379.876 100.04a64.216 64.216 0 0 1 25.594 25.593 15.823 15.823 0 0 0 13.889 8.236c5.789 0 11.11-3.156 13.888-8.236v.001a64.217 64.217 0 0 1 25.592-25.593 15.82 15.82 0 0 0 8.237-13.888c0-5.79-3.156-11.111-8.236-13.888a64.216 64.216 0 0 1-25.593-25.594 15.821 15.821 0 0 0-13.888-8.235 15.824 15.824 0 0 0-13.889 8.236 64.21 64.21 0 0 1-25.594 25.593 15.821 15.821 0 0 0-8.235 13.888 15.82 15.82 0 0 0 8.235 13.887zm7.195-14.613a79.187 79.187 0 0 0 31.561-31.561c.07-.129.235-.431.727-.431.49 0 .655.302.726.43a79.184 79.184 0 0 0 31.56 31.561c.129.07.431.235.431.726 0 .49-.302.655-.432.726a79.2 79.2 0 0 0-31.56 31.56v.001c-.07.129-.235.431-.726.431s-.656-.302-.727-.431a79.19 79.19 0 0 0-31.561-31.56c-.129-.07-.431-.235-.431-.726.002-.491.303-.656.432-.726z"/><path d="m445.183 165.835-26.28-2.581c-18.012-1.768-33.814-12.376-42.274-28.376-15.842-29.964-45.438-49.83-79.169-53.142l-38.269-3.758c-32.228-3.164-62.55 8.455-84.236 29.309a87.611 87.611 0 0 0-4.867-15.963 7.376 7.376 0 0 0-.291-.712C157.31 61.06 129.19 39.67 95.86 36.855V15.25a7.5 7.5 0 0 0-7.5-7.5 7.5 7.5 0 0 0-7.5 7.5v21.614a87.674 87.674 0 0 0-25.284 5.953 7.5 7.5 0 0 0 5.568 13.929 72.702 72.702 0 0 1 10.621-3.318 131.641 131.641 0 0 0-15.793 32.871H25.971a73.813 73.813 0 0 1 9.964-12.722 7.5 7.5 0 0 0-10.718-10.493C8.955 79.694 0 101.645 0 124.893a87.879 87.879 0 0 0 6.632 33.573c.085.241.181.475.288.704 13.412 31.745 44.864 54.081 81.435 54.082h.008a88.166 88.166 0 0 0 52.225-17.111l-2.229 22.698a96.32 96.32 0 0 0 17.112 64.891 96.56 96.56 0 0 0 11.301 13.284c-10.45 13.624-16.988 29.461-19.105 46.309-23.959 13.455-58.49 16.653-93.297 8.481-8.563-2.011-16.87 1.955-20.676 9.867-3.771 7.839-1.703 16.723 5.146 22.107 41.309 32.465 95.331 43.85 138.199 50.046 3.605 2.194 7.556 4.202 11.855 6.033.721 5.74 0 12.366-3.29 16.615-4.847 6.258-6.965 14.029-5.967 21.88.999 7.852 4.996 14.845 11.254 19.69 5.242 4.059 11.51 6.204 18.126 6.204 9.244 0 17.789-4.188 23.443-11.491 8.759-11.312 14.06-25 15.568-39.958 9.046.835 17.457 1.261 25.262 1.261 2.764 0 5.425-.072 8.039-.178 1.487 4.14 2.315 7.827 2.315 10.496 0 16.339 13.293 29.631 29.632 29.631s29.631-13.292 29.631-29.631c0-8.672-1.798-18.49-5.217-28.662.681-.596 1.364-1.19 2.014-1.815 8.292-7.972 13.505-17.886 16.955-28.729 11.349-3.715 21.235-8.953 29.407-15.627 9.346-7.632 10.741-21.446 3.108-30.794-6.281-7.692-16.746-9.984-25.467-6.303-.283-5-.965-9.963-2.043-14.873l66.012 6.483c2.451.241 4.881.358 7.293.358 37.6 0 69.891-28.631 73.641-66.817l3.027-30.825c3.994-40.639-25.82-76.946-66.454-80.937zM150.708 86.299h-29.96a131.616 131.616 0 0 0-15.775-32.844c19.24 4.474 35.597 16.527 45.735 32.844zM88.359 55.94c7.034 9.341 12.577 19.497 16.548 30.359H71.811c3.971-10.862 9.514-21.018 16.548-30.359zm-20.916 45.359h41.831c1.749 7.916 2.679 15.972 2.679 23.594 0 7.622-.93 15.678-2.679 23.594H67.443c-1.749-7.916-2.679-15.972-2.679-23.594.001-7.621.93-15.678 2.679-23.594zM15 124.893a73.44 73.44 0 0 1 3.881-23.594h33.243c-1.543 7.93-2.359 15.944-2.359 23.594s.817 15.664 2.359 23.594H18.915A73.003 73.003 0 0 1 15 124.893zm11.01 38.594h29.961a131.644 131.644 0 0 0 15.776 32.845c-19.242-4.474-35.599-16.527-45.737-32.845zm62.349 30.359c-7.034-9.34-12.577-19.497-16.548-30.359h33.096c-3.97 10.862-9.513 21.019-16.548 30.359zm54.449-20.299-.049.495c-10.138 11.216-23.329 18.929-37.787 22.291a131.644 131.644 0 0 0 15.776-32.845h23.537a106.967 106.967 0 0 0-1.477 10.059zm-18.214-25.06c1.543-7.93 2.359-15.943 2.359-23.594s-.816-15.664-2.359-23.594h33.208a72.98 72.98 0 0 1 3.862 21.463 105.781 105.781 0 0 0-13.291 25.725h-23.779zM48.11 371.983c-1.639-1.288-1.394-2.783-.9-3.811.427-.887 1.479-2.295 3.73-1.767 34.38 8.072 68.863 5.881 95.229-5.625-1.079 19.524.338 38.859 11.046 54.633-36.381-6.652-77.205-18.36-109.105-43.43zM220.602 483.57a14.552 14.552 0 0 1-11.584 5.675c-3.262 0-6.354-1.06-8.942-3.064a14.531 14.531 0 0 1-5.557-9.722 14.539 14.539 0 0 1 2.945-10.804c4.622-5.969 6.464-13.404 6.66-20.469 8.592 2.452 18.237 4.413 29.006 5.907-.952 9.643-4.092 21.582-12.528 32.477zm92.676-4.564c-8.068 0-14.632-6.563-14.632-14.631 0-3.87-.827-7.987-1.973-11.845 10.832-1.535 20.125-4.237 28.003-8.159 2.095 7.195 3.233 14.098 3.233 20.004 0 8.067-6.563 14.631-14.631 14.631zm49.762-108.273a51.325 51.325 0 0 0 4.83-3.476c2.941-2.402 7.288-1.962 9.69.977 2.401 2.941 1.962 7.288-.979 9.689-4.57 3.732-9.851 6.933-15.762 9.591.941-5.538 1.633-11.169 2.221-16.781zm133.673-125.429-3.027 30.825c-3.183 32.404-32.128 56.182-64.539 52.996l-182.459-17.918a7.494 7.494 0 0 0-8.197 6.731 7.5 7.5 0 0 0 6.73 8.197l100.597 9.879a79.41 79.41 0 0 1 2.671 29.528l-.005.031-.011.137c-2.612 26.559-6.731 45.423-19.163 57.374-9.283 8.924-23.222 14.038-42.787 15.531a7.45 7.45 0 0 0-1.579.117c-10.789.705-23.244.344-37.531-1.058a331.466 331.466 0 0 1-5.541-.595l-.108-.012c-17.298-1.991-31.472-5.046-42.818-9.282a7.455 7.455 0 0 0-1.637-.621c-4.904-1.927-9.252-4.088-13.079-6.49a7.452 7.452 0 0 0-1.024-.655c-5.561-3.645-9.965-7.827-13.287-12.587-7.321-10.492-11.151-24.199-7.63-60.063 1.452-14.785 6.953-28.727 15.994-40.709 9.513 6.798 20.232 11.871 31.675 14.836a7.497 7.497 0 0 0 9.142-5.379 7.5 7.5 0 0 0-5.378-9.142c-18.55-4.807-34.884-16.132-45.991-31.889a81.318 81.318 0 0 1-14.444-54.783l4.148-42.239.004-.043.296-3.01a92.57 92.57 0 0 1 2.789-15.127 7.452 7.452 0 0 0 1.094-3.744 90.38 90.38 0 0 1 13.32-26.24c.191-.225.365-.464.528-.711a92.155 92.155 0 0 1 15.258-15.939c18.887-15.508 42.684-22.735 66.999-20.344l38.269 3.758c28.706 2.819 53.894 19.726 67.376 45.226 10.819 20.463 31.031 34.03 54.067 36.292l26.28 2.581c32.405 3.183 56.18 32.136 52.998 64.541z"/><path d="M429.088 276.141a10.53 10.53 0 0 1-8.25 2.826 10.531 10.531 0 0 1-7.545-4.377 7.5 7.5 0 0 0-12.217 8.703 25.523 25.523 0 0 0 20.788 10.724c6.477 0 12.749-2.47 17.515-6.962a7.501 7.501 0 0 0-10.291-10.914zM242.17 117.499c-5.846-.57-11.571 1.163-16.113 4.894a21.85 21.85 0 0 0-7.934 14.855 7.5 7.5 0 0 0 6.731 8.197 7.495 7.495 0 0 0 8.196-6.732 6.964 6.964 0 0 1 2.525-4.728 6.992 6.992 0 0 1 5.129-1.558 7.012 7.012 0 0 1 6.285 7.654 7.5 7.5 0 1 0 14.927 1.467c1.187-12.074-7.671-22.862-19.746-24.049zm71.364 7.009c-12.062-1.191-22.862 7.673-24.048 19.747a7.499 7.499 0 0 0 6.73 8.197c4.12.415 7.793-2.608 8.197-6.73a7.006 7.006 0 0 1 7.654-6.286c3.843.378 6.663 3.812 6.286 7.655a7.5 7.5 0 1 0 14.927 1.465c1.187-12.074-7.672-22.862-19.746-24.048z"/><circle cx="449.546" cy="208.729" r="6.812"/><circle cx="406.34" cy="204.486" r="6.812"/><path d="M228.42 373.625a7.5 7.5 0 0 0-.981 10.562 21.757 21.757 0 0 0 7.096 5.611l.406.201c3.024 1.5 11.056 5.487 16.797 12.308a21.85 21.85 0 0 0 16.752 7.793 21.898 21.898 0 0 0 14.084-5.142 21.741 21.741 0 0 0 7.713-14.869 21.738 21.738 0 0 0-5.061-15.968c-11.614-13.799-26.084-20.976-30.838-23.334a7.5 7.5 0 1 0-6.666 13.437c4.063 2.015 16.425 8.147 26.027 19.556a6.84 6.84 0 0 1 1.593 5.023 6.843 6.843 0 0 1-2.428 4.678 6.795 6.795 0 0 1-4.425 1.618 6.88 6.88 0 0 1-5.276-2.452c-7.751-9.21-17.815-14.205-21.614-16.09l-.391-.193a6.827 6.827 0 0 1-2.227-1.758 7.503 7.503 0 0 0-10.561-.981z"/></svg>