<svg xmlns="http://www.w3.org/2000/svg" viewBox="0 0 512 512" style="enable-background:new 0 0 512 512" xml:space="preserve"><path d="M196.649 118.004a7.502 7.502 0 0 0-11.503 9.629c26.085 31.161 41.046 77.949 41.046 128.367 0 114.997-76.807 195.7-146.978 149.511C147.72 430.545 210.068 354.285 210.068 256c0-97.972-62.168-174.61-130.854-149.511 25.651-16.884 55.094-17.532 81.379-.822a7.5 7.5 0 1 0 8.048-12.659C90.523 43.339-2.141 126.219.038 259.802c.641 45.457 12.779 88.147 34.349 120.575 47.09 70.794 125.16 71.06 172.428 0 49.753-74.801 44.787-196.726-10.166-262.373zM19.638 300.1c30.564 27.543 78.614 15.766 93.757-19.509.014-.276 15.046-28.832-5.14-58.244v-.001c-20.175-29.357-61.938-34.462-88.621-10.433 9.905-45.621 40.076-95.038 85.403-95.038 23.459 0 45.733 14.064 62.719 39.599 58.434 87.845 16.521 238.649-62.719 238.649-45.591.001-75.593-49.865-85.399-95.023zm3.068-69.072c.105-.088 13.885-21.626 39.931-19.258 28.9 2.064 47.822 30.958 38.848 58.162-9.62 27.395-39.71 37.672-63.039 25.187-23.187-12.405-30.582-42.294-15.74-64.091zm454.916-99.406c-47.089-70.792-125.159-71.06-172.427 0-45.8 68.854-45.879 179.78 0 248.754 36.117 54.296 87.583 64.374 128.45 42.038a7.5 7.5 0 0 0 2.984-10.179 7.499 7.499 0 0 0-10.179-2.984c-25.364 13.863-52.767 11.833-76.429-3.742 68.506 25.035 130.855-51.226 130.855-149.511 0-98.12-62.31-174.558-130.854-149.511C420.365 60.187 497 141.176 497 255.998c0 52.627-16.822 102.296-44.999 132.868a7.5 7.5 0 0 0 .432 10.599 7.499 7.499 0 0 0 10.599-.432c58.981-63.994 65.707-190.563 14.59-267.411zM465.875 256c0 37.703-9.698 73.048-27.311 99.525-16.985 25.535-39.26 39.599-62.719 39.599-45.678 0-75.633-50.015-85.406-95.056 37.841 34.175 99.147 7.54 99.147-44.068a7.5 7.5 0 0 0-7.5-7.5 7.5 7.5 0 0 0-7.5 7.5c0 24.473-19.911 44.384-44.385 44.384-29.701 0-52.851-29.417-41.307-60.586 10.803-27.403 38.662-28.066 38.763-28.105 13.809-.778 27.16 4.854 36.289 15.546a7.502 7.502 0 0 0 11.409-9.741c-21.689-25.408-60.023-28.058-84.922-5.529 4.494-20.734 12.185-39.694 22.695-55.495C370.907 69.609 465.875 135.4 465.875 256z"/></svg>