<svg viewBox="0 0 547.797 547.797" xmlns="http://www.w3.org/2000/svg"><path d="M496.93 428.154v101.745H178.282c-28.095 0-50.867-22.783-50.867-50.878 0-2.689.209-5.324.606-7.903 3.803-24.337 24.855-42.964 50.261-42.964z" fill="#aa5e33"/><path d="M459.411 428.154a230.398 230.398 0 0 1-23.257 27.61c-42.215 42.832-98.559 66.937-158.641 67.874-1.224.022-2.425.033-3.648.033h-.011c-53.997-.011-105.051-18.528-145.833-52.553 3.803-24.337 24.855-42.964 50.261-42.964z" fill="#9d552e"/><circle cx="496.927" cy="479.025" fill="#e6ac8e" r="50.87"/><path d="M547.797 479.021c0 28.098-22.777 50.875-50.865 50.875a50.677 50.677 0 0 1-16.198-2.636c20.161-6.766 34.677-25.806 34.677-48.24 0-22.423-14.516-41.463-34.677-48.23a50.705 50.705 0 0 1 16.198-2.636c28.088.002 50.865 22.779 50.865 50.867z" fill="#e09977"/><path d="M496.927 511.904c-18.129 0-32.878-14.749-32.878-32.878s14.748-32.878 32.878-32.878a8.267 8.267 0 0 1 0 16.534c-9.012 0-16.345 7.332-16.345 16.345s7.332 16.345 16.345 16.345 16.345-7.332 16.345-16.345a8.267 8.267 0 0 1 16.534 0c-.001 18.128-14.749 32.877-32.879 32.877z" fill="#d68f72"/><path d="M477.938 269.252c-1.128-8.725-11.458-12.769-18.161-7.071a206.132 206.132 0 0 1-22.492 16.627c-3.902 2.494-8.934-.578-8.481-5.187 14.122-143.82-93.063-255.298-186.089-255.723-37.609-.172 48.593 90.944-49.603 184.136-9.217 8.747-17.218 17.053-24.172 24.93-2.315 2.622-6.482 2.445-8.546-.38-12.198-16.691-21.947-35.283-28.708-55.256-2.797-8.263-13.648-10.04-19.07-3.206-27.87 35.126-44.494 79.561-44.467 127.885.065 115.282 93.751 207.389 209.019 205.593 112.119-1.747 202.479-93.178 202.479-205.713 0-9.026-.581-17.917-1.709-26.635z" fill="#fb6a3b"/><path d="M479.647 295.889c0 112.535-90.359 203.963-202.475 205.716a209.519 209.519 0 0 1-30.145-1.697c100.984-13.127 178.976-99.463 178.976-204.019 0-9.071-.584-17.999-1.72-26.751-1.135-8.73-11.441-12.653-18.153-6.955a206.624 206.624 0 0 1-12.475 9.805c-7.587 5.505-18.13-.387-17.618-9.746 6.366-116.342-66.216-209.59-143.339-236.493.639-5.103 3.428-7.881 10.019-7.848 93.021.419 200.211 111.895 186.085 255.721-.449 4.57 4.543 7.705 8.413 5.233a206.353 206.353 0 0 0 22.56-16.671c6.701-5.698 17.018-1.775 18.153 6.955a207.897 207.897 0 0 1 1.719 26.75z" fill="#fb5532"/><path d="M409.04 347.719c-.743-5.746-7.577-8.471-11.99-4.717a136.487 136.487 0 0 1-11.622 8.859c-3.798 2.586-8.961-.352-8.609-4.934 7.196-93.469-62.758-165.41-123.575-165.688-24.91-.114 32.184 60.235-32.853 121.958-5.441 5.164-10.243 10.096-14.484 14.801-2.382 2.642-6.576 2.365-8.623-.545a135.766 135.766 0 0 1-17.577-34.594c-1.844-5.447-8.942-6.761-12.522-2.261-18.293 22.995-29.301 52.033-29.556 83.636-.594 73.602 60.651 136.309 134.248 137.375 76.184 1.104 138.294-60.321 138.294-136.251a137.438 137.438 0 0 0-1.131-17.639z" fill="#fcc16d"/><path d="M410.175 365.361c0 74.531-59.85 135.086-134.106 136.244a139.239 139.239 0 0 1-22.617-1.488c65.648-9.788 115.996-66.397 115.996-134.756 0-6.007-.397-11.915-1.146-17.724-.75-5.776-7.583-8.377-12.025-4.607-3.698 3.15-7.566 6.1-11.588 8.838-3.81 2.594-8.949-.373-8.596-4.968 5.856-76.244-39.611-138.157-89.585-158.531-.055-4.607 1.598-7.153 6.734-7.131 60.82.276 130.768 72.222 123.575 165.686-.353 4.583 4.811 7.522 8.61 4.936a136.06 136.06 0 0 0 11.586-8.83c4.431-3.77 11.265-1.168 12.014 4.607a137.912 137.912 0 0 1 1.148 17.724z" fill="#fcb44d"/><path d="M328.728 441.518c16.435-65.394-3.859-112.249-19.365-136.357-4.842-7.528-16.084-6.529-19.502 1.743-6.845 16.561-23.004 40.557-61.153 61.553-43.815 24.115-43.168 57.402-39.88 73.061z" fill="#ffeed3"/><path d="M328.733 441.523h-38.787c12.929-51.429 3.13-91.395-9.193-117.848 4.122-6.073 7.043-11.761 9.104-16.776 3.417-8.267 14.659-9.27 19.509-1.742 15.498 24.118 35.801 70.973 19.367 136.366z" fill="#fddaa9"/><path d="M50.87 529.895C22.775 529.895 0 507.12 0 479.025s22.775-50.87 50.87-50.87h289.142v101.74z" fill="#c76d3d"/><path d="M250.902 510.751a8.267 8.267 0 0 1 0-16.534c25.786 0 40.218-12.466 40.355-12.592 3.379-3.07 8.607-2.824 11.678.555a8.266 8.266 0 0 1-.554 11.677c-.759.691-18.953 16.894-51.479 16.894z" fill="#aa5e33"/><circle cx="340.012" cy="479.025" fill="#ebbba5" r="50.87"/><path d="M390.883 479.021c0 28.098-22.777 50.875-50.875 50.875a50.662 50.662 0 0 1-16.188-2.636c20.161-6.766 34.677-25.806 34.677-48.24 0-22.423-14.516-41.463-34.677-48.23a50.69 50.69 0 0 1 16.188-2.636c28.098.002 50.875 22.779 50.875 50.867z" fill="#e6ac8e"/><path d="M340.011 511.904c-18.129 0-32.878-14.749-32.878-32.878s14.748-32.878 32.878-32.878a8.267 8.267 0 0 1 0 16.534c-9.012 0-16.345 7.332-16.345 16.345s7.332 16.345 16.345 16.345c9.014 0 16.346-7.332 16.346-16.345a8.267 8.267 0 0 1 16.534 0c-.001 18.128-14.75 32.877-32.88 32.877z" fill="#e09977"/><path d="M191.255 481.036c-.705.309-11.176 4.651-32.526 4.651-14.274 0-33.419-1.94-57.767-8.344-61.172-16.07-91.56-10.041-100.124-7.517a50.273 50.273 0 0 1 7.275-18.363c17.183-2.48 48.255-2.921 97.06 9.898 54.394 14.285 79.304 4.596 79.535 4.497 4.199-1.808 9.06.121 10.868 4.31 1.807 4.2-.122 9.061-4.321 10.868zm66.663-9.731h-.049c-4.565-.027-8.291-3.75-8.264-8.315.027-4.549 3.677-8.219 8.219-8.219h.05l.093.001a8.266 8.266 0 0 1-.049 16.533zm-96.952 58.592h-25.858C98.736 505.858 43.24 504.293 42.6 504.282c-4.563-.099-8.178-3.891-8.079-8.443.099-4.508 3.78-8.09 8.256-8.09h.187c3.262.077 79.535 2.171 118.002 42.148z" fill="#aa5e33"/><path d="M463.648 172.973a5.51 5.51 0 0 1-5.511-5.511V147.47c0-18.178 14.736-32.914 32.914-32.914a5.51 5.51 0 0 1 5.511 5.511v19.992c-.001 18.178-14.737 32.914-32.914 32.914zM162.756 96.479a5.51 5.51 0 0 0 5.511-5.511V70.975c0-18.178-14.736-32.914-32.914-32.914a5.51 5.51 0 0 0-5.511 5.511v19.992c0 18.179 14.736 32.915 32.914 32.915z" fill="#fb6a3b"/></svg>