<svg xmlns="http://www.w3.org/2000/svg" viewBox="0 0 512 512"><path d="M458.348 388.455h-44.134c23.067-32.444 35.957-71.634 35.957-112.503 0-8.438-.548-16.928-1.627-25.235a17.494 17.494 0 0 0-11.042-14.082 17.574 17.574 0 0 0-17.717 3.022 179.813 179.813 0 0 1-15.338 11.676c4.798-63.074-15.073-124.957-55.632-171.819-34.125-39.429-79.386-63.082-121.072-63.273h-.126c-5.792 0-10.212 1.826-13.137 5.429-5.676 6.992-3.426 17.473-.312 31.98 3.22 14.998 7.629 35.538 4.398 58.217-3.831 26.892-17.25 50.932-41.024 73.495-7.341 6.966-14.139 13.917-20.292 20.745a177.96 177.96 0 0 1-23.17-45.569 17.376 17.376 0 0 0-13.497-11.547 17.592 17.592 0 0 0-16.805 6.406c-23.572 29.721-37.809 65.376-41.17 103.111a7.5 7.5 0 0 0 6.806 8.136c4.113.365 7.768-2.678 8.136-6.805 3.1-34.809 16.233-67.701 37.98-95.12.838-1.057 1.919-1.048 2.483-.95.642.111 1.484.476 1.857 1.578 7.012 20.714 17.442 39.999 31.003 57.319a7.5 7.5 0 0 0 5.764 2.875c2.291.053 4.411-.933 5.868-2.655 7.324-8.659 15.856-17.624 25.362-26.644 25.957-24.635 41.282-52.311 45.549-82.259 3.607-25.327-1.127-47.379-4.583-63.481-1.482-6.902-3.484-16.229-2.736-19.142.302-.059.816-.119 1.576-.119 37.42.171 78.466 21.887 109.799 58.089 41.045 47.425 59.431 111.366 50.442 175.427a7.5 7.5 0 0 0 11.11 7.575 195.064 195.064 0 0 0 30.474-21.247c1.029-.873 2.068-.661 2.598-.458.515.199 1.403.726 1.571 2.022a181.406 181.406 0 0 1 1.502 23.302c0 56.174-26.37 108.921-70.919 142.749a53.155 53.155 0 0 0-1.736-3.249c16.101-22.38 24.621-48.78 24.621-76.469 0-5.696-.37-11.43-1.099-17.04a14.115 14.115 0 0 0-8.912-11.364 14.167 14.167 0 0 0-14.287 2.434 115.897 115.897 0 0 1-5.664 4.518c1.217-27.365-4.421-54.223-16.58-78.49a7.5 7.5 0 0 0-13.41 6.719c13.118 26.184 17.849 55.734 13.679 85.456a7.5 7.5 0 0 0 11.11 7.575 131.67 131.67 0 0 0 19.383-13.343c.518 4.468.78 9.014.78 13.535 0 23.07-6.675 45.128-19.333 64.157-9.349-8.838-21.859-14.353-35.638-14.654 6.727-49.598-8.462-86.067-22.683-108.176-3.549-5.519-9.791-8.586-16.32-7.997-6.51.586-12.108 4.713-14.612 10.77-5.718 13.834-19.409 34.11-52.167 52.139-29.53 16.253-38.711 37.116-40.779 53.233h-19.792c-7.252-15.438-10.939-32.033-10.949-49.405-.015-25.981 8.318-50.472 24.12-70.936 4.726 13.394 11.582 25.881 20.395 37.137a7.5 7.5 0 0 0 5.764 2.875 7.454 7.454 0 0 0 5.868-2.655c4.795-5.669 10.383-11.539 16.608-17.446 40.786-38.708 32.381-77.862 27.865-98.896-.709-3.305-1.547-7.208-1.788-9.669 24.659.679 51.26 15.57 71.455 40.082a7.501 7.501 0 0 0 11.577-9.538c-23.396-28.398-54.959-45.432-84.431-45.567-5.806-.005-9.071 2.45-10.762 4.532-4.524 5.572-2.927 13.012-.717 23.309 4.441 20.689 11.153 51.956-23.524 84.868a255.626 255.626 0 0 0-11.412 11.513 115.305 115.305 0 0 1-13.233-26.928 14.038 14.038 0 0 0-10.904-9.333 14.19 14.19 0 0 0-13.548 5.165c-18.552 23.39-28.35 51.572-28.332 81.498.01 17.23 3.227 33.794 9.572 49.396h-18.11c-22.364-27.768-35.787-61.263-38.823-96.927-.352-4.127-3.987-7.185-8.108-6.837a7.5 7.5 0 0 0-6.837 8.109c2.954 34.709 14.991 67.523 34.97 95.655H53.652C24.068 388.455 0 412.523 0 442.107s24.068 53.653 53.652 53.653h404.695c29.584 0 53.652-24.068 53.652-53.653.001-29.584-24.067-53.652-53.651-53.652zm-103.712 53.652c0 21.313-17.34 38.653-38.653 38.653s-38.652-17.339-38.652-38.653c0-21.313 17.34-38.652 38.652-38.652 21.313 0 38.653 17.339 38.653 38.652zm-339.636 0c0-3.048.365-6.01 1.036-8.856 11.511-3.299 40.166-5.137 86.116 6.936 21.229 5.578 37.934 7.273 50.404 7.273 18.675 0 27.849-3.805 28.467-4.072 3.803-1.641 5.594-6.07 3.952-9.874-1.64-3.802-6.012-5.573-9.82-3.931-.053.021-5.437 2.16-16.561 2.755-10.346.555-27.869-.153-52.63-6.66-39.552-10.392-65.776-10.787-81.339-9.054 7.089-8.066 17.47-13.171 29.027-13.171h145.52c4.143 0 7.5-3.358 7.5-7.5s-3.357-7.5-7.5-7.5h-13.407c2.708-16.1 13.73-29.568 32.852-40.092 36.574-20.129 52.161-43.495 58.798-59.551.512-1.239 1.532-1.509 2.095-1.56.569-.045 1.628.034 2.359 1.171 13.027 20.254 26.93 53.926 20.142 100.032h-69.848c-4.143 0-7.5 3.358-7.5 7.5s3.357 7.5 7.5 7.5h46.668c-10.159 9.768-16.5 23.48-16.5 38.652 0 2.088.133 4.144.366 6.17-4.031 2.645-13.476 7.614-27.56 7.614-4.143 0-7.5 3.358-7.5 7.5s3.357 7.5 7.5 7.5c14.169 0 24.843-4.002 31.567-7.59a53.858 53.858 0 0 0 12.128 17.459H147.336c-33.681-29.142-98.095-30.684-100.882-30.736-4.181-.106-7.561 3.217-7.639 7.358a7.5 7.5 0 0 0 7.359 7.639c.16.003 16.31.345 36.077 4.175 14.416 2.794 26.971 6.703 37.285 11.564H53.652C32.34 480.76 15 463.42 15 442.107zm338.135 38.653c10.159-9.768 16.5-23.48 16.5-38.653 0-2.812-.22-5.573-.639-8.27a194.481 194.481 0 0 0 33.408-30.383h18.79c-10.159 9.768-16.5 23.48-16.5 38.652 0 15.173 6.341 28.884 16.5 38.653h-68.059zm105.213 0c-21.313 0-38.653-17.339-38.653-38.653 0-21.313 17.34-38.652 38.653-38.652S497 420.794 497 442.107s-17.34 38.653-38.652 38.653z"/><path d="M480.677 434.607a7.5 7.5 0 0 0-7.5 7.5c0 8.177-6.652 14.83-14.829 14.83s-14.829-6.652-14.829-14.83c0-8.177 6.652-14.829 14.829-14.829 4.143 0 7.5-3.358 7.5-7.5s-3.357-7.5-7.5-7.5c-16.448 0-29.829 13.381-29.829 29.829s13.381 29.83 29.829 29.83 29.829-13.381 29.829-29.83a7.5 7.5 0 0 0-7.5-7.5zm-194.524 7.5c0 16.448 13.381 29.83 29.829 29.83s29.83-13.381 29.83-29.83c0-4.142-3.357-7.5-7.5-7.5s-7.5 3.358-7.5 7.5c0 8.177-6.652 14.83-14.83 14.83-8.177 0-14.829-6.652-14.829-14.83 0-8.177 6.652-14.829 14.829-14.829 4.143 0 7.5-3.358 7.5-7.5s-3.357-7.5-7.5-7.5c-16.448 0-29.829 13.381-29.829 29.829zm-44.697-7.004h.045a7.5 7.5 0 0 0 .043-15h-.129c-4.121 0-7.433 3.33-7.457 7.457-.024 4.141 3.356 7.519 7.498 7.543zm186.697-263.168c20.602 0 37.362-16.76 37.362-37.362v-18.138c0-6.893-5.607-12.5-12.5-12.5-20.602 0-37.362 16.76-37.362 37.361v18.139c0 6.892 5.608 12.5 12.5 12.5zm2.5-30.639c0-11.485 8.704-20.976 19.862-22.223v15.5c0 11.485-8.704 20.976-19.862 22.223zm-275.489-38.762c6.893 0 12.5-5.607 12.5-12.5V71.896c0-20.602-16.761-37.362-37.362-37.362-6.893 0-12.5 5.607-12.5 12.5v18.138c0 20.601 16.761 37.362 37.362 37.362zm-22.362-52.862c11.158 1.247 19.862 10.738 19.862 22.223v15.5c-11.158-1.247-19.862-10.738-19.862-22.223z"/></svg>