<svg xmlns="http://www.w3.org/2000/svg" viewBox="0 0 512 512" style="enable-background:new 0 0 512 512" xml:space="preserve"><path style="fill:#4ce166" d="m511.426 499.738-73.805-177.332a7.477 7.477 0 0 0-6.904-4.604H81.282a7.479 7.479 0 0 0-6.904 4.604L.575 499.738a7.477 7.477 0 0 0 6.904 10.351h497.044a7.475 7.475 0 0 0 6.903-10.351z"/><path style="fill:#44c868" d="M480.714 510.09h23.808c2.5 0 4.835-1.249 6.221-3.329a7.476 7.476 0 0 0 .683-7.022l-73.804-177.332a7.477 7.477 0 0 0-6.904-4.604h-30.032l80.028 192.287z"/><path style="fill:#ffdb56" d="M303.02 389.007c-12.681-5.169-29.381-8.014-47.023-8.014s-34.341 2.846-47.023 8.014c-14.809 6.036-22.964 14.892-22.964 24.939s8.156 18.903 22.964 24.938c12.681 5.169 29.382 8.014 47.023 8.014s34.341-2.846 47.023-8.014c14.808-6.035 22.964-14.892 22.964-24.938s-8.155-18.903-22.964-24.939z"/><path style="fill:#ffdb56" d="M452.797 358.871h-5.071c-37.73 0-67.052 19.82-79.877 30.256-15.979-21.175-52.171-36.497-97.506-39.29a7.477 7.477 0 1 0-.92 14.926c44.062 2.715 79.994 18.76 89.736 38.508.131.343.288.678.472 1.003 1.403 3.148 2.146 6.384 2.146 9.671 0 17.197-21.169 34.082-53.932 43.014a7.481 7.481 0 0 0-5.249 9.182 7.481 7.481 0 0 0 9.182 5.248c40.066-10.924 64.953-32.935 64.953-57.443 0-3.85-.603-7.612-1.753-11.267 9.475-8.108 37.195-28.853 72.753-28.853h11.289l-6.223-14.955zM23.883 460.449c.191.114.388.219.588.314.692.332 17.252 8.152 42.069 10.182 3.537.289 7.351.465 11.405.465 20.919 0 48.176-4.681 75.977-22.523 21.226 17.931 58.63 29.606 102.074 29.606a7.478 7.478 0 1 0 0-14.956c-29.106 0-56.353-5.652-76.72-15.915-18.468-9.306-29.06-21.581-29.06-33.676 0-15.579 17.488-31.099 45.639-40.505a7.477 7.477 0 0 0 4.722-9.462 7.476 7.476 0 0 0-9.462-4.722c-34.975 11.685-55.856 32.13-55.856 54.69 0 8.467 2.903 16.505 8.217 23.851-23.083 14.205-48.307 20.357-75.119 18.29-20.659-1.593-35.126-7.78-37.177-8.698l-7.072-4.2-5.805 13.947 5.58 3.312zm447.928-55.892-4.066 7.82a58.535 58.535 0 0 1-8.693 12.471c-18.077 19.813-77.667 74.897-185.318 80.298a7.48 7.48 0 0 0-6.664 4.943h73.164c38.317-10.007 67.499-25.542 87.504-39.035 32.955-22.224 48.707-43.537 49.361-44.433.222-.305.421-.626.595-.96l1.61-3.098-7.493-18.006zM61.273 387.365c6.495 0 22.566-.605 41.786-5.757 32.773-8.785 59.176-26.77 76.365-52.007l.038-.054.046-.064c.172-.254.321-.516.459-.783.01-.02.024-.037.034-.057l5.459-10.841h-16.744l-1.817 3.608c-15.274 22.304-37.895 37.658-67.257 45.628-22.421 6.085-40.535 5.34-40.706 5.332-.125-.006-.259-.016-.372-.009l-4.979.007-6.229 14.965 11.064-.016c.421.018 1.395.048 2.853.048z"/><path style="fill:#ff4a4a" d="M256 1.91c-89.061 0-161.516 72.457-161.516 161.517 0 30.703 8.355 63.278 24.835 96.819 13.04 26.544 31.185 53.775 53.929 80.939 38.585 46.084 76.579 75.67 78.177 76.908 1.348 1.043 2.962 1.563 4.576 1.563s3.228-.52 4.576-1.563c1.599-1.237 39.592-30.824 78.177-76.908 22.744-27.164 40.888-54.395 53.929-80.939 16.479-33.542 24.835-66.117 24.835-96.819C417.517 74.367 345.061 1.91 256 1.91zm0 100.08c33.932 0 61.438 27.507 61.438 61.438S289.932 224.867 256 224.867s-61.438-27.507-61.438-61.438S222.069 101.99 256 101.99z"/><path style="fill:#e7343f" d="M256 1.91c-5.179 0-10.298.255-15.354.734 81.886 7.758 146.164 76.901 146.164 160.784 0 30.703-8.355 63.278-24.835 96.819-13.04 26.544-31.185 53.775-53.929 80.939-26.714 31.906-53.135 55.895-67.401 68.051 6.338 5.402 10.285 8.475 10.777 8.856a7.464 7.464 0 0 0 4.576 1.563c1.614 0 3.228-.52 4.576-1.563 1.599-1.237 39.592-30.824 78.177-76.908 22.744-27.164 40.888-54.395 53.929-80.939 16.479-33.542 24.835-66.116 24.835-96.819C417.517 74.367 345.061 1.91 256 1.91z"/><path style="fill:#ffbb24" d="M447.816 358.871h-.09c-10.126 0-19.639 1.436-28.398 3.727l5.819 13.98c7.059-1.705 14.624-2.751 22.586-2.751h11.289l-6.225-14.956h-4.981zm23.995 45.686-4.066 7.82a58.535 58.535 0 0 1-8.693 12.471 185.955 185.955 0 0 1-9.718 9.846l6.145 14.763c14.18-12.764 21.189-22.245 21.621-22.836.222-.305.421-.626.595-.96l1.61-3.098-7.494-18.006z"/></svg>