<svg viewBox="0 -13 512 511" xmlns="http://www.w3.org/2000/svg"><path d="m489.27 132.969-33.211-8.13V19.048C456.059 8.82 447.739.5 437.512.5h-16.496c-8.621 0-15.868 5.922-17.938 13.902l-242.723 86.606h-45.12v-5.301c0-10.906-8.876-19.781-19.786-19.781h-6.355c-10.91 0-19.785 8.875-19.785 19.781v5.3H54.418c-15.266 0-27.684 12.423-27.684 27.688v5.993H15.633C7.012 134.688 0 141.698 0 150.315v69.97c0 8.616 7.012 15.628 15.633 15.628h11.101v5.992c0 15.27 12.418 27.688 27.688 27.688h47.039l20.543 114.62a7.497 7.497 0 0 0 8.703 6.06 7.506 7.506 0 0 0 6.063-8.708L116.7 269.594h38.679l7.332 40.89h-16.293c-4.14 0-7.5 3.36-7.5 7.5s3.36 7.5 7.5 7.5h18.98l5.375 30h-14.125c-4.14 0-7.5 3.36-7.5 7.5s3.36 7.5 7.5 7.5h16.817l5.375 30h-14.094a7.5 7.5 0 1 0 0 15h16.785l9.797 54.676c-23.172-2.496-42.262-19.969-46.453-43.375l-3.605-20.125a7.503 7.503 0 0 0-8.708-6.058 7.502 7.502 0 0 0-6.058 8.707l3.605 20.12c5.82 32.473 33.977 56.04 66.953 56.04a10.22 10.22 0 0 0 7.86-3.672 10.228 10.228 0 0 0 2.226-8.387L171.32 273.508l231.762 82.695c2.07 7.98 9.313 13.899 17.934 13.899h16.496c10.226 0 18.547-8.32 18.547-18.547v-105.79l33.21-8.132A29.761 29.761 0 0 0 512 208.656v-46.71c0-13.786-9.348-25.7-22.73-28.977zm-327.618.015a7.5 7.5 0 0 0 7.5-7.5v-11.687l233.313-83.25v309.508l-233.313-83.25v-97.82a7.5 7.5 0 1 0-15 0v95.609h-38.918V116.008h38.918v9.476c0 4.141 3.36 7.5 7.5 7.5zM84.31 95.707a4.79 4.79 0 0 1 4.785-4.781h6.355a4.787 4.787 0 0 1 4.785 4.781v5.305H84.31zM15.633 220.914a.63.63 0 0 1-.633-.629V150.32c0-.347.281-.632.633-.632h11.101v71.226zm26.101 20.992v-113.21c0-6.997 5.688-12.688 12.684-12.688h45.816v138.586H54.418c-6.992 0-12.684-5.692-12.684-12.688zM497 208.656a14.791 14.791 0 0 1-11.3 14.406l-29.641 7.258v-42.336a7.5 7.5 0 1 0-15 0v163.57a3.552 3.552 0 0 1-3.547 3.548h-16.496a3.553 3.553 0 0 1-3.551-3.547V19.047a3.553 3.553 0 0 1 3.55-3.547h16.497a3.552 3.552 0 0 1 3.547 3.547v135.937a7.5 7.5 0 1 0 15 0v-14.703l29.64 7.258A14.795 14.795 0 0 1 497 161.945zm0 0"/></svg>