<svg xmlns="http://www.w3.org/2000/svg" viewBox="0 0 512 512"><path d="M65.042 303.53h341.102c4.142 0 7.5-3.357 7.5-7.5s-3.358-7.5-7.5-7.5H65.042c-4.142 0-7.5 3.357-7.5 7.5s3.358 7.5 7.5 7.5zm0-69.818h207.574c4.142 0 7.5-3.357 7.5-7.5s-3.358-7.5-7.5-7.5H65.042c-4.142 0-7.5 3.357-7.5 7.5s3.358 7.5 7.5 7.5zm0-69.818h207.574c4.142 0 7.5-3.357 7.5-7.5s-3.358-7.5-7.5-7.5H65.042c-4.142 0-7.5 3.357-7.5 7.5s3.358 7.5 7.5 7.5zM411.165 25.582c-55.601 0-100.835 45.234-100.835 100.835 0 55.602 45.234 100.836 100.835 100.836S512 182.018 512 126.417 466.766 25.582 411.165 25.582zm0 186.671c-47.33 0-85.835-38.506-85.835-85.836 0-47.329 38.506-85.835 85.835-85.835S497 79.087 497 126.417s-38.506 85.836-85.835 85.836z"/><path d="M463.687 231.986a7.5 7.5 0 0 0-7.5 7.5v90.143c0 21.258-17.294 38.552-38.552 38.552H227.264c-8.615 0-16.649 4.631-20.967 12.086l-51.096 88.216c-2.264 3.909-7.909 3.918-10.179 0l-51.095-88.216c-4.318-7.455-12.352-12.086-20.967-12.086H53.552C32.294 368.18 15 350.886 15 329.629V124.924c0-21.258 17.294-38.553 38.552-38.553h240.686c4.142 0 7.5-3.357 7.5-7.5s-3.358-7.5-7.5-7.5H53.552C24.023 71.372 0 95.395 0 124.924v204.704c0 29.528 24.023 53.552 53.552 53.552h19.407a9.259 9.259 0 0 1 7.988 4.604L132.042 476c8.04 13.883 28.088 13.901 36.138 0l51.096-88.216a9.259 9.259 0 0 1 7.988-4.604h190.371c29.529 0 53.552-24.023 53.552-53.552v-90.143a7.5 7.5 0 0 0-7.5-7.499z"/><path d="M413.122 69.307h-21.207c-4.142 0-7.5 3.357-7.5 7.5s3.358 7.5 7.5 7.5h13.707v91.72c0 4.143 3.358 7.5 7.5 7.5s7.5-3.357 7.5-7.5v-99.22a7.5 7.5 0 0 0-7.5-7.5z"/></svg>