<svg xmlns="http://www.w3.org/2000/svg" viewBox="0 0 512 512" style="enable-background:new 0 0 512 512" xml:space="preserve"><path d="M436.976 75.03c-100.017-100.017-261.905-100.047-361.952 0-100.037 100.037-100.027 261.905 0 361.952 100.037 100.007 261.905 100.027 361.952 0 100.026-100.048 100.037-261.916 0-361.952zM255.995 496.863C123.188 496.863 15.132 388.817 15.132 256c0-132.806 108.056-240.862 240.862-240.862 132.816 0 240.872 108.056 240.872 240.862.001 132.817-108.055 240.863-240.871 240.863z"/><path d="M408.919 146.487c-3.939-5.487-11.898-6.22-16.731-1.387l-21.253 21.253c-2.944 2.944-2.949 7.723-.005 10.667a7.54 7.54 0 0 0 10.662 0l17.822-17.822c19.877 29.333 30.117 63.509 29.644 99.133-1.789 135.932-156.019 218.232-269.863 141.087l50.094-50.094H388.2c16.42 0 25.735-20.188 15.948-34.347-15.284-22.108-40.377-58.545-65.207-95.304l23.891-23.891a7.54 7.54 0 0 0-10.662-10.662L145.095 392.193c-4.743 4.743-4.2 12.702 1.387 16.731 123.441 88.621 295.679.352 297.649-150.392.542-40.476-11.637-79.215-35.212-112.045zm-80.833 84.039c24.359 36.015 48.687 71.367 63.66 93.023 3.095 4.482.231 10.702-3.547 10.702h-67.036v-29.343c0-18.621-6.18-36.256-17.465-49.993l24.388-24.389zm-66.404 66.404 31.292-31.292c4.241 5.436 7.517 11.607 9.737 18.239 2.221 6.632 3.376 13.737 3.376 21.032v29.343h-44.406V296.93zm-15.073 15.073v22.248h-22.248l22.248-22.248zm124.436-204.787c-123.079-95.394-300.754-7.215-303.176 145.76a188.116 188.116 0 0 0 43.622 123.401c4.14 4.974 11.667 5.336 16.239.744l189.623-189.613 55.329-55.329c7.045-7.046 6.352-18.763-1.637-24.963zM120.264 363.273a173.145 173.145 0 0 1-14.521-21.475c3.718 4.773 9.165 7.527 15.154 7.527h13.315l-13.948 13.948zm91.787-91.787c4.944-8.25 11.657-15.003 19.515-19.515l-19.515 19.515zm49.631-49.632v-92.741c8.833 14.531 21.746 34.488 36.297 56.445l-36.297 36.296zm100.339-100.338-53.179 53.179c-5.939-8.984-35.463-53.902-40.266-63.549-6.793-12.079-22.078-11.235-28.157.161-10.238 17.991-32.377 51.905-56.602 88.042a7.537 7.537 0 0 0 .932 9.525c3.357 3.357 8.949 2.809 11.593-1.136 19.92-29.713 38.468-57.992 50.266-77.318v100.79c-30.076 3.999-54.063 30.418-58.073 63.79l-39.251 39.251h-28.388c-3.799 0-6.612-6.26-3.547-10.702 15.013-21.71 39.459-57.219 63.887-93.364a7.536 7.536 0 0 0-.919-9.55c-3.349-3.346-8.92-2.812-11.571 1.111-24.372 36.06-48.807 71.545-63.797 93.232-4.15 6.009-5.105 13.576-2.693 20.399C42.002 218.87 129.448 82.928 255.994 82.928c38.668 0 75.256 12.521 105.815 36.206.805.613.865 1.729.212 2.382z"/></svg>