<svg xmlns="http://www.w3.org/2000/svg" viewBox="0 0 512 512"><path d="M248.625 75.618c-3.979 2.717-5.829 7.43-4.713 12.006 2.448 10.037 12.938 61.615-21.048 91.405-15.244 13.361-27.032 29.111-35.037 46.811-2.313 5.116-9.161 5.93-12.715 1.558-7.776-9.562-17.832-19.022-30.742-28.922-8.904-6.824-21.953.943-19.251 11.698 12.396 49.346-4.796 86.467-7.466 108.582a7.5 7.5 0 0 0 6.548 8.344c4.11.499 7.848-2.436 8.345-6.548 2.2-18.263 18.45-57.107 9.116-105.084 8.92 7.322 16.096 14.365 21.812 21.394 10.595 13.027 31.115 10.427 38.021-4.84 7.116-15.736 17.633-29.77 31.256-41.711 16.045-14.063 25.688-33.378 28.664-57.409 1.991-16.081.47-30.786-1.194-40.412 11.001 8.694 26.603 23.715 38.094 45.699a7.5 7.5 0 1 0 13.293-6.948c-15.293-29.261-37.157-47.362-48.828-55.548-4.209-2.952-9.897-2.983-14.155-.075zm179.656 39.144-2.854-3.473c-2.805-3.411-7.955-3.682-11.098-.541L110.748 414.33c-3.14 3.141-2.871 8.294.543 11.098l3.472 2.853c39.615 32.552 89.774 50.479 141.238 50.479 120.7 0 217.129-95.186 222.522-212.462 2.54-55.197-15.303-109.013-50.242-151.536zM266.683 338.939c11.701 12.201 28.181 15.735 48.987 10.502 2.215-.559 4.237 1.522 3.611 3.757-6.95 24.79-21.067 47.536-40.875 65.882-18.666 5.705-31.875 6.893-58.75-2.31-10.291-3.533-20.93-8.315-30.904-14.034-5.546-10.565-6.717-24.225-3.572-41.627l10.432-10.432c5.628 7.992 13.039 14.621 22.138 14.621 2.524 0 5.179-.51 7.96-1.643 12.392-5.045 5.7-25.222 5.545-48.621l16.07-16.07c4.171 12.287 8.343 28.49 19.358 39.975zm-48.555 11.208h-.022c-2.821 0-6.727-2.255-11.702-10.26l10.552-10.552c.553 6.983 1.551 16.536 1.172 20.812zm245.411-84.539c-5.032 109.397-94.99 198.152-207.538 198.152-46.733 0-92.309-15.846-128.773-44.696l41.24-41.24c-.122 13.202 2.6 24.448 8.198 34.04a7.495 7.495 0 0 0 2.849 2.852c20.826 12.249 50.498 23.833 74.654 23.833 25.644 0 60.857-16.45 81.906-31.109 24.604-17.134 54.654-47.289 58.093-93.648 3.625-48.874-7.329-85.83-19.793-100.773-3.514-4.214-8.069-6.024-12.504-4.971-4.338 1.032-7.505 4.551-8.688 9.653-9.816 42.319-32.582 75.413-41.496 76.438a2.967 2.967 0 0 1-.146-.19c-6.566-9.255-3.724-21.704-.541-32.91a7.5 7.5 0 0 0-14.43-4.098c-4.594 16.178-6.963 32.017 2.738 45.689 3.649 5.142 9.229 7.408 15.308 6.205 24.076-4.745 45.183-57.096 51.608-81.413 11.297 18.851 15.166 55.864 12.985 85.263-3.002 40.475-29.774 67.176-51.706 82.449a176.42 176.42 0 0 1-17.311 10.611c10.703-14.813 18.684-31.196 23.534-48.496 3.728-13.302-8.307-25.723-21.713-22.352-41.009 10.313-42.386-22.819-53.041-47.574l160.094-160.094c31.012 39.173 46.784 88.159 44.473 138.379z"/><path d="M437.02 74.981C388.667 26.629 324.38 0 256 0 114.517 0 0 114.497 0 256c0 68.38 26.629 132.667 74.98 181.019C123.333 485.371 187.62 512 256 512c141.483 0 256-114.497 256-256 0-68.379-26.629-132.666-74.98-181.019zM256 497c-64.373 0-124.894-25.068-170.412-70.587C40.068 380.894 15 320.373 15 256 15 122.807 122.789 15 256 15c64.373 0 124.894 25.068 170.412 70.587C471.932 131.107 497 191.628 497 256c0 133.192-107.789 241-241 241z"/><path d="m400.709 86.57-3.473-2.852C357.622 51.167 307.463 33.24 255.999 33.24c-120.729 0-217.13 95.21-222.522 212.462-2.539 55.199 15.304 109.016 50.241 151.534l2.853 3.473c2.816 3.427 7.969 3.672 11.1.542L401.252 97.669c3.134-3.135 2.877-8.288-.543-11.099zM92.936 384.772C61.925 345.6 46.15 296.611 48.461 246.392c5.032-109.4 94.99-198.152 207.538-198.152 46.733 0 92.309 15.846 128.772 44.696z"/></svg>