<svg id="Capa_1" enable-background="new 0 0 512 512" height="512" viewBox="0 0 512 512" width="512" xmlns="http://www.w3.org/2000/svg"><g><g><path d="m223.19 302.781c0 34.272 27.882 62.155 62.155 62.155 27.15 0 50.943-17.367 59.206-43.217 1.261-3.945-.915-8.166-4.86-9.427-3.948-1.264-8.167.914-9.428 4.86-6.268 19.608-24.319 32.783-44.918 32.783-26.001 0-47.155-21.153-47.155-47.155 0-26.001 21.154-47.154 47.155-47.154 19.895 0 37.748 12.59 44.425 31.327 1.39 3.901 5.683 5.937 9.583 4.547 3.902-1.39 5.938-5.681 4.547-9.582-8.801-24.698-32.333-41.292-58.555-41.292-34.273.001-62.155 27.883-62.155 62.155z"/><path d="m254.587 302.781c0 16.96 13.798 30.758 30.758 30.758 16.959 0 30.757-13.798 30.757-30.758 0-16.959-13.798-30.757-30.757-30.757-16.96 0-30.758 13.798-30.758 30.757zm46.516 0c0 8.688-7.069 15.758-15.757 15.758-8.689 0-15.758-7.069-15.758-15.758s7.069-15.757 15.758-15.757c8.688 0 15.757 7.069 15.757 15.757z"/><path d="m178.379 276.983c1.983 1.984 4.62 3.077 7.425 3.077 2.806 0 5.443-1.093 7.425-3.075l13.563-13.563c4.092-4.093 4.092-10.754-.001-14.849l-13.561-13.56c-1.983-1.984-4.62-3.077-7.426-3.077-2.805 0-5.441 1.092-7.424 3.075l-13.563 13.563c-4.092 4.093-4.092 10.754.001 14.849zm7.425-28.182 7.198 7.198-7.198 7.197-7.198-7.198z"/><path d="m348.098 244.694c2.805 0 5.441-1.092 7.425-3.075l18.659-18.659c1.984-1.983 3.076-4.62 3.076-7.426 0-2.804-1.092-5.44-3.075-7.425l-18.66-18.659c-1.983-1.983-4.62-3.075-7.425-3.075s-5.441 1.092-7.424 3.075l-18.66 18.659c-1.983 1.983-3.076 4.62-3.076 7.425 0 2.806 1.093 5.443 3.076 7.425l18.659 18.658c1.982 1.985 4.619 3.077 7.425 3.077zm0-41.455 12.295 12.295-12.295 12.296-12.296-12.296z"/><path d="m499.051 6.063h-45.737c-4.107 0-7.688 3.165-7.811 7.27-.127 4.247 3.278 7.73 7.497 7.73h44v67.288h-75.19c-7.535 0-14.679 3.105-20.027 8.412-12.2 12.108-28.328 19.792-45.447 21.647l-.875.095c-1.134.123-2.191.629-2.998 1.435l-48.017 48.018c-5.781 5.78-15.188 5.781-20.969.001-5.781-5.782-5.781-15.188 0-20.97l38.185-38.185c3.103-3.103 5.114-7.197 5.375-11.577.302-5.074-1.535-9.895-5.093-13.453l-26.07-26.069c-3.558-3.559-8.379-5.396-13.453-5.094-4.38.261-8.474 2.272-11.577 5.375l-21.685 21.685c-2.359 2.361-3.658 5.5-3.658 8.837v19.461c-.989-.047-1.98-.084-2.98-.084-8.673 0-16.934 1.792-24.44 5.015v-33.087c0-3.819 1.487-7.409 4.188-10.109l44.451-44.452c2.681-2.681 6.318-4.188 10.109-4.188h140.858c4.107 0 7.688-3.165 7.811-7.27.127-4.247-3.278-7.73-7.497-7.73h-141.172c-7.826 0-15.184 3.047-20.717 8.581l-44.451 44.451c-5.534 5.533-8.582 12.891-8.582 20.717v42.226c-13.86 11.409-22.714 28.69-22.714 48.002 0 34.272 27.882 62.154 62.155 62.154 28.745 0 52.978-19.62 60.049-46.168 4.572-1.37 8.879-3.855 12.484-7.46l45.573-45.573c19.605-2.717 37.971-11.826 51.971-25.829 2.458-2.459 5.729-3.813 9.213-3.813h77.241c7.152 0 12.949-5.798 12.949-12.949v-71.39c0-7.152-5.798-12.95-12.949-12.95zm-200.051 75.981 12.338 12.338c.637.637.732 1.381.732 1.768 0 .386-.095 1.13-.732 1.767l-26.593 26.594c-.405-.376-.83-.728-1.245-1.093v-25.875zm-38.5 7.499 21.233-21.232c.637-.637 1.38-.731 1.767-.731s1.13.095 1.768.732l3.125 3.125-17.696 17.696c-1.407 1.407-2.197 3.314-2.197 5.304v19.195c-2.58-1.194-5.244-2.238-8-3.074zm-17.98 127.651c-26.001 0-47.155-21.153-47.155-47.154 0-26.002 21.153-47.155 47.155-47.155 12.162 0 23.254 4.637 31.624 12.227l-1.272 1.272c-3.735 3.735-6.264 8.224-7.599 12.98-5.63-6.19-13.745-10.082-22.752-10.082-16.959 0-30.757 13.798-30.757 30.758 0 16.959 13.798 30.757 30.757 30.757 14.238 0 26.244-9.727 29.732-22.883.205.218.407.439.62.652 3.964 3.964 8.777 6.574 13.858 7.836-6.668 17.957-23.962 30.792-44.211 30.792zm15.757-47.154c0 8.688-7.069 15.757-15.758 15.757-8.688 0-15.757-7.068-15.757-15.757s7.069-15.758 15.757-15.758c8.689 0 15.758 7.07 15.758 15.758z"/><path d="m391.556 378.488c-6.668-3.432-14.264-4.032-21.39-1.69l-69.052 22.688c-4.886-5.732-12.151-9.378-20.256-9.378h-43.852c-10.216-21.26-32.057-35.213-55.903-35.213h-59.812v-18.117c0-6.812-5.542-12.354-12.354-12.354h-96.583c-6.812 0-12.354 5.542-12.354 12.353v156.806c0 6.812 5.542 12.354 12.354 12.354h96.585c6.812 0 12.354-5.542 12.354-12.354v-18.842l99.072 21.059.253.05c3.671.649 7.355.972 11.023.972 9.211-.001 18.311-2.035 26.777-6.035l133.469-63.062.434-.223c11.472-6.363 16.958-20.07 13.045-32.592-2.236-7.158-7.141-12.99-13.81-16.422zm-6.324 35.79-133.222 62.946c-8.975 4.241-18.88 5.58-28.656 3.877l-102.062-21.694v-23.97c0-4.143-3.358-7.5-7.5-7.5s-7.5 3.357-7.5 7.5v55.5h-91.292v-151.513h91.292v61.013c0 4.143 3.358 7.5 7.5 7.5s7.5-3.357 7.5-7.5v-30.542h59.812c19.416 0 37.078 12.203 43.95 30.366l1.833 4.847h53.972c6.405 0 11.615 5.21 11.615 11.614s-5.21 11.615-11.615 11.615h-125.135c-4.142 0-7.5 3.357-7.5 7.5s3.358 7.5 7.5 7.5h125.135c14.676 0 26.615-11.939 26.615-26.615 0-1.173-.084-2.327-.232-3.46l67.607-22.214c3.278-1.077 6.775-.803 9.845.778 3.069 1.579 5.327 4.264 6.356 7.559 1.779 5.694-.665 11.921-5.818 14.893z"/></g></g></svg>