<svg id="Capa_1" enable-background="new 0 0 512 512" height="512" viewBox="0 0 512 512" width="512" xmlns="http://www.w3.org/2000/svg"><g><g><circle cx="242.113" cy="166.673" fill="#fed402" r="56.305"/></g><g><path d="m207.262 166.673c0-27.426 19.614-50.261 45.578-55.271-3.474-.67-7.057-1.033-10.727-1.033-31.096 0-56.304 25.208-56.304 56.305 0 31.096 25.208 56.305 56.304 56.305 3.67 0 7.253-.363 10.727-1.033-25.964-5.012-45.578-27.846-45.578-55.273z" fill="#fac600"/></g><g><circle cx="242.113" cy="166.673" fill="#fef1da" r="23.959"/></g><g><path d="m239.517 166.673c0-9.393 5.408-17.518 13.278-21.446-3.217-1.605-6.842-2.513-10.682-2.513-13.232 0-23.959 10.727-23.959 23.959s10.727 23.959 23.959 23.959c3.839 0 7.465-.908 10.682-2.513-7.87-3.928-13.278-12.053-13.278-21.446z" fill="#fae2c0"/></g><g><path d="m242.113 198.133c-17.347 0-31.459-14.113-31.459-31.46s14.113-31.459 31.459-31.459 31.459 14.112 31.459 31.459-14.113 31.46-31.459 31.46zm0-47.919c-9.076 0-16.459 7.384-16.459 16.459 0 9.076 7.384 16.46 16.459 16.46s16.459-7.384 16.459-16.46c0-9.075-7.384-16.459-16.459-16.459z" fill="#e8b800"/></g><g><path d="m402.5 400.635c-3.479-11.133-15.396-17.265-26.476-13.624l-77.676 25.522c1.238 2.497 1.953 5.297 1.953 8.268 0 10.307-8.385 18.691-18.692 18.691h-173.109v31.325l112.395 23.89c11.632 2.057 23.615.452 34.295-4.594l137.498-64.964c8.671-4.81 12.769-15.05 9.812-24.514z" fill="#ea9b58"/></g><path d="m276.338 55.703-22.627 22.628c-1.162 1.161-1.801 2.706-1.801 4.349v28.545c9.192 1.617 17.614 5.463 24.694 10.96v-33.397l24.401-24.401-8.683-8.684c-2.135-2.135-4.973-3.31-7.991-3.31-3.02.001-5.858 1.175-7.993 3.31z" fill="#d88a55"/><path d="m506.386 5.474h-228.929c-5.956 0-11.668 2.366-15.879 6.577l-45.793 45.793c-4.211 4.211-6.577 9.923-6.577 15.879v47.274c9.257-6.681 20.617-10.629 32.905-10.629 3.694 0 7.301.367 10.797 1.046v-28.734c0-1.366.543-2.676 1.509-3.642l22.627-22.627c4.023-4.023 10.546-4.023 14.569 0l26.857 26.857c4.023 4.023 4.023 10.546 0 14.569l-39.628 39.628c-8.982 8.982-8.982 23.546 0 32.528 8.982 8.982 23.546 8.982 32.528 0l48.825-48.825c19.445-2.107 37.703-10.769 51.662-24.731 3.966-3.966 9.346-6.191 14.955-6.191h79.572c3.101 0 5.614-2.513 5.614-5.614v-73.544c0-3.101-2.514-5.614-5.614-5.614z" fill="#ea9b58"/><g><g><path d="m233.336 80.166c0-6.529 2.594-12.791 7.211-17.408l50.204-50.204c4.021-4.021 9.289-6.505 14.895-7.08h-28.189c-5.956 0-11.668 2.366-15.879 6.577l-45.793 45.793c-4.211 4.211-6.577 9.923-6.577 15.879v47.275c7.007-5.057 15.22-8.544 24.128-9.942z" fill="#d88a55"/></g></g><path d="m281.609 401.108h-50.263c-8.02-21.198-28.496-36.275-52.503-36.275h-70.343v75.659h173.109c10.876 0 19.692-8.816 19.692-19.692 0-10.875-8.816-19.692-19.692-19.692z" fill="#d88a55"/><g><g><circle cx="286.231" cy="303.421" fill="#fed402" r="56.305"/></g><g><path d="m251.56 303.421c0-27.395 19.568-50.21 45.488-55.255-3.502-.682-7.116-1.049-10.817-1.049-31.096 0-56.305 25.208-56.305 56.305 0 31.096 25.208 56.305 56.305 56.305 3.701 0 7.315-.368 10.817-1.049-25.92-5.047-45.488-27.862-45.488-55.257z" fill="#fac600"/></g><g><ellipse cx="286.231" cy="303.421" fill="#fe7701" rx="23.959" ry="23.959" transform="matrix(.252 -.968 .968 .252 -79.468 504.063)"/></g></g><g><g><ellipse cx="286.231" cy="303.421" fill="#fef1da" rx="23.959" ry="23.959" transform="matrix(.252 -.968 .968 .252 -79.468 504.063)"/></g><g><path d="m283.815 303.421c0-9.357 5.367-17.455 13.188-21.4-3.239-1.634-6.896-2.56-10.772-2.56-13.232 0-23.959 10.727-23.959 23.959s10.727 23.959 23.959 23.959c3.876 0 7.533-.926 10.772-2.56-7.821-3.943-13.188-12.041-13.188-21.398z" fill="#fae2c0"/></g><g><path d="m286.23 334.881c-17.347 0-31.459-14.113-31.459-31.46s14.112-31.459 31.459-31.459 31.459 14.112 31.459 31.459-14.112 31.46-31.459 31.46zm0-47.919c-9.076 0-16.459 7.384-16.459 16.459 0 9.076 7.383 16.46 16.459 16.46s16.459-7.384 16.459-16.46c.001-9.075-7.383-16.459-16.459-16.459z" fill="#e8b800"/></g></g><g><path d="m181.501 239.069-13.971 13.971c-1.207 1.207-1.207 3.164 0 4.371l13.971 13.971c1.207 1.207 3.164 1.207 4.371 0l13.971-13.971c1.207-1.207 1.207-3.164 0-4.371l-13.971-13.971c-1.208-1.207-3.165-1.207-4.371 0z" fill="#fe860a"/></g><g><path d="m183.762 257.411c-1.207-1.207-1.207-3.164 0-4.371l8.04-8.04-5.931-5.931c-1.207-1.207-3.164-1.207-4.371 0l-13.971 13.971c-1.207 1.207-1.207 3.164 0 4.371l13.971 13.971c1.207 1.207 3.164 1.207 4.371 0l5.931-5.931z" fill="#fe7701"/></g><g><path d="m348.692 192.132-19.223 19.223c-1.207 1.207-1.207 3.164 0 4.371l19.223 19.223c1.207 1.207 3.164 1.207 4.371 0l19.223-19.223c1.207-1.207 1.207-3.164 0-4.371l-19.223-19.223c-1.207-1.206-3.164-1.206-4.371 0z" fill="#fe860a"/></g><g><path d="m350.652 215.726c-1.207-1.207-1.207-3.164 0-4.371l10.817-10.817-8.406-8.406c-1.207-1.207-3.164-1.207-4.371 0l-19.223 19.223c-1.207 1.207-1.207 3.164 0 4.371l19.223 19.223c1.207 1.207 3.164 1.207 4.371 0l8.406-8.406z" fill="#fe7701"/></g><g><path d="m109.5 501.526v-161.538c0-2.761-2.239-5-5-5h-99.5c-2.761 0-5 2.239-5 5v161.538c0 2.761 2.239 5 5 5h99.5c2.761 0 5-2.238 5-5z" fill="#80d261"/><path d="m109.5 501.526v-25.462h-69.5c-2.761 0-5-2.239-5-5v-136.076h-30c-.69 0-1.348.14-1.946.393-1.196.506-2.155 1.464-2.661 2.661-.253.598-.393 1.256-.393 1.946v161.538c0 .69.14 1.348.393 1.946s.619 1.137 1.072 1.589c.452.453.991.818 1.589 1.072s1.256.393 1.946.393h99.5c2.761 0 5-2.238 5-5z" fill="#4fc123"/></g></g></svg>