<svg xmlns="http://www.w3.org/2000/svg" viewBox="0 0 511.999 511.999" style="enable-background:new 0 0 511.999 511.999" xml:space="preserve"><path style="fill:#ff4a4a" d="M255.999 0C147.059 0 58.43 88.629 58.43 197.568c0 37.618 10.251 77.556 30.467 118.703 16.03 32.627 38.342 66.111 66.317 99.521 47.491 56.721 94.228 93.115 96.194 94.638a7.495 7.495 0 0 0 4.591 1.568c1.619 0 3.24-.523 4.591-1.568 1.967-1.522 48.703-37.917 96.194-94.638 27.974-33.411 50.287-66.895 66.317-99.521 20.216-41.147 30.467-81.085 30.467-118.703C453.568 88.629 364.939 0 255.999 0zm0 129.263c37.663 0 68.305 30.641 68.305 68.305 0 37.663-30.641 68.305-68.305 68.305s-68.305-30.641-68.305-68.305c0-37.664 30.641-68.305 68.305-68.305z"/><path style="fill:#e7343f" d="M255.999 0c-7.413 0-14.729.424-21.933 1.224 98.655 10.947 175.636 94.818 175.636 196.345 0 37.618-10.25 77.556-30.467 118.703-16.03 32.627-38.342 66.111-66.317 99.521-30.47 36.392-60.628 64.415-78.852 80.231 10.18 8.835 16.637 13.861 17.342 14.406a7.495 7.495 0 0 0 4.591 1.568c1.619 0 3.24-.523 4.591-1.568 1.967-1.522 48.703-37.917 96.194-94.638 27.974-33.411 50.287-66.895 66.317-99.521 20.216-41.147 30.467-81.085 30.467-118.703C453.568 88.629 364.939 0 255.999 0z"/></svg>