<svg viewBox="0 0 512.016 512.016" xmlns="http://www.w3.org/2000/svg"><path d="M465.18 361.731a7.5 7.5 0 0 0-14.254 4.67 221.125 221.125 0 0 1 11.007 68.965c.019 11.102-3.074 22.226-8.78 31.719a61.784 61.784 0 0 1-22.494 21.924 61.68 61.68 0 0 1-10.106 4.564 31.168 31.168 0 0 0 2.741-12.817c0-14.099-9.392-26.206-22.542-30.016 4.304-4.859 7.271-11.017 8.261-17.984a34.223 34.223 0 0 0-8.04-27.265 34.219 34.219 0 0 0-14.278-9.769c-.809-10.297-5.806-19.725-14.013-26.203-4.514-3.562-7.47-8.935-8.324-15.127a41.659 41.659 0 0 0-4.051-13.031 41.89 41.89 0 0 0-26.016-21.465l-18.139-5.109a10.007 10.007 0 0 0-10.096 2.839 10.011 10.011 0 0 0-2.075 10.28l3.082 8.453a26.276 26.276 0 0 1-.249 18.677c-1.431 3.884-4.466 6.929-8.713 8.623-8.404 3.356-14.643 10.173-17.117 18.703a30.417 30.417 0 0 0-.987 12.275c-6.351 1.643-11.969 5.393-16.005 10.846-5.546 7.493-7.165 16.904-4.441 25.819a29.052 29.052 0 0 0 2.564 5.931c-15.67 4.754-27.111 19.348-27.111 36.573 0 7.6 2.239 14.682 6.08 20.64-14.589-4.357-27.367-14.036-35.362-27.365-6.427-10.511-9.257-23.029-8.787-35.314 0-36.225 9.007-72.271 26.049-104.243l65.947-123.766a102.61 102.61 0 0 0 32.377-16.825l7.511 5.572 3.717 35.572a42.398 42.398 0 0 0 5.224 16.398c-9.715 5.58-16.111 16.08-16.111 27.744 0 17.624 14.338 31.962 31.961 31.962h55.993c3.519 0 6.904-.58 10.073-1.636l13.07 22.868a212.877 212.877 0 0 1 5.216 9.678 7.5 7.5 0 1 0 13.385-6.771 229.374 229.374 0 0 0-5.581-10.356l-13.361-23.378c5.661-5.769 9.16-13.666 9.16-22.368a31.778 31.778 0 0 0-5.87-18.426c12.964-4.076 22.394-16.205 22.394-30.498a31.79 31.79 0 0 0-6.541-19.344c11.646-4.777 19.872-16.233 19.872-29.58s-8.226-24.803-19.872-29.58a31.795 31.795 0 0 0 6.541-19.344c0-17.624-14.338-31.962-31.962-31.962h-41.164l24.699-51.814c4.159-8.725.452-19.221-8.264-23.397L371.034 3.719c-10.259-4.918-22.047-4.96-32.339-.117L300.42 21.607l-41.908-6.683c-3.646-.58-7.216.942-9.319 3.977a9.44 9.44 0 0 0-.448 10.122l28.599 50.256a65.785 65.785 0 0 0-18.838 4.286 66.184 66.184 0 0 0-18.255 10.723 7.501 7.501 0 0 0 9.565 11.555 51.21 51.21 0 0 1 14.128-8.298 50.943 50.943 0 0 1 18.559-3.479h28.46c8.92 0 17.297 4.356 22.408 11.654l39.062 55.742a35.885 35.885 0 0 1 6.531 20.704v64.58c0 2.371-1.929 4.3-4.3 4.3-6.778 0-13.284-2.5-18.318-7.04a27.347 27.347 0 0 1-8.893-17.489l-4.06-38.85a7.497 7.497 0 0 0-2.991-5.244l-29.14-21.62c-3.327-2.468-8.024-1.772-10.492 1.555s-1.772 8.024 1.555 10.492l6.381 4.734c-20.902 14.602-47.335 19.476-72.272 12.997l-2.75-.714a7.5 7.5 0 1 0-3.769 14.519c9.33 2.601 19.005 4.042 28.528 4.007 3.808 0 7.602-.236 11.37-.656l-31.86 59.793c-17.617-8.856-37.294-13.131-56.989-12.708V128.146h13.85a78.222 78.222 0 0 0 22.075-3.164 7.5 7.5 0 0 0-4.23-14.392 63.23 63.23 0 0 1-17.845 2.556h-13.85v-6.32c0-9.649-7.851-17.5-17.5-17.5h-31.24c-7.139 0-13.283 4.302-16.002 10.445a264.689 264.689 0 0 0-73.639-10.446 7.5 7.5 0 0 0 0 15c24.476 0 48.725 3.585 72.141 10.643v92.248a7.5 7.5 0 0 0 15 0v-100.39c0-1.378 1.122-2.5 2.5-2.5h31.24c1.378 0 2.5 1.122 2.5 2.5v164.67c0 1.378-1.122 2.5-2.5 2.5h-31.24a2.503 2.503 0 0 1-2.5-2.5v-29.28a7.5 7.5 0 0 0-15 0v21.122a249.7 249.7 0 0 1-71.102 10.328h-.159a7.5 7.5 0 0 0 0 15h.159a264.66 264.66 0 0 0 72.585-10.146c2.712 6.16 8.866 10.476 16.017 10.476h31.24c9.649 0 17.5-7.851 17.5-17.5v-1.675c17.251-.416 34.495 3.246 49.933 10.951l-21.152 39.696c-18.194 34.135-27.811 72.622-27.811 111.298-.509 14.989 3.122 30.219 10.928 43.039 13.77 22.953 38.957 37.211 65.731 37.211h141.69a76.824 76.824 0 0 0 37.765-9.953 76.809 76.809 0 0 0 27.968-27.26c7.1-11.811 10.94-25.632 10.917-39.437a236.068 236.068 0 0 0-11.753-73.635zm-39.054-121.474h-32.163v-33.924h32.163c9.353 0 16.962 7.609 16.962 16.962s-7.609 16.962-16.962 16.962zm13.331-48.924h-45.494v-9.167c0-8.745-2.204-17.204-6.402-24.757h51.896c9.353 0 16.962 7.609 16.962 16.962s-7.608 16.962-16.962 16.962zm3.631-65.886c0 9.353-7.609 16.962-16.962 16.962h-48.729l-23.772-33.924h72.501c9.353 0 16.962 7.609 16.962 16.962zM394.915 31.8a2.57 2.57 0 0 1 1.207 3.417l-27.776 58.268h-15.917l8.678-77.559a22.92 22.92 0 0 1 3.444 1.319zm-99.046 4.271 14.569 42.995h-15.981c-.163-.407-26.818-47.127-27.023-47.529zm31.464 46.307c-.189-1.12-16.261-47.988-16.56-49.064.801-.35 34.397-16.232 35.141-16.503l-8.047 71.916a42.398 42.398 0 0 0-10.534-6.349zm47.331 183.668c7.585 0 14.143-4.409 17.296-10.789h17.643c9.353 0 16.962 7.609 16.962 16.962s-7.609 16.962-16.962 16.962H353.61c-9.353 0-16.961-7.609-16.961-16.962 0-7.14 4.512-13.449 11.031-15.886a42.27 42.27 0 0 0 26.984 9.713zM295.391 386.54c1.177-4.058 4.193-7.321 8.274-8.951 8.071-3.217 14.12-9.268 17.07-16.967a41.253 41.253 0 0 0 .642-28.78l8.849 2.492a26.855 26.855 0 0 1 16.679 13.761 26.718 26.718 0 0 1 2.595 8.348c1.387 10.05 6.32 18.875 13.89 24.85 4.024 3.176 6.759 7.539 7.874 12.4H295.03c-.391-1.99-.437-4.399.361-7.153zm-22.238 64.056c.91 0 1.849.054 2.768.159 5.129.6 18.619 2.191 23.918 2.81a7.5 7.5 0 1 0 1.748-14.898c-.356-.046-15.616-1.824-15.963-1.878a14.105 14.105 0 0 1-11.727-9.87c-1.32-4.321-.536-8.881 2.152-12.513 2.688-3.631 6.82-5.714 11.338-5.714h87.726c5.579 0 10.875 2.417 14.532 6.63s5.303 9.798 4.518 15.321c-1.473 10.359-10.712 17.524-21.098 16.414l-36.717-4.31c-4.119-.486-7.84 2.46-8.323 6.574s2.46 7.84 6.574 8.323c14.27 1.675 45.359 5.326 59.324 6.96 8.193.958 14.371 7.901 14.371 16.151 0 4.342-1.691 8.425-4.763 11.496a16.166 16.166 0 0 1-11.507 4.764h-118.81c-12.798 0-23.21-10.412-23.21-23.21s10.384-23.209 23.149-23.209z"/></svg>