<svg xmlns="http://www.w3.org/2000/svg" viewBox="0 0 512 512"><g fill="#fe9738"><path d="m298.333 286.602 89.879-70.407L402.244 93.62 298.333 36.416l-42.182 57.97c21.83 10.961 37.334 32.842 39.198 58.37 2.339 32.111-17.132 62.007-47.368 72.69-40.177 14.217-67.178 52.57-67.178 95.446v18.42c0 23.993 19.45 43.443 43.432 43.443h63.531zM173.02 201.623h-63.528c-23.99 0-43.438-19.448-43.438-43.438 0-7.354.513-14.758 1.524-22.006C78.959 54.614 152.413-5.063 234.803.345h63.539L253.14 45.986M287.768 424.763h-63.529c-23.99 0-43.438 19.448-43.438 43.438v.36c0 23.99 19.448 43.438 43.438 43.438h55.803"/></g><path d="M287.768 382.75c-23.99 0-43.438-19.448-43.438-43.438v-18.425c0-42.876 26.999-81.228 67.185-95.436 30.227-10.688 49.705-40.581 47.364-72.693-2.564-35.163-31.033-63.417-66.222-65.721-37.221-2.459-70.382 24.422-75.507 61.148a72.636 72.636 0 0 0-.69 10.001c0 23.99-19.448 43.438-43.438 43.438s-43.438-19.448-43.438-43.438c0-7.354.513-14.758 1.524-22.006C142.489 54.614 215.942-5.063 298.333.345c78.216 5.122 141.496 67.93 147.194 146.096 5.178 71.044-38.02 137.215-105.051 160.917-5.544 1.96-9.269 7.397-9.269 13.529v18.425c0 23.99-19.448 43.438-43.439 43.438zM287.768 512c-23.99 0-43.438-19.448-43.438-43.438v-.36c0-23.99 19.448-43.438 43.438-43.438s43.438 19.448 43.438 43.438v.36c.001 23.99-19.447 43.438-43.438 43.438z" fill="#ffd15b"/><g fill="#ffc344"><path d="M169.506 136.184a158.342 158.342 0 0 0-1.519 22.001c0 17.097 9.872 31.894 24.235 38.968a43.174 43.174 0 0 1-19.202 4.47c-23.975 0-43.437-19.44-43.437-43.437 0-7.355.521-14.754 1.54-22.001C142.493 54.604 215.959-5.063 298.342.34c2.951.195 5.88.477 8.787.846-69.755 8.592-127.621 63.355-137.623 134.998zM349.916 225.445c-40.183 14.211-67.195 52.572-67.195 95.445v18.421c0 17.097 9.894 31.895 24.257 38.968a43.174 43.174 0 0 1-19.202 4.47c-23.997 0-43.437-19.441-43.437-43.437V320.89c0-42.873 26.991-81.233 67.195-95.445 30.224-10.697 49.686-40.573 47.343-72.685-2.191-30.202-23.498-55.306-51.769-63.225a70.962 70.962 0 0 1 23.953-2.495c35.193 2.3 63.659 30.549 66.219 65.72 2.343 32.112-17.141 61.989-47.364 72.685zM306.977 507.527a43.174 43.174 0 0 1-19.202 4.47c-23.997 0-43.437-19.44-43.437-43.437v-.369c0-23.975 19.44-43.437 43.437-43.437 6.9 0 13.409 1.606 19.202 4.47-14.363 7.095-24.257 21.892-24.257 38.968v.369c0 17.096 9.894 31.893 24.257 38.966z"/></g></svg>