<svg id="Capa_1" enable-background="new 0 0 511.617 511.617" height="512" viewBox="0 0 511.617 511.617" width="512" xmlns="http://www.w3.org/2000/svg"><g><path d="m242.26 199.161-35.534 35.534c-2.929 2.93-2.929 7.678 0 10.607 1.465 1.464 3.385 2.196 5.304 2.196s3.839-.732 5.304-2.196l35.534-35.534c6.091-6.092 14.189-9.446 22.805-9.446h72.832c8.614 0 16.713 3.354 22.804 9.446l24.133 24.133c1.407 1.406 3.314 2.196 5.304 2.196h103.373c4.143 0 7.5-3.357 7.5-7.5s-3.357-7.5-7.5-7.5h-100.268l-21.936-21.937c-8.925-8.924-20.79-13.839-33.411-13.839h-72.832c-12.621.001-24.487 4.916-33.412 13.84z"/><path d="m194.602 268.034c2.929-2.93 2.929-7.678 0-10.607-2.93-2.928-7.678-2.928-10.607 0l-10.188 10.188c-14.078 14.079-14.078 36.988.001 51.068 7.039 7.039 16.286 10.559 25.533 10.559s18.493-3.52 25.533-10.559l24.887-24.888c9.621 7.346 21.32 11.322 33.632 11.322h18.198c14.843 0 28.795-5.779 39.288-16.272l6.897-6.897 30.793 30.794c1.465 1.464 3.384 2.196 5.304 2.196 1.919 0 3.839-.732 5.304-2.196 2.929-2.93 2.929-7.678 0-10.607l-30.793-30.794 9.343-9.343c2.929-2.93 2.929-7.678 0-10.607-2.93-2.928-7.678-2.928-10.607 0l-14.641 14.642c-.002.002-.004.003-.005.005s-.003.004-.005.005l-12.196 12.197c-7.659 7.66-17.845 11.879-28.681 11.879h-18.198c-10.835 0-21.021-4.219-28.681-11.88-2.93-2.928-7.678-2.928-10.607 0l-29.838 29.838c-8.23 8.231-21.624 8.23-29.853.001-8.23-8.231-8.23-21.624 0-29.854z"/><path d="m504.117 365.443h-67.828c.092-.986.142-1.982.142-2.985 0-8.428-3.282-16.352-9.241-22.312l-15.411-15.411c-2.93-2.928-7.678-2.928-10.607 0-2.929 2.93-2.929 7.678 0 10.607l15.411 15.411c6.454 6.454 6.454 16.955.001 23.409-6.454 6.455-16.957 6.454-23.409 0l-42.262-42.262c-2.93-2.928-7.678-2.928-10.607 0-2.929 2.93-2.929 7.678 0 10.607l48.313 48.314c6.454 6.454 6.454 16.955 0 23.409-6.454 6.456-16.957 6.454-23.409 0l-61.475-61.475c-2.93-2.928-7.678-2.928-10.607 0-2.929 2.93-2.929 7.678 0 10.607l45.413 45.413c6.435 6.456 6.429 16.941-.018 23.389-6.452 6.455-16.955 6.456-23.409 0l-45.149-45.149c-2.93-2.928-7.678-2.928-10.607 0-2.929 2.93-2.929 7.678 0 10.607l38.613 38.613c3.127 3.126 4.849 7.283 4.849 11.704 0 4.422-1.722 8.579-4.849 11.706-3.126 3.126-7.282 4.848-11.704 4.848-4.421 0-8.578-1.722-11.704-4.849l-12.047-12.047c.194-1.424.3-2.87.3-4.332 0-8.428-3.282-16.352-9.241-22.312-5.96-5.959-13.884-9.241-22.313-9.241-.865 0-1.722.043-2.574.112.068-.853.112-1.71.112-2.575 0-8.429-3.282-16.353-9.241-22.311-5.959-5.96-13.883-9.242-22.312-9.242-.87 0-1.733.043-2.591.113.724-8.916-2.309-18.083-9.114-24.888-5.96-5.959-13.884-9.241-22.313-9.241-.865 0-1.722.043-2.574.112.068-.853.112-1.71.112-2.575 0-8.429-3.282-16.353-9.241-22.313-12.302-12.302-32.32-12.303-44.624 0l-24.172 24.173c-9.702 9.702-11.745 24.2-6.144 35.931h-69.086c-4.143 0-7.5 3.357-7.5 7.5s3.357 7.5 7.5 7.5h84.223c4.117 1.919 8.638 2.934 13.317 2.934.865 0 1.722-.043 2.574-.112-.068.853-.112 1.71-.112 2.575 0 8.429 3.282 16.353 9.241 22.312 6.152 6.151 14.23 9.227 22.313 9.227.859 0 1.719-.042 2.576-.112-.069.857-.113 1.72-.113 2.59 0 8.428 3.282 16.352 9.241 22.312 5.96 5.959 13.884 9.241 22.312 9.241.87 0 1.733-.043 2.591-.113-.724 8.916 2.309 18.083 9.114 24.888 6.109 6.109 14.201 9.172 22.301 9.171 7.908 0 15.823-2.922 21.898-8.78 2.981-2.875 3.068-7.623.192-10.604-2.876-2.982-7.625-3.067-10.604-.192-6.451 6.221-16.85 6.13-23.18-.2-6.454-6.455-6.454-16.956 0-23.41l24.172-24.172c6.454-6.455 16.957-6.455 23.409 0 6.454 6.454 6.454 16.955 0 23.409l-1.75 1.75c-2.929 2.93-2.929 7.678 0 10.607 2.93 2.928 7.678 2.928 10.607 0l1.75-1.75c.962-.962 1.847-1.981 2.667-3.04l7.714 7.714c5.96 5.959 13.884 9.241 22.312 9.241 8.429 0 16.353-3.282 22.312-9.241 5.308-5.309 8.485-12.178 9.117-19.573 2.921.878 5.987 1.334 9.123 1.334 8.429 0 16.353-3.282 22.313-9.241 4.273-4.273 7.16-9.56 8.458-15.314 5.666 4.398 12.494 6.606 19.328 6.606 8.08 0 16.16-3.075 22.312-9.227 8.364-8.364 11.034-20.293 8.025-30.941 7.27-.544 14.39-3.581 19.938-9.128 1.346-1.346 2.548-2.797 3.614-4.327h73.314c4.143 0 7.5-3.357 7.5-7.5s-3.359-7.499-7.502-7.499zm-410.782 11.655c-6.454-6.455-6.454-16.957 0-23.41l24.172-24.172c3.227-3.228 7.466-4.841 11.704-4.841 4.239 0 8.479 1.613 11.705 4.841 6.454 6.454 6.454 16.955 0 23.409l-24.172 24.172c-6.454 6.453-16.955 6.456-23.409.001zm34.016 34.014c-3.126-3.126-4.848-7.282-4.848-11.704 0-4.421 1.722-8.578 4.849-11.704l24.172-24.172c3.228-3.228 7.465-4.841 11.705-4.841 4.238 0 8.478 1.613 11.704 4.84 6.452 6.453 6.454 16.95.007 23.403-.002.002-.005.004-.007.007l-24.172 24.171c-6.454 6.456-16.956 6.454-23.41 0zm57.425 34.018c-3.126 3.126-7.282 4.848-11.704 4.848-4.421 0-8.578-1.722-11.704-4.849-3.127-3.126-4.849-7.283-4.849-11.704 0-4.422 1.722-8.578 4.849-11.704l24.172-24.172c0-.001 0-.001 0-.001 3.126-3.126 7.282-4.848 11.704-4.848s8.578 1.722 11.705 4.849c3.126 3.126 4.848 7.282 4.848 11.704 0 4.421-1.722 8.578-4.849 11.704z"/><path d="m8.234 239.477h95.886c1.785 0 3.512-.637 4.869-1.795l19.064-16.272c5.622-4.797 12.786-7.438 20.174-7.438h57.397c4.143 0 7.5-3.357 7.5-7.5s-3.357-7.5-7.5-7.5h-57.397c-10.954 0-21.576 3.917-29.911 11.028l-16.962 14.478h-93.12c-4.143 0-7.5 3.357-7.5 7.5s3.358 7.499 7.5 7.499z"/><path d="m222.987 122.933-6.642 20.715c-1.276 3.983-.09 8.363 3.021 11.158 3.11 2.795 7.591 3.505 11.419 1.812l23.507-10.422c1.094-.484 2.349-.484 3.44 0l23.509 10.422c1.381.612 2.847.91 4.303.91 2.578 0 5.127-.936 7.115-2.722 3.111-2.795 4.298-7.175 3.021-11.158 0 0-.001 0-.001-.001l-6.641-20.714 14.636-17.966c3.225-3.958 3.866-9.281 1.676-13.893-2.191-4.61-6.724-7.475-11.828-7.475h-15.18l-11.202-18.049c-2.405-3.875-6.564-6.188-11.126-6.188s-8.721 2.313-11.126 6.188l-11.204 18.05h-15.18c-5.104 0-9.637 2.864-11.828 7.475-2.19 4.611-1.549 9.935 1.676 13.893zm11.756-24.333c4.562 0 8.722-2.314 11.126-6.189l10.145-16.342 10.144 16.341c2.405 3.876 6.565 6.19 11.127 6.19h12.231l-12.758 15.66c-2.809 3.449-3.675 8.035-2.316 12.27l3.985 12.432-14.614-6.479c-4.955-2.197-10.642-2.197-15.599 0l-14.613 6.479 3.985-12.432c1.358-4.234.492-8.82-2.317-12.271l-12.757-15.659z"/><path d="m256.014 38.096c4.143 0 7.5-3.357 7.5-7.5v-10.403c0-4.143-3.357-7.5-7.5-7.5s-7.5 3.357-7.5 7.5v10.402c0 4.143 3.357 7.501 7.5 7.501z"/><path d="m191.486 60.845c1.465 1.464 3.385 2.196 5.304 2.196s3.839-.732 5.304-2.196c2.929-2.93 2.929-7.678 0-10.607l-7.355-7.355c-2.93-2.928-7.678-2.928-10.607 0-2.929 2.93-2.929 7.678 0 10.607z"/><path d="m315.237 63.041c1.919 0 3.839-.732 5.304-2.196l7.355-7.355c2.929-2.93 2.929-7.678 0-10.607-2.93-2.928-7.678-2.928-10.607 0l-7.355 7.355c-2.929 2.93-2.929 7.678 0 10.607 1.464 1.464 3.384 2.196 5.303 2.196z"/></g></svg>