<svg id="Capa_1" enable-background="new 0 0 496.584 496.584" height="512" viewBox="0 0 496.584 496.584" width="512" xmlns="http://www.w3.org/2000/svg"><g><path d="m480.588 232.987h-191.529l-21.31 18.682v116.25h151.244 69.783c4.312 0 7.808-3.496 7.808-7.808v-108.441z" fill="#ea9b58"/><path d="m414.351 340.422-74.11-74.11-60.56-64.86h-81.59-57.4c-9.18 0-18.06 3.27-25.04 9.23l-19.06 16.27h-89.808c-3.364 0-6.095 2.718-6.11 6.082l-.673 142.318c-.016 3.386 2.724 6.14 6.11 6.14h79.88 59.325l80.778 62.318h19.592l3.295 3.372 12.74 12.75c9.4 9.39 24.63 9.39 34.02 0 4.7-4.7 7.04-10.86 7.04-17.01 0-6.16-2.34-12.32-7.04-17.01l6.54 6.54c9.39 9.39 24.62 9.39 34.01 0 4.69-4.7 7.04-10.86 7.04-17.01 0-6.16-2.35-12.32-7.04-17.01l16.08 16.08c9.4 9.39 24.62 9.39 34.02 0 4.69-4.69 7.04-10.85 7.04-17.01 0-6.15-2.35-12.31-7.04-17.01l-6.05-6.05c9.39 9.39 24.62 9.39 34.01 0 4.7-4.7 7.05-10.85 7.05-17.01.001-6.15-2.349-12.31-7.049-17.01z" fill="#ffbd86"/><path d="m252.885 411.966c-5.705-5.717-12.886-9.425-20.689-10.777-1.824-.316-3.229-1.724-3.547-3.547-1.324-7.573-4.901-14.824-10.736-20.658-5.629-5.63-12.691-9.307-20.365-10.702-1.972-.359-3.538-1.924-3.897-3.896-1.396-7.675-5.077-14.74-10.712-20.375-5.613-5.614-12.649-9.286-20.294-10.69-2.025-.372-3.625-1.975-4-4-1.695-9.155-6.696-17.812-15.009-24.03-5.388-4.03-11.796-6.573-18.481-7.332-12.034-1.366-23.588 2.707-31.951 11.088l-24.843 24.843c-3.781 3.777-6.679 8.198-8.6 13.016-1.488 3.732-5.177 6.119-9.195 6.119h-44.455c-2.936 0-5.384-2.072-5.973-4.83l-.138 29.157c-.016 3.386 2.724 6.139 6.11 6.139h79.88 59.325l1.35 1.042 79.428 61.277h19.592l3.295 3.372 10.585 10.593c3.04-5.596 4.658-11.891 4.658-18.438.001-10.346-4.031-20.073-11.338-27.371z" fill="#f6a96c"/><g id="XMLID_997_"><g fill="#ea9b58"><path d="m242.976 421.856c9.663 9.653 9.663 25.31 0 34.963l-24.847 24.847c-4.832 4.832-11.154 7.248-17.476 7.248-6.333 0-12.665-2.416-17.487-7.248-9.663-9.653-9.663-25.31 0-34.963l24.847-24.847c4.832-4.832 11.154-7.248 17.476-7.248 6.333.001 12.666 2.417 17.487 7.248z"/><path d="m208.013 386.883c9.653 9.653 9.653 25.31 0 34.973l-24.847 24.847c-4.832 4.821-11.164 7.237-17.487 7.237-6.333 0-12.665-2.416-17.487-7.237-9.653-9.663-9.653-25.32 0-34.973l24.847-24.847c4.832-4.832 11.164-7.237 17.487-7.237 6.333 0 12.655 2.405 17.487 7.237z"/><path d="m173.04 351.91c9.663 9.663 9.663 25.32 0 34.973l-24.847 24.847c-4.821 4.821-11.154 7.237-17.487 7.237-6.322 0-12.655-2.416-17.487-7.237-9.653-9.653-9.653-25.31 0-34.973l24.858-24.847c4.821-4.832 11.154-7.237 17.487-7.237 6.322-.001 12.644 2.405 17.476 7.237z"/><path d="m138.077 316.946c9.653 9.653 9.653 25.31 0 34.963l-24.858 24.847c-4.821 4.832-11.154 7.248-17.487 7.248-6.322 0-12.645-2.416-17.476-7.248-9.663-9.653-9.663-25.31 0-34.963l24.847-24.847c4.821-4.832 11.154-7.248 17.487-7.248 6.322.001 12.655 2.417 17.487 7.248z"/></g></g><g><path d="m488.776 223.574h-95.565l-24.133-24.133c-7.455-7.455-17.565-11.643-28.108-11.643h-72.832c-10.542 0-20.653 4.188-28.108 11.643l-68.453 68.453c-11.173 11.173-11.173 29.288 0 40.46 11.173 11.173 29.288 11.173 40.46 0l29.837-29.837c9.013 9.013 21.238 14.077 33.984 14.077h18.199c12.746 0 24.971-5.064 33.984-14.077l26.848-26.848h141.694v-20.288c.001-4.311-3.494-7.807-7.807-7.807z" fill="#ea9b58"/></g><path d="m281.006 140.913-6.956-21.697c-.578-1.803-.205-3.775.99-5.242l15.288-18.767c2.978-3.656.377-9.13-4.338-9.13h-16.239c-1.935 0-3.733-1-4.754-2.645l-11.762-18.949c-2.189-3.526-7.32-3.526-9.509 0l-11.762 18.949c-1.021 1.644-2.819 2.645-4.754 2.645h-16.239c-4.715 0-7.316 5.474-4.338 9.13l15.288 18.767c1.196 1.468 1.568 3.44.99 5.242l-6.956 21.697c-.826 2.578 1.782 4.921 4.257 3.824l23.508-10.422c3.031-1.344 6.489-1.344 9.52 0l23.508 10.422c2.476 1.097 5.084-1.247 4.258-3.824z" fill="#fedf30"/><g><path d="m248.481 33.072c-4.143 0-7.5-3.357-7.5-7.5v-10.402c0-4.143 3.357-7.5 7.5-7.5s7.5 3.357 7.5 7.5v10.402c0 4.143-3.357 7.5-7.5 7.5z" fill="#fedf30"/></g><g><path d="m189.257 58.017c-1.919 0-3.839-.732-5.304-2.196l-7.355-7.355c-2.929-2.93-2.929-7.678 0-10.607 2.93-2.928 7.678-2.928 10.607 0l7.355 7.355c2.929 2.93 2.929 7.678 0 10.607-1.464 1.464-3.384 2.196-5.303 2.196z" fill="#fedf30"/></g><g><path d="m307.705 58.017c-1.919 0-3.839-.732-5.304-2.196-2.929-2.93-2.929-7.678 0-10.607l7.355-7.355c2.93-2.928 7.678-2.928 10.607 0 2.929 2.93 2.929 7.678 0 10.607l-7.355 7.355c-1.464 1.464-3.384 2.196-5.303 2.196z" fill="#fedf30"/></g></g></svg>