<svg viewBox="0 0 511.617 511.617" xmlns="http://www.w3.org/2000/svg"><path d="m242.26 199.161-35.534 35.534a7.5 7.5 0 1 0 10.608 10.607l35.534-35.534c6.091-6.092 14.189-9.446 22.805-9.446h72.832c8.614 0 16.713 3.354 22.804 9.446l24.133 24.133a7.502 7.502 0 0 0 5.304 2.196h103.373c4.143 0 7.5-3.357 7.5-7.5s-3.357-7.5-7.5-7.5H403.851l-21.936-21.937c-8.925-8.924-20.79-13.839-33.411-13.839h-72.832c-12.621.001-24.487 4.916-33.412 13.84zm-47.658 68.873a7.5 7.5 0 0 0-10.607-10.607l-10.188 10.188c-14.078 14.079-14.078 36.988.001 51.068 7.039 7.039 16.286 10.559 25.533 10.559s18.493-3.52 25.533-10.559l24.887-24.888c9.621 7.346 21.32 11.322 33.632 11.322h18.198c14.843 0 28.795-5.779 39.288-16.272l6.897-6.897 30.793 30.794a7.48 7.48 0 0 0 5.304 2.196 7.5 7.5 0 0 0 5.304-12.803l-30.793-30.794 9.343-9.343a7.5 7.5 0 0 0-10.607-10.607l-14.641 14.642-.005.005a.012.012 0 0 1-.005.005l-12.196 12.197c-7.659 7.66-17.845 11.879-28.681 11.879h-18.198c-10.835 0-21.021-4.219-28.681-11.88a7.502 7.502 0 0 0-10.607 0l-29.838 29.838c-8.23 8.231-21.624 8.23-29.853.001-8.23-8.231-8.23-21.624 0-29.854z"/><path d="M504.117 365.443h-67.828c.092-.986.142-1.982.142-2.985 0-8.428-3.282-16.352-9.241-22.312l-15.411-15.411a7.5 7.5 0 0 0-10.607 10.607l15.411 15.411c6.454 6.454 6.454 16.955.001 23.409-6.454 6.455-16.957 6.454-23.409 0L350.913 331.9a7.5 7.5 0 0 0-10.607 10.607l48.313 48.314c6.454 6.454 6.454 16.955 0 23.409-6.454 6.456-16.957 6.454-23.409 0l-61.475-61.475a7.5 7.5 0 0 0-10.607 10.607l45.413 45.413c6.435 6.456 6.429 16.941-.018 23.389-6.452 6.455-16.955 6.456-23.409 0l-45.149-45.149a7.5 7.5 0 0 0-10.607 10.607l38.613 38.613a16.441 16.441 0 0 1 4.849 11.704c0 4.422-1.722 8.579-4.849 11.706a16.443 16.443 0 0 1-11.704 4.848 16.441 16.441 0 0 1-11.704-4.849l-12.047-12.047c.194-1.424.3-2.87.3-4.332 0-8.428-3.282-16.352-9.241-22.312-5.96-5.959-13.884-9.241-22.313-9.241-.865 0-1.722.043-2.574.112.068-.853.112-1.71.112-2.575 0-8.429-3.282-16.353-9.241-22.311-5.959-5.96-13.883-9.242-22.312-9.242-.87 0-1.733.043-2.591.113.724-8.916-2.309-18.083-9.114-24.888-5.96-5.959-13.884-9.241-22.313-9.241-.865 0-1.722.043-2.574.112.068-.853.112-1.71.112-2.575 0-8.429-3.282-16.353-9.241-22.313-12.302-12.302-32.32-12.303-44.624 0L82.73 343.077c-9.702 9.702-11.745 24.2-6.144 35.931H7.5c-4.143 0-7.5 3.357-7.5 7.5s3.357 7.5 7.5 7.5h84.223a31.442 31.442 0 0 0 15.891 2.822 32.36 32.36 0 0 0-.112 2.575c0 8.429 3.282 16.353 9.241 22.312 6.152 6.151 14.23 9.227 22.313 9.227.859 0 1.719-.042 2.576-.112-.069.857-.113 1.72-.113 2.59 0 8.428 3.282 16.352 9.241 22.312 5.96 5.959 13.884 9.241 22.312 9.241.87 0 1.733-.043 2.591-.113-.724 8.916 2.309 18.083 9.114 24.888 6.109 6.109 14.201 9.172 22.301 9.171 7.908 0 15.823-2.922 21.898-8.78a7.499 7.499 0 0 0 .192-10.604 7.499 7.499 0 0 0-10.604-.192c-6.451 6.221-16.85 6.13-23.18-.2-6.454-6.455-6.454-16.956 0-23.41l24.172-24.172c6.454-6.455 16.957-6.455 23.409 0 6.454 6.454 6.454 16.955 0 23.409l-1.75 1.75a7.5 7.5 0 0 0 10.607 10.607l1.75-1.75a31.965 31.965 0 0 0 2.667-3.04l7.714 7.714c5.96 5.959 13.884 9.241 22.312 9.241 8.429 0 16.353-3.282 22.312-9.241 5.308-5.309 8.485-12.178 9.117-19.573a31.657 31.657 0 0 0 9.123 1.334c8.429 0 16.353-3.282 22.313-9.241a31.348 31.348 0 0 0 8.458-15.314 31.484 31.484 0 0 0 19.328 6.606c8.08 0 16.16-3.075 22.312-9.227 8.364-8.364 11.034-20.293 8.025-30.941 7.27-.544 14.39-3.581 19.938-9.128a31.891 31.891 0 0 0 3.614-4.327h73.314a7.499 7.499 0 1 0-.002-14.999zM93.335 377.098c-6.454-6.455-6.454-16.957 0-23.41l24.172-24.172a16.498 16.498 0 0 1 11.704-4.841c4.239 0 8.479 1.613 11.705 4.841 6.454 6.454 6.454 16.955 0 23.409l-24.172 24.172c-6.454 6.453-16.955 6.456-23.409.001zm34.016 34.014a16.443 16.443 0 0 1-4.848-11.704c0-4.421 1.722-8.578 4.849-11.704l24.172-24.172a16.498 16.498 0 0 1 11.705-4.841 16.5 16.5 0 0 1 11.704 4.84c6.452 6.453 6.454 16.95.007 23.403l-.007.007-24.172 24.171c-6.454 6.456-16.956 6.454-23.41 0zm57.425 34.018a16.443 16.443 0 0 1-11.704 4.848 16.441 16.441 0 0 1-11.704-4.849 16.441 16.441 0 0 1-4.849-11.704 16.44 16.44 0 0 1 4.849-11.704l24.172-24.172v-.001c3.126-3.126 7.282-4.848 11.704-4.848s8.578 1.722 11.705 4.849a16.443 16.443 0 0 1 4.848 11.704c0 4.421-1.722 8.578-4.849 11.704zM8.234 239.477h95.886a7.502 7.502 0 0 0 4.869-1.795l19.064-16.272a31.106 31.106 0 0 1 20.174-7.438h57.397c4.143 0 7.5-3.357 7.5-7.5s-3.357-7.5-7.5-7.5h-57.397A46.124 46.124 0 0 0 118.316 210l-16.962 14.478H8.234c-4.143 0-7.5 3.357-7.5 7.5s3.358 7.499 7.5 7.499zm214.753-116.544-6.642 20.715a10.652 10.652 0 0 0 3.021 11.158 10.656 10.656 0 0 0 11.419 1.812l23.507-10.422a4.256 4.256 0 0 1 3.44 0l23.509 10.422a10.647 10.647 0 0 0 11.418-1.812 10.65 10.65 0 0 0 3.021-11.158l-.001-.001-6.641-20.714 14.636-17.966c3.225-3.958 3.866-9.281 1.676-13.893-2.191-4.61-6.724-7.475-11.828-7.475h-15.18L267.14 65.55c-2.405-3.875-6.564-6.188-11.126-6.188s-8.721 2.313-11.126 6.188L233.684 83.6h-15.18c-5.104 0-9.637 2.864-11.828 7.475-2.19 4.611-1.549 9.935 1.676 13.893zM234.743 98.6c4.562 0 8.722-2.314 11.126-6.189l10.145-16.342 10.144 16.341a13.015 13.015 0 0 0 11.127 6.19h12.231l-12.758 15.66a13.049 13.049 0 0 0-2.316 12.27l3.985 12.432-14.614-6.479a19.283 19.283 0 0 0-15.599 0l-14.613 6.479 3.985-12.432a13.055 13.055 0 0 0-2.317-12.271L222.512 98.6zm21.271-60.504c4.143 0 7.5-3.357 7.5-7.5V20.193c0-4.143-3.357-7.5-7.5-7.5s-7.5 3.357-7.5 7.5v10.402a7.5 7.5 0 0 0 7.5 7.501zm-64.528 22.749c1.465 1.464 3.385 2.196 5.304 2.196s3.839-.732 5.304-2.196a7.5 7.5 0 0 0 0-10.607l-7.355-7.355a7.5 7.5 0 0 0-10.607 10.607zm123.751 2.196a7.481 7.481 0 0 0 5.304-2.196l7.355-7.355a7.5 7.5 0 0 0-10.607-10.607l-7.355 7.355a7.5 7.5 0 0 0 5.303 12.803z"/></svg>