<svg xmlns="http://www.w3.org/2000/svg" viewBox="0 0 512 512"><path d="M349.38 232.12v39.99c0 4.14-3.35 7.5-7.5 7.5H169.67c-4.14 0-7.5-3.36-7.5-7.5v-39.99c0-4.14 3.36-7.5 7.5-7.5h172.21c4.15 0 7.5 3.36 7.5 7.5z" fill="#cee7f4"/><path d="M349.38 232.12v39.99c0 4.14-3.35 7.5-7.5 7.5h-25.77c4.14 0 7.5-3.36 7.5-7.5v-39.99c0-4.14-3.36-7.5-7.5-7.5h25.77c4.15 0 7.5 3.36 7.5 7.5z" fill="#afd7e8"/><path d="M323.43 508.94a7.512 7.512 0 0 1-6.05 3.06H194.17c-2.39 0-4.63-1.14-6.05-3.06a7.537 7.537 0 0 1-1.11-6.69l20.02-63.75a7.506 7.506 0 0 1 7.16-5.25h83.18c3.27 0 6.17 2.13 7.15 5.25l20.02 63.75c.72 2.28.3 4.76-1.11 6.69z" fill="#cee7f4"/><path d="M323.43 508.94a7.512 7.512 0 0 1-6.05 3.06h-24.57c2.38 0 4.63-1.14 6.04-3.06a7.476 7.476 0 0 0 1.11-6.69l-20.02-63.75a7.503 7.503 0 0 0-7.15-5.25h24.58c3.27 0 6.17 2.13 7.15 5.25l20.02 63.75c.72 2.28.3 4.76-1.11 6.69z" fill="#afd7e8"/><path d="M402.91 37.49v194.63c0 2.76-2.24 5-5 5H113.64c-2.76 0-5-2.24-5-5V37.49c0-2.76 2.24-5 5-5h284.27c2.76 0 5 2.24 5 5z" fill="#e9f6ff"/><path d="M402.91 37.49v194.63c0 2.76-2.24 5-5 5h-25c2.76 0 5-2.24 5-5V37.49c0-2.76-2.24-5-5-5h25c2.76 0 5 2.24 5 5z" fill="#cee7f4"/><path d="M420.42 22.49c0 12.41-10.1 22.5-22.51 22.5H113.64c-12.41 0-22.51-10.09-22.51-22.5 0-12.4 10.1-22.49 22.51-22.49h284.27c12.41 0 22.51 10.09 22.51 22.49z" fill="#cee7f4"/><path d="M420.42 22.49c0 12.41-10.1 22.5-22.51 22.5H368.4c12.41 0 22.51-10.09 22.51-22.5 0-12.4-10.1-22.49-22.51-22.49h29.51c12.41 0 22.51 10.09 22.51 22.49z" fill="#afd7e8"/><path d="M402.91 302.09v48.86c0 52.27-42.58 94.8-94.91 94.8H203.56c-52.34 0-94.92-42.53-94.92-94.8v-48.86c0-2.76 2.24-5 5-5h284.27c2.76 0 5 2.24 5 5z" fill="#e9f6ff"/><path d="M402.91 302.09v48.86c0 52.27-42.58 94.8-94.91 94.8h-25.78c52.33 0 94.91-42.53 94.91-94.8v-48.86c0-2.76-2.24-5-5-5h25.78c2.76 0 5 2.24 5 5z" fill="#cee7f4"/><path d="M196.631 84.354c-4.736-2.785-28.852-16.678-38.563-16.678-11.585 0-21.01 9.416-21.01 20.988 0 11.573 9.425 20.989 21.01 20.989 9.711 0 33.827-13.894 38.563-16.679a5 5 0 0 0 0-8.62zM420.42 288.52v13.57c0 4.15-3.35 7.5-7.5 7.5H98.63c-4.14 0-7.5-3.35-7.5-7.5v-13.57c0-13.19 10.74-23.91 23.94-23.91h281.41c13.2 0 23.94 10.72 23.94 23.91z" fill="#5e7d84"/><path d="M420.42 288.52v13.57c0 4.15-3.35 7.5-7.5 7.5h-30c4.15 0 7.5-3.35 7.5-7.5v-13.57c0-13.19-10.74-23.91-23.94-23.91h30c13.2 0 23.94 10.72 23.94 23.91z" fill="#3b5b60"/><path d="M80.104 235.577c-15.881 0-28.802-12.899-28.802-28.754a7.5 7.5 0 0 0-15 0c0 15.855-12.92 28.754-28.802 28.754a7.5 7.5 0 0 0 0 15c15.881 0 28.802 12.899 28.802 28.754a7.5 7.5 0 0 0 15 0c0-15.855 12.92-28.754 28.802-28.754a7.5 7.5 0 0 0 0-15z" fill="#83ffe7"/><path d="M48.24 165.962h2.863v2.849a7.5 7.5 0 0 0 15 0v-2.849h2.863a7.5 7.5 0 0 0 0-15h-2.863v-2.849a7.5 7.5 0 0 0-15 0v2.849H48.24a7.5 7.5 0 0 0 0 15zm-12.305 167.93h-2.863v-2.849a7.5 7.5 0 0 0-15 0v2.849h-2.863a7.5 7.5 0 0 0 0 15h2.863v2.849a7.5 7.5 0 0 0 15 0v-2.849h2.863a7.5 7.5 0 0 0 0-15z" fill="#70e8fc"/><path d="M431.896 186.511c15.881 0 28.802-12.899 28.802-28.754a7.5 7.5 0 0 1 15 0c0 15.855 12.92 28.754 28.802 28.754a7.5 7.5 0 0 1 0 15c-15.881 0-28.802 12.899-28.802 28.754a7.5 7.5 0 0 1-15 0c0-15.855-12.92-28.754-28.802-28.754a7.5 7.5 0 0 1 0-15z" fill="#83ffe7"/><path d="M463.76 116.897h-2.863v2.849a7.5 7.5 0 0 1-15 0v-2.849h-2.863a7.5 7.5 0 0 1 0-15h2.863v-2.849a7.5 7.5 0 0 1 15 0v2.849h2.863a7.5 7.5 0 0 1 0 15zm12.305 167.929h2.863v-2.849a7.5 7.5 0 0 1 15 0v2.849h2.863a7.5 7.5 0 0 1 0 15h-2.863v2.849a7.5 7.5 0 0 1-15 0v-2.849h-2.863a7.5 7.5 0 0 1 0-15z" fill="#70e8fc"/></svg>