<svg xmlns="http://www.w3.org/2000/svg" viewBox="0 0 512 512"><path d="M397.905 183.017c4.146 0 7.507-3.357 7.507-7.497V43.698c8.738-3.094 15.014-11.432 15.014-21.207C420.426 10.089 410.323 0 397.905 0H191.05c-4.146 0-7.507 3.357-7.507 7.497s3.361 7.497 7.507 7.497h206.856c4.139 0 7.507 3.363 7.507 7.497s-3.367 7.497-7.507 7.497H113.648c-4.139 0-7.507-3.363-7.507-7.497s3.367-7.497 7.507-7.497h42.481c4.146 0 7.507-3.357 7.507-7.497S160.275 0 156.129 0h-42.481c-12.418 0-22.52 10.089-22.52 22.492 0 9.775 6.275 18.112 15.014 21.207v188.422c0 4.141 3.361 7.497 7.507 7.497h48.517v24.991h-47.092c-13.204 0-23.946 10.728-23.946 23.915v13.571c0 4.141 3.361 7.497 7.507 7.497h7.507v41.362c0 53.647 43.702 97.293 97.418 97.293h.409l-16.96 54.012a7.49 7.49 0 0 0 1.112 6.681 7.507 7.507 0 0 0 6.05 3.059h123.212c2.389 0 4.636-1.136 6.05-3.059s1.827-4.404 1.112-6.681l-16.96-54.012h.409c53.716 0 97.418-43.646 97.418-97.293v-41.362h7.507c4.146 0 7.507-3.357 7.507-7.497v-13.571c0-13.187-10.742-23.915-23.945-23.915h-47.092v-24.991h48.517c4.146 0 7.507-3.357 7.507-7.497v-22.032c0-4.141-3.361-7.497-7.507-7.497s-7.507 3.357-7.507 7.497v14.535H121.155V44.983h269.244V175.52c0 4.14 3.361 7.497 7.506 7.497zm-90.743 313.989h-102.77l15.31-48.758h72.15zm98.25-208.483v6.074h-217.39c-4.146 0-7.507 3.357-7.507 7.497 0 4.141 3.361 7.497 7.507 7.497h202.377v41.362c0 45.38-36.967 82.299-82.404 82.299H203.559c-45.438 0-82.404-36.919-82.404-82.299v-41.362h32.512c4.146 0 7.507-3.357 7.507-7.497 0-4.141-3.361-7.497-7.507-7.497h-47.525v-6.074c0-4.919 4.007-8.921 8.932-8.921H396.48c4.925.001 8.932 4.003 8.932 8.921zm-71.037-48.905v24.991H177.179v-24.991z"/><path d="M160.07 61.176c-12.967 0-23.516 10.536-23.516 23.486s10.549 23.486 23.516 23.486c10.102 0 33.046-13.032 39.836-17.025 2.291-1.348 3.698-3.805 3.698-6.46s-1.407-5.113-3.698-6.46c-6.79-3.995-29.733-17.027-39.836-17.027zm0 31.978c-4.688 0-8.502-3.809-8.502-8.491s3.814-8.491 8.502-8.491c2.604.016 11.007 3.573 20.512 8.492-9.503 4.918-17.904 8.474-20.512 8.49zM504.493 186.598c-15.877 0-28.794-12.9-28.794-28.757 0-4.141-3.361-7.497-7.507-7.497s-7.507 3.357-7.507 7.497c0 15.857-12.917 28.757-28.794 28.757-4.146 0-7.507 3.357-7.507 7.497 0 4.141 3.361 7.497 7.507 7.497 15.877 0 28.794 12.9 28.794 28.757 0 4.141 3.361 7.497 7.507 7.497s7.507-3.357 7.507-7.497c0-15.857 12.917-28.757 28.794-28.757 4.146 0 7.507-3.357 7.507-7.497 0-4.141-3.361-7.497-7.507-7.497zm-36.301 19.285a44.123 44.123 0 0 0-11.803-11.788 44.123 44.123 0 0 0 11.803-11.788 44.123 44.123 0 0 0 11.803 11.788 44.123 44.123 0 0 0-11.803 11.788zM443.029 116.977h2.856v2.852c0 4.141 3.361 7.497 7.507 7.497s7.507-3.357 7.507-7.497v-2.852h2.856c4.146 0 7.507-3.357 7.507-7.497 0-4.141-3.361-7.497-7.507-7.497h-2.856V99.13c0-4.141-3.361-7.497-7.507-7.497s-7.507 3.357-7.507 7.497v2.852h-2.856c-4.146 0-7.507 3.357-7.507 7.497a7.503 7.503 0 0 0 7.507 7.498zM496.785 284.914h-2.856v-2.852c0-4.141-3.361-7.497-7.507-7.497s-7.507 3.357-7.507 7.497v2.852h-2.856c-4.146 0-7.507 3.357-7.507 7.497s3.361 7.497 7.507 7.497h2.856v2.852c0 4.141 3.361 7.497 7.507 7.497s7.507-3.357 7.507-7.497v-2.852h2.856c4.146 0 7.507-3.357 7.507-7.497s-3.362-7.497-7.507-7.497zM80.109 235.579c-15.877 0-28.794-12.9-28.794-28.757 0-4.141-3.361-7.497-7.507-7.497s-7.507 3.357-7.507 7.497c0 15.857-12.917 28.757-28.794 28.757-4.146 0-7.507 3.357-7.507 7.497 0 4.141 3.361 7.497 7.507 7.497 15.877 0 28.794 12.9 28.794 28.757 0 4.141 3.361 7.497 7.507 7.497s7.507-3.357 7.507-7.497c0-15.857 12.917-28.757 28.794-28.757 4.146 0 7.507-3.357 7.507-7.497s-3.361-7.497-7.507-7.497zm-36.301 19.285a44.123 44.123 0 0 0-11.803-11.788 44.123 44.123 0 0 0 11.803-11.788 44.123 44.123 0 0 0 11.803 11.788 44.123 44.123 0 0 0-11.803 11.788zM48.245 165.958h2.856v2.852c0 4.141 3.361 7.497 7.507 7.497s7.507-3.357 7.507-7.497v-2.852h2.856c4.146 0 7.507-3.357 7.507-7.497 0-4.141-3.361-7.497-7.507-7.497h-2.856v-2.852c0-4.141-3.361-7.497-7.507-7.497s-7.507 3.357-7.507 7.497v2.852h-2.856c-4.146 0-7.507 3.357-7.507 7.497.001 4.141 3.362 7.497 7.507 7.497zM35.941 333.896h-2.856v-2.852c0-4.141-3.361-7.497-7.507-7.497s-7.507 3.357-7.507 7.497v2.852h-2.856c-4.146 0-7.507 3.357-7.507 7.497s3.361 7.497 7.507 7.497h2.856v2.852c0 4.141 3.361 7.497 7.507 7.497s7.507-3.357 7.507-7.497v-2.852h2.856c4.146 0 7.507-3.357 7.507-7.497s-3.361-7.497-7.507-7.497z"/></svg>