<svg id="Outline" viewBox="0 0 512 512"  xmlns="http://www.w3.org/2000/svg"><path d="m293.47 455.589a7.992 7.992 0 0 0 10.12-5.059l14.21-42.642c52.072-1.524 93.3-18.27 122.6-49.83 52.365-56.4 47.514-139.1 47.281-142.589a8 8 0 0 0 -8.729-7.434c-84.9 7.96-141.384 34.558-167.892 79.055-28.581 47.98-12.334 100.225-7.571 113.122l-15.079 45.258a8 8 0 0 0 5.06 10.119zm135.13-108.332c-25 26.886-60.129 41.767-104.506 44.343 12.235-27.533 30.6-53.037 49.843-74.934l63.784 19.626a132.734 132.734 0 0 1 -9.121 10.965zm-30.924-77.681-3.369-27.343a288.04 288.04 0 0 1 53.445-14c-11.951 8.831-26.821 20.515-42.667 34.622q-3.77 3.358-7.406 6.721zm17.832 5.424a590.137 590.137 0 0 1 56.169-44.173c-.831 20.03-5.191 57.774-24.768 91.548l-61.022-18.775c10.191-10.7 20.321-20.311 29.621-28.6zm-36.518-26.253 4.264 34.607a435.688 435.688 0 0 0 -36.175 40.414l-14.379-39.825q16.908-21.13 46.29-35.196zm-57.209 52.069 13.861 38.384a283.65 283.65 0 0 0 -22.157 37.247c-3.832-18.83-5.809-47.97 8.296-75.631z"/><path d="m366.067 167.463c31.711-68.643 2.618-143.283 1.364-146.427a8 8 0 0 0 -10.63-4.369c-79.007 34.473-124.735 77.533-135.912 127.986-11.727 52.931 18.748 95.726 27.111 106.227v53.12a8 8 0 0 0 16 0v-50.327c49.581-17.921 83.907-46.902 102.067-86.21zm-63.245-77.4q-2.171 3.591-4.226 7.118l-11.55-21.853a293.352 293.352 0 0 1 45.09-29.051c-8.587 11.648-18.874 26.528-29.314 43.789zm13.533 8.541a562.314 562.314 0 0 1 40.5-58.25c5.085 18.363 11.981 53.247 4.621 89.661l-64.721 4.311c6.468-13.111 13.225-25.164 19.6-35.719zm-41.739-12.549 14.684 27.774a420.852 420.852 0 0 0 -22.519 49.155l-24.622-32.348q9.982-23.481 32.457-44.581zm-38.345 63.268 24.2 31.795a280.676 280.676 0 0 0 -10.323 44.043c-9.538-16.983-20.348-44.676-13.877-75.838zm28.6 86.916c3.039-29.651 12.593-59.08 24.161-85.36l68.165-4.541a133.53 133.53 0 0 1 -5.657 14.415c-15.527 33.615-44.659 58.964-86.667 75.486z"/><path d="m241.9 496a8 8 0 0 0 7.413-11l-24.552-60.689c6.837-14.648 30.2-72.659 1.616-129.108-27.132-53.582-92.137-88.276-193.21-103.118a8 8 0 0 0 -9.08 6.773c-.144.994-3.47 24.708-.011 56.971 3.209 29.94 13.158 73.143 42.323 108.934 32.264 39.594 80.719 62.073 144.064 66.87l24.013 59.367a8 8 0 0 0 7.424 5zm-25.529-94.45a326.892 326.892 0 0 0 -21.1-42.276l17.863-54.757c17.596 36.716 10.336 74.993 3.232 97.035zm-14.171-115.14-18 55.185a474.519 474.519 0 0 0 -40.221-52.074l.015-49.4q38.006 18.85 58.206 46.289zm-87.636-27.776a670.388 670.388 0 0 0 -50.826-44.9q36.133 7.566 64.262 19.152l-.011 39.293q-6.444-6.708-13.421-13.545zm-75.734-43.873a647.29 647.29 0 0 1 64.547 55.308 549.621 549.621 0 0 1 45.272 49.931h-91.209c-18.604-40.729-19.579-83.879-18.61-105.239zm40.042 139.988a153.712 153.712 0 0 1 -13.072-18.749h95.036c17.34 23.85 33.081 50.58 43.63 79.046-55.209-5.538-97.426-25.787-125.594-60.297z"/></svg>