<?xml version="1.0"?>
<svg xmlns="http://www.w3.org/2000/svg" id="Outline" viewBox="0 0 512 512"><path d="M496,384a7.966,7.966,0,0,0-.895-3.667l0,0L371.576,140.986A23.923,23.923,0,0,0,350.25,128H340.092L301.115,74.008a24,24,0,0,0-40.543,2.06L187.506,205.555l-14.52-25.471a24,24,0,0,0-41.971,0L17.05,380.039l0,0A7.953,7.953,0,0,0,16,384V488a8,8,0,0,0,8,8H488a8,8,0,0,0,8-8Zm-92.184,24L424,357.541,444.184,408Zm27.612-74.971a8,8,0,0,0-14.856,0L399.384,376H231.016l-23.588-58.971a8,8,0,0,0-14.856,0L168.984,376H112.616l-1.21-3.025,94.609-167.663,19.839,23.809a8,8,0,0,0,11.267,1.025l42.807-35.671,50.866,43.6a8,8,0,0,0,11.227-.806l38.52-44.026L474.868,376H448.616ZM344,418.643c-.092,5.356-3.352,10.192-9.971,14.785-25.775,17.885-34.08,36.354-36.756,46.572H241.963c2.971-7.849,10.434-20.416,29.185-33.428,7.574-5.254,16.644-14.327,16.848-27.71.157-10.273-4.921-19.639-10.588-26.862h49.746C333.273,397.12,344.173,408.392,344,418.643ZM179.816,392,200,341.541,220.184,392Zm-112,16L88,357.541,108.184,408Zm27.612-74.971a8,8,0,0,0-14.856,0L63.384,376H37.767l63.5-111.416,13.074,13.073a8,8,0,0,0,11.314,0l25.477-25.476,5.741,7.657-53.09,94.085ZM274.517,83.915a8,8,0,0,1,13.528-.678c.022.033.045.064.068.1l41.4,57.35A8,8,0,0,0,336,144h14.25a7.975,7.975,0,0,1,7.11,4.329l15.294,29.631-37.461,42.812-49.987-42.846a8,8,0,0,0-10.327-.072l-41.855,34.878-18.6-22.322ZM144.94,187.962l.056-.1a8,8,0,0,1,14.008,0l.056.1,19.284,33.829L165.462,244.62,158.4,235.2a8,8,0,0,0-12.057-.858L120,260.687,109.484,250.17ZM32,392H56.984l-8.412,21.029A8,8,0,0,0,56,424H80v24a8,8,0,0,0,16,0V424h24a8,8,0,0,0,7.428-10.971L119.016,392h43.568l-2.012,5.029A8,8,0,0,0,168,408h24v24a8,8,0,0,0,16,0V408h24a8,8,0,0,0,7.428-10.971L237.416,392h17.738c6.119,5.12,17.019,16.392,16.844,26.643-.092,5.356-3.352,10.192-9.971,14.785-25.775,17.885-34.08,36.354-36.756,46.572H32Zm448,88H313.963c2.971-7.849,10.434-20.416,29.185-33.428,7.574-5.254,16.644-14.327,16.848-27.71.157-10.273-4.921-19.639-10.588-26.862h43.576l-8.412,21.029A8,8,0,0,0,392,424h24v24a8,8,0,0,0,16,0V424h24a8,8,0,0,0,7.428-10.971L455.016,392H480Z"/><path d="M448,16a48,48,0,1,0,48,48A48.053,48.053,0,0,0,448,16Zm0,80a32,32,0,1,1,32-32A32.036,32.036,0,0,1,448,96Z"/><path d="M87.965,115.744a47.995,47.995,0,0,0,64.07,0A32,32,0,1,0,168,56a32.187,32.187,0,0,0-6.1.577,48.007,48.007,0,0,0-83.8,0A32,32,0,1,0,72,120,31.813,31.813,0,0,0,87.965,115.744ZM56,88A16.019,16.019,0,0,1,72,72a15.845,15.845,0,0,1,6.922,1.569,8,8,0,0,0,10.987-4.481,32.013,32.013,0,0,1,60.182,0,8,8,0,0,0,10.987,4.481A15.845,15.845,0,0,1,168,72a16,16,0,1,1-11.233,27.389,8,8,0,0,0-11.846.673,31.981,31.981,0,0,1-49.842,0A8,8,0,0,0,89.306,97.1c-.152-.009-.3-.013-.454-.013a8,8,0,0,0-5.619,2.3A16,16,0,0,1,56,88Z"/></svg>
