<svg id="Outline" enable-background="new 0 0 512 512" viewBox="0 0 512 512" xmlns="http://www.w3.org/2000/svg"><path d="m472 304c10.1-7.6 16-19.4 16-32v-176c0-17.7-14.3-32-32-32h-1c-17.1 0-31.3 13.5-32 30.6l-6.2 142.9c-12.8-12.1-32-14.5-47.3-5.9l-77.7-44.4c-8.5-4.9-18-7.9-27.7-9v-66.2h48c39.7 0 72-32.3 72-72v-16c0-4.4-3.6-8-8-8h-56c-39.7 0-72 32.3-72 72v2.8c-13.6-17-34.2-26.8-56-26.8h-56c-4.4 0-8 3.6-8 8v16c0 39.7 32.3 72 72 72h48v18.2c-9.8 1.1-19.2 4.1-27.7 9l-77.7 44.4c-15.4-8.6-34.6-6.3-47.3 5.9l-6.4-142.9c-.7-17.1-14.8-30.6-32-30.6h-1c-17.7 0-32 14.3-32 32v176c0 12.6 5.9 24.4 16 32l112 84v45.4c-9.6 3.4-16 12.5-16 22.6v32c0 4.4 3.6 8 8 8h224c4.4 0 8-3.6 8-8v-32c0-10.2-6.4-19.2-16-22.6v-45.4zm-65.8-54.5 6.1 6.1-57.6 50.4c-3.3 2.9-3.7 8-.8 11.3s8 3.7 11.3.8l64-56c1.6-1.4 2.6-3.5 2.7-5.7l7-161c.4-8.6 7.4-15.3 16-15.3h1c8.8 0 16 7.2 16 16v176c0 7.6-3.6 14.7-9.6 19.2l-115.2 86.4c-2 1.5-3.2 3.9-3.2 6.4v48h-80v-88.2c0-7.5 3.5-14.5 9.4-19.1l101.2-77.4c9.7-7.3 23.1-6.4 31.7 2.1zm-86.2-217.5h48v8c0 30.9-25.1 56-56 56h-31l35.7-25.5c3.6-2.6 4.4-7.6 1.9-11.2-2.6-3.6-7.6-4.4-11.2-1.9l-43.4 31v-.4c0-30.9 25.1-56 56-56zm-176 56v-8h48c30.9 0 56 25.1 56 56v.5l-43.4-31c-3.6-2.6-8.6-1.7-11.2 1.9s-1.7 8.6 1.9 11.2l35.7 25.4h-31c-30.9 0-56-25.1-56-56zm84.2 113.1c17.2-9.8 38.3-9.8 55.6 0l71.5 40.9-91.6 70c-2.9 2.2-5.5 4.9-7.7 7.8-2.2-3-4.8-5.6-7.7-7.8l-91.6-70zm-178.6 90.1c-6-4.5-9.6-11.6-9.6-19.2v-176c0-8.8 7.2-16 16-16h1c8.6 0 15.6 6.7 16 15.3l7 161c.1 2.2 1.1 4.2 2.7 5.7l64 56c3.3 2.9 8.4 2.6 11.3-.8 2.9-3.3 2.6-8.4-.8-11.3l-57.6-50.4 6.1-6.1c8.5-8.5 22-9.4 31.6-2.1l101.2 77.4c5.9 4.6 9.4 11.6 9.4 19.1v88.2h-80v-48c0-2.5-1.2-4.9-3.2-6.4zm102.4 164.8c0-4.4 3.6-8 8-8h88v32h-96zm208 24h-96v-32h88c4.4 0 8 3.6 8 8z"/></svg>