<?xml version="1.0"?>
<svg xmlns="http://www.w3.org/2000/svg" id="Outline" viewBox="0 0 512 512"><path d="M488,312V144a32.036,32.036,0,0,0-32-32h-1.02a31.93,31.93,0,0,0-19.6,6.677c-2.3-3.9-4.712-7.75-7.246-11.477a208.045,208.045,0,0,0-344.267,0q-3.808,5.6-7.257,11.476A31.9,31.9,0,0,0,57.02,112H56a32.036,32.036,0,0,0-32,32V312a40.175,40.175,0,0,0,16,32l104.081,78.061A23.943,23.943,0,0,0,136,440v48a8,8,0,0,0,8,8H368a8,8,0,0,0,8-8V440a23.943,23.943,0,0,0-8.081-17.939L472,344A40.178,40.178,0,0,0,488,312ZM414.9,116.2a192.682,192.682,0,0,1,10.064,16.538l.056-.03a31.974,31.974,0,0,0-2.011,9.855l-2.572,51.175L416.8,277.5a39.751,39.751,0,0,0-17.979-9.837c1.058-24.015-9.093-31.7-22.667-41.966-12.417-9.391-29.421-22.254-48.951-55.727-14.316-24.539-17.409-48.9-9.194-72.4,6.348-18.161,18.381-32.829,28.626-42.832A192.284,192.284,0,0,1,414.9,116.2ZM278.683,60.232c.444,5.17-1.817,10.159-6.911,15.254-22.158,22.158-18.014,37-14.989,47.836,2.414,8.646,3.744,13.408-6.44,23.593-.911.911-2.363,1.94-5.5,1.785-17.341-.84-54.1-32.635-96.776-83.478A191.831,191.831,0,0,1,256,32c.191,0,.381.008.572.009C270.132,41.956,277.967,51.925,278.683,60.232ZM135.2,74.779c11.045,13.158,28.517,33.135,46.7,50.6,26.773,25.716,47.108,38.572,62.166,39.3.457.022.909.033,1.359.033a22.355,22.355,0,0,0,16.227-6.487c16.8-16.8,13.325-29.223,10.537-39.209-2.6-9.315-4.655-16.672,10.892-32.219,8.518-8.518,12.4-17.919,11.537-27.939-.718-8.348-4.779-16.709-12.071-25a191.673,191.673,0,0,1,48.834,13.562C320.828,58.507,309.4,73.706,302.9,92.292c-9.831,28.124-6.305,56.97,10.478,85.74,21.144,36.239,40.386,50.794,53.119,60.425,12.2,9.226,17.215,13.036,16.372,28.52a39.765,39.765,0,0,0-17.99,7.688L325.3,304.933c-11.557-26.234-36.888-39.616-55.994-49.7-6.443-3.4-12.007-6.336-15.644-9.064-8.533-6.4-13.651-17.377-19.577-30.086-11.7-25.092-26.261-56.319-75.785-71.177-23.1-6.927-46.21-5-68.869,5.689l-.437-7.985a32.1,32.1,0,0,0-1.986-9.81,192.058,192.058,0,0,1,48.2-58.022ZM256,359.86a39.714,39.714,0,0,0-7.7-7.825L147.116,274.663A40.145,40.145,0,0,0,95.2,277.5L90.7,173.763l-.312-5.7c20.938-11.522,42.217-14.159,63.315-7.832,42.652,12.8,54.992,39.263,65.881,62.614,6.55,14.049,12.738,27.318,24.478,36.124,4.65,3.488,10.733,6.7,17.777,10.415,18.764,9.9,41.824,22.073,50.268,45.636L263.7,352.037A39.694,39.694,0,0,0,256,359.86ZM40,312V144a16.019,16.019,0,0,1,16-16h1.02a15.994,15.994,0,0,1,15.992,15.4l1.7,31.15,5.29,121.8a7.982,7.982,0,0,0,2.738,5.659l-.013.015,64,56a8,8,0,0,0,10.536-12.042L99.7,295.61l6.144-6.143a24.087,24.087,0,0,1,31.553-2.092l101.179,77.369A24.151,24.151,0,0,1,248,383.81V416H162.666L49.6,331.2A24.1,24.1,0,0,1,40,312ZM152,440a8.009,8.009,0,0,1,8-8h88v48H152Zm208,40H264V432h88a8.009,8.009,0,0,1,8,8ZM472,312a24.1,24.1,0,0,1-9.6,19.2L349.334,416H264V383.81a24.15,24.15,0,0,1,9.42-19.065L374.6,287.377a24.087,24.087,0,0,1,31.555,2.09l6.145,6.144-57.565,50.368a8,8,0,0,0,10.536,12.042l64-56-.013-.015a7.978,7.978,0,0,0,2.737-5.659l4.428-101.865,2.572-51.174A15.973,15.973,0,0,1,454.98,128H456a16.019,16.019,0,0,1,16,16Z"/></svg>
