<svg width="60" height="48" viewBox="0 0 60 48" fill="none" xmlns="http://www.w3.org/2000/svg">
<path d="M13.5201 47.5584C13.5333 47.5674 13.5509 47.5629 13.564 47.5718C13.6677 47.6305 13.7836 47.6632 13.9021 47.6672C13.9674 47.667 14.0323 47.658 14.0953 47.6404L30.0004 43.2224L45.9055 47.6404C45.9684 47.658 46.0334 47.667 46.0987 47.6672C46.217 47.6635 46.3326 47.6303 46.4353 47.5704C46.4499 47.5629 46.466 47.5659 46.4792 47.5569L59.6505 39.3645C59.7865 39.2795 59.8916 39.1516 59.9497 39.0002C60.0078 38.8488 60.0158 38.6823 59.9724 38.5259L52.6785 12.4591C52.6486 12.3505 52.5949 12.2503 52.5214 12.166C52.4478 12.0817 52.3564 12.0155 52.2541 11.9724C52.1517 11.9294 52.0411 11.9106 51.9305 11.9175C51.82 11.9244 51.7124 11.9568 51.616 12.0122L44.3542 16.1591C44.1952 16.2613 44.0808 16.4218 44.0347 16.6074C43.9887 16.793 44.0144 16.9895 44.1067 17.1563C44.199 17.3231 44.3507 17.4474 44.5305 17.5036C44.7103 17.5597 44.9044 17.5434 45.0728 17.458L51.5252 13.7714L58.4138 38.3874L46.684 45.6846L43.8976 22.9975C43.8735 22.8014 43.7739 22.623 43.6206 22.5017C43.4673 22.3803 43.2729 22.3259 43.0802 22.3503C42.8875 22.3748 42.7123 22.4762 42.593 22.6323C42.4738 22.7883 42.4203 22.9861 42.4443 23.1822L45.2352 45.911L30.7321 41.8818V37.8154C30.7321 37.6179 30.655 37.4284 30.5178 37.2888C30.3806 37.1491 30.1944 37.0706 30.0004 37.0706C29.8063 37.0706 29.6202 37.1491 29.483 37.2888C29.3457 37.4284 29.2686 37.6179 29.2686 37.8154V41.8818L14.7641 45.911L17.5549 23.1822C17.5669 23.0851 17.5599 22.9866 17.5344 22.8922C17.5088 22.7978 17.4653 22.7095 17.4063 22.6323C17.3472 22.555 17.2738 22.4904 17.1902 22.442C17.1066 22.3936 17.0145 22.3625 16.9191 22.3503C16.8236 22.3382 16.7268 22.3453 16.6341 22.3713C16.5414 22.3973 16.4546 22.4416 16.3787 22.5017C16.3028 22.5618 16.2393 22.6365 16.1917 22.7216C16.1442 22.8066 16.1136 22.9004 16.1017 22.9975L13.3167 45.6846L1.58691 38.3889L8.47551 13.7744L14.928 17.461C15.0963 17.5464 15.2904 17.5627 15.4702 17.5065C15.65 17.4504 15.8018 17.326 15.894 17.1593C15.9863 16.9925 16.0121 16.7959 15.966 16.6103C15.92 16.4248 15.8056 16.2643 15.6466 16.1621L8.38331 12.0137C8.28711 11.9577 8.17957 11.9248 8.06893 11.9176C7.9583 11.9104 7.84752 11.9291 7.74508 11.9722C7.64265 12.0154 7.55128 12.0818 7.47799 12.1665C7.40471 12.2511 7.35144 12.3517 7.32229 12.4606L0.0283063 38.5274C-0.0158095 38.6838 -0.00819153 38.8506 0.0499868 39.0021C0.108165 39.1536 0.213677 39.2815 0.350272 39.366L13.5201 47.5584Z" fill="black"/>
<path d="M29.5045 34.8072C29.6388 34.9335 29.8147 35.0039 29.9976 35.0047C30.1804 35.0056 30.3569 34.9367 30.4923 34.8117C30.9797 34.3604 42.4402 23.6567 42.4402 12.661C42.4402 5.5604 36.977 0 30.0006 0C23.0242 0 17.561 5.5604 17.561 12.661C17.561 23.466 29.0171 34.3485 29.5045 34.8072ZM30.0006 1.48953C36.257 1.48953 40.9767 6.29176 40.9767 12.661C40.9767 21.7426 32.2061 31.0373 30.005 33.2269C27.8083 31.0119 19.0245 21.5951 19.0245 12.661C19.0245 6.29176 23.7442 1.48953 30.0006 1.48953Z" fill="black"/>
<path d="M36.5853 12.6617C36.5853 8.96616 33.6305 5.9588 29.9996 5.9588C26.3688 5.9588 23.414 8.96616 23.414 12.6617C23.414 16.3572 26.3688 19.3645 29.9996 19.3645C33.6305 19.3645 36.5853 16.3572 36.5853 12.6617ZM29.9996 17.875C27.1751 17.875 24.8775 15.5365 24.8775 12.6617C24.8775 9.78689 27.1751 7.44833 29.9996 7.44833C32.8242 7.44833 35.1218 9.78689 35.1218 12.6617C35.1218 15.5365 32.8242 17.875 29.9996 17.875Z" fill="black"/>
</svg>
