<svg width="48" height="48" viewBox="0 0 48 48" fill="#none" xmlns="http://www.w3.org/2000/svg">
<path d="M41.8594 32.1065H41.1028C41.7202 31.3016 42.0885 30.296 42.0885 29.2056V27.8826C42.0885 25.249 39.9459 23.1066 37.3126 23.1066C34.6792 23.1066 32.5367 25.2491 32.5367 27.8826V29.2056C32.5367 30.2961 32.9048 31.3016 33.5224 32.1065H32.7658C32.4983 32.1065 32.2351 32.1256 31.9764 32.159L27.7542 27.9367C26.9608 27.1433 25.9765 26.6552 24.9479 26.47C24.9483 26.459 24.9496 26.4481 24.9496 26.4369V24.7258L27.1852 22.4902C27.3987 22.5032 27.6764 22.5143 28.0029 22.5143C29.7444 22.5143 32.8638 22.1991 34.9276 20.1733C37.7005 17.452 37.3308 12.7104 37.2547 11.9771C37.2418 11.7557 37.1508 11.5379 36.9816 11.3688C36.8149 11.202 36.6008 11.1112 36.3826 11.0965C35.9609 11.0598 31.1661 10.7136 28.3342 13.4913C25.9073 15.873 25.816 19.7493 25.8722 21.1514L24.9495 22.0741V15.3899C26.007 14.4534 28.9118 11.5582 28.9452 7.98516C28.9832 3.94106 25.2128 0.718406 24.6206 0.237375C24.4549 0.0897187 24.2362 0 23.9968 0C23.7607 0 23.545 0.087375 23.3802 0.231469C23.0414 0.516187 19.2552 3.79022 19.2154 7.92047C19.1817 11.5141 22.0221 14.4431 23.0745 15.4018V22.0979L21.9299 20.9533C21.9844 19.569 21.8895 15.7792 19.5128 13.4465C16.7556 10.7419 12.1116 11.0542 11.6302 11.0948C11.4172 11.1063 11.2073 11.19 11.04 11.3466C10.8594 11.5155 10.7604 11.7395 10.7452 11.9689C10.673 12.6563 10.2961 17.3359 13.0289 20.0179C15.0551 22.0066 18.1162 22.316 19.8245 22.316C20.14 22.316 20.4093 22.3054 20.6175 22.2929L23.0744 24.7498V26.4372C23.0744 26.4471 23.0756 26.4565 23.0759 26.4663C22.0387 26.6482 21.0455 27.1374 20.246 27.9369L16.0238 32.1592C15.7651 32.1259 15.502 32.1068 15.2344 32.1068H14.4778C15.0952 31.3019 15.4635 30.2962 15.4635 29.2058V27.8828C15.4635 25.2493 13.3209 23.1068 10.6876 23.1068C8.05425 23.1068 5.91169 25.2494 5.91169 27.8828V29.2058C5.91169 30.2963 6.27984 31.3019 6.89738 32.1068H6.14062C2.75466 32.1068 0 34.8614 0 38.2474V47.0621C0 47.5798 0.419813 47.9996 0.9375 47.9996H20.4375C20.9552 47.9996 21.375 47.5798 21.375 47.0621V38.2474C21.375 35.8737 20.0204 33.8119 18.0444 32.7903L21.5718 29.2628C22.9107 27.924 25.0894 27.9241 26.4281 29.2628L29.9555 32.7903C27.9796 33.8116 26.625 35.8734 26.625 38.2471V47.0618C26.625 47.5795 27.0448 47.9993 27.5625 47.9993H47.0625C47.5802 47.9993 48 47.5795 48 47.0618V38.2471C48 34.861 45.2453 32.1065 41.8594 32.1065ZM29.6473 14.8296C31.3305 13.1785 34.0808 12.9459 35.4333 12.9399C35.4651 14.327 35.3028 17.1778 33.6141 18.8351C32.3727 20.0534 30.5227 20.4667 29.0856 20.5897L30.6973 18.9779C31.0634 18.6118 31.0634 18.0182 30.6973 17.652C30.3311 17.286 29.7377 17.286 29.3714 17.652L27.8102 19.2132C27.9687 17.8069 28.4246 16.0294 29.6473 14.8296ZM18.8317 17.8551C18.4656 17.4891 17.8721 17.4891 17.5058 17.8551C17.1397 18.2212 17.1397 18.8148 17.5058 19.181L18.7175 20.3926C17.3226 20.269 15.546 19.8608 14.3422 18.6794C12.7011 17.0689 12.5369 14.3012 12.5662 12.9393C13.8906 12.9467 16.5613 13.1778 18.1994 14.7846C19.3766 15.9398 19.8256 17.6446 19.9862 19.0095L18.8317 17.8551ZM7.78659 27.8825C7.78659 26.2828 9.08794 24.9815 10.6875 24.9815C12.2871 24.9815 13.5884 26.2829 13.5884 27.8825V29.2055C13.5884 30.8051 12.2871 32.1064 10.6875 32.1064C9.08794 32.1064 7.78659 30.8051 7.78659 29.2055V27.8825ZM19.5 38.2471V46.1243H16.875V39.0488C16.875 38.5312 16.4552 38.1113 15.9375 38.1113C15.4198 38.1113 15 38.5312 15 39.0488V46.1243H6.375V39.0488C6.375 38.5312 5.95519 38.1113 5.4375 38.1113C4.91981 38.1113 4.5 38.5312 4.5 39.0488V46.1243H1.875V38.2471C1.875 35.895 3.78853 33.9815 6.14062 33.9815H15.2344C17.5865 33.9815 19.5 35.895 19.5 38.2471ZM24.0119 8.62434C23.4942 8.62434 23.0744 9.04416 23.0744 9.56184V12.6786C22.1215 11.5121 21.0728 9.80222 21.0903 7.93819C21.1144 5.43225 23.0212 3.19753 24.0127 2.20359C25.0577 3.19594 27.0937 5.45447 27.0701 7.96744C27.0527 9.83587 25.9417 11.5496 24.9494 12.7107V9.56184C24.9494 9.04416 24.5296 8.62434 24.0119 8.62434ZM34.4116 27.8825C34.4116 26.2828 35.7129 24.9815 37.3125 24.9815C38.9121 24.9815 40.2134 26.2829 40.2134 27.8825V29.2055C40.2134 30.8051 38.9121 32.1064 37.3125 32.1064C35.7129 32.1064 34.4116 30.8051 34.4116 29.2055V27.8825ZM46.125 46.1243H43.5V42.6556C43.5 42.1379 43.0802 41.7181 42.5625 41.7181C42.0448 41.7181 41.625 42.1379 41.625 42.6556V46.1243H33V39.0488C33 38.5312 32.5802 38.1113 32.0625 38.1113C31.5448 38.1113 31.125 38.5312 31.125 39.0488V46.1243H28.5V38.2471C28.5 35.895 30.4135 33.9815 32.7656 33.9815H41.8594C44.2115 33.9815 46.125 35.895 46.125 38.2471V46.1243Z" fill="white"/>
<path d="M43.2252 38.3863C43.0509 38.2119 42.8091 38.1116 42.5625 38.1116C42.3159 38.1116 42.0741 38.2118 41.8997 38.3863C41.7253 38.5605 41.625 38.8024 41.625 39.0491C41.625 39.2956 41.7252 39.5375 41.8997 39.7118C42.0741 39.8862 42.3159 39.9866 42.5625 39.9866C42.8091 39.9866 43.0509 39.8863 43.2252 39.7118C43.3996 39.5375 43.5 39.2956 43.5 39.0491C43.5 38.8024 43.3997 38.5605 43.2252 38.3863Z" fill="white"/>
<path d="M13.0289 20.0176V20.0186H13.0299L13.0289 20.0176Z" fill="white"/>
<path d="M6.84906 1.68677C6.33137 1.68677 5.91156 2.10658 5.91156 2.62427V3.78958C5.91156 4.30727 6.33128 4.72708 6.84906 4.72708C7.36675 4.72708 7.78656 4.30727 7.78656 3.78958V2.62427C7.78656 2.10658 7.36675 1.68677 6.84906 1.68677Z" fill="white"/>
<path d="M6.84906 7.27148C6.33137 7.27148 5.91156 7.6913 5.91156 8.20898V9.3743C5.91156 9.89208 6.33128 10.3118 6.84906 10.3118C7.36675 10.3118 7.78656 9.89198 7.78656 9.3743V8.20898C7.78656 7.6913 7.36675 7.27148 6.84906 7.27148Z" fill="white"/>
<path d="M10.2241 5.06177H9.05872C8.54103 5.06177 8.12122 5.48158 8.12122 5.99927C8.12122 6.51696 8.54103 6.93677 9.05872 6.93677H10.2241C10.7418 6.93677 11.1616 6.51696 11.1616 5.99927C11.1616 5.48158 10.7418 5.06177 10.2241 5.06177Z" fill="white"/>
<path d="M4.63937 5.06177H3.47406C2.95637 5.06177 2.53656 5.48158 2.53656 5.99927C2.53656 6.51696 2.95628 6.93677 3.47406 6.93677H4.63937C5.15706 6.93677 5.57687 6.51696 5.57687 5.99927C5.57687 5.48158 5.15706 5.06177 4.63937 5.06177Z" fill="white"/>
<path d="M43.6875 13.4739C43.1698 13.4739 42.75 13.8937 42.75 14.4114V15.5767C42.75 16.0945 43.1698 16.5142 43.6875 16.5142C44.2052 16.5142 44.625 16.0944 44.625 15.5767V14.4114C44.625 13.8937 44.2052 13.4739 43.6875 13.4739Z" fill="white"/>
<path d="M43.6875 19.0583C43.1698 19.0583 42.75 19.4782 42.75 19.9958V21.1613C42.75 21.6789 43.1698 22.0988 43.6875 22.0988C44.2052 22.0988 44.625 21.6789 44.625 21.1613V19.9958C44.625 19.4782 44.2052 19.0583 43.6875 19.0583Z" fill="white"/>
<path d="M47.0625 16.8489H45.8972C45.3795 16.8489 44.9597 17.2687 44.9597 17.7864C44.9597 18.3041 45.3795 18.7239 45.8972 18.7239H47.0625C47.5802 18.7239 48 18.3041 48 17.7864C48 17.2687 47.5802 16.8489 47.0625 16.8489Z" fill="white"/>
<path d="M41.4778 16.8489H40.3125C39.7948 16.8489 39.375 17.2687 39.375 17.7864C39.375 18.3041 39.7948 18.7239 40.3125 18.7239H41.4778C41.9955 18.7239 42.4153 18.3041 42.4153 17.7864C42.4153 17.2687 41.9955 16.8489 41.4778 16.8489Z" fill="white"/>
</svg>
