<svg width="28" height="51" viewBox="0 0 28 51" fill="none" xmlns="http://www.w3.org/2000/svg">
<path d="M23.0154 0H4.06154C1.81923 0 0 2.13854 0 4.77441V46.1526C0 48.7885 1.81923 50.927 4.06154 50.927H23.0154C25.2577 50.927 27.0769 48.7885 27.0769 46.1526V4.77441C27.0769 2.13854 25.2577 0 23.0154 0ZM13.5385 47.7441C12.0408 47.7441 10.8308 46.3217 10.8308 44.5611C10.8308 42.8006 12.0408 41.3782 13.5385 41.3782C15.0362 41.3782 16.2462 42.8006 16.2462 44.5611C16.2462 46.3217 15.0362 47.7441 13.5385 47.7441ZM23.0154 37.0016C23.0154 37.6581 22.5585 38.1953 22 38.1953H5.07692C4.51846 38.1953 4.06154 37.6581 4.06154 37.0016V5.96801C4.06154 5.31153 4.51846 4.77441 5.07692 4.77441H22C22.5585 4.77441 23.0154 5.31153 23.0154 5.96801V37.0016Z" fill="black"/>
</svg>
