<svg width="58" height="59" viewBox="0 0 58 59" fill="none" xmlns="http://www.w3.org/2000/svg">
<path d="M56.6216 26.6443L51.4544 31.8115L43.0724 23.4296L48.2396 18.2624L46.8592 16.882L41.0018 22.7394L36.4067 27.3345H21.5953L17.0001 22.7394L11.1427 16.882L9.76234 18.2624L14.9295 23.4296L6.5476 31.8115L1.38039 26.6443L0 28.0247L5.8574 33.8821L10.7386 38.7633L15.9126 43.91L15.1316 44.691C13.9471 45.8624 13.9366 47.7724 15.1081 48.957C15.1159 48.9649 15.1237 48.9727 15.1316 48.9805C15.6755 49.5194 16.4028 49.8331 17.168 49.8591C17.1962 50.6229 17.5155 51.3469 18.0603 51.8829C18.6045 52.4214 19.3316 52.7351 20.0967 52.7615C20.1265 53.5265 20.4483 54.2511 20.9959 54.7862C21.54 55.3247 22.2672 55.6384 23.0323 55.6648C23.0605 56.4286 23.3797 57.1526 23.9246 57.6885C25.117 58.8666 27.0353 58.8666 28.2278 57.6885L29.001 56.9144L29.7742 57.6827C30.9655 58.8719 32.8952 58.8701 34.0843 57.6788C34.6243 57.1378 34.9414 56.4138 34.9726 55.6502C35.7389 55.6225 36.4665 55.3066 37.01 54.7657C37.5546 54.2264 37.8734 53.5 37.9013 52.7341C38.6678 52.7061 39.3953 52.3899 39.9387 51.8487C40.4833 51.3095 40.8021 50.583 40.83 49.8172C42.5058 49.7593 43.8174 48.3539 43.7594 46.6781C43.7328 45.9073 43.4138 45.1755 42.8674 44.6314L42.1274 43.8944L47.2614 38.7603L52.1426 33.8792L58 28.0218L56.6216 26.6443ZM7.92799 33.1919L16.3099 24.81L19.8107 28.3107L11.4288 36.6927L7.92799 33.1919ZM18.0672 47.5923C17.6357 48.0233 16.9367 48.0233 16.5052 47.5923C16.0863 47.1794 16.0814 46.505 16.4943 46.0861C16.4979 46.0825 16.5015 46.0788 16.5052 46.0753L17.2989 45.2884L18.8481 46.8191L18.0672 47.5923ZM20.9832 50.4986C20.5523 50.9196 19.8638 50.9187 19.4339 50.4966C19.0147 50.0825 19.0106 49.4069 19.4249 48.9876C19.4279 48.9846 19.4308 48.9815 19.4339 48.9786L20.2237 48.1976L21.7642 49.7283L20.9832 50.4986ZM23.9246 53.3999C23.4927 53.8298 22.7944 53.8298 22.3626 53.3999C21.9437 52.987 21.9388 52.3127 22.3517 51.8937C22.3553 51.8901 22.3589 51.8864 22.3626 51.8829L23.1494 51.1019L24.689 52.6326L23.9246 53.3999ZM26.8533 56.3033C26.4223 56.728 25.7301 56.728 25.2991 56.3033C24.8802 55.8903 24.8753 55.216 25.2882 54.7971C25.2918 54.7934 25.2954 54.7897 25.2991 54.7862L26.0801 54.0101L27.6196 55.5408L26.8533 56.3033ZM41.4982 47.546C41.4964 47.5478 41.4947 47.5495 41.4929 47.5513H41.4968C41.0677 47.9772 40.3756 47.9772 39.9465 47.5513L38.4822 46.0928C38.1002 45.7122 37.4819 45.7133 37.1013 46.0953C36.7207 46.4772 36.7218 47.0955 37.1037 47.4762L38.5681 48.9346C38.9916 49.3552 38.9939 50.0395 38.5734 50.4629C38.5716 50.4648 38.5699 50.4665 38.5681 50.4683C38.139 50.8942 37.4469 50.8942 37.0178 50.4683L35.5535 49.0098C35.1715 48.6292 34.5532 48.6303 34.1726 49.0123C33.792 49.3942 33.7931 50.0125 34.175 50.3931L35.6394 51.8516C36.0629 52.2721 36.0653 52.9565 35.6447 53.3799C35.6429 53.3818 35.6412 53.3835 35.6394 53.3853C35.2103 53.8112 34.5182 53.8112 34.0891 53.3853L32.6248 51.9268C32.2428 51.5462 31.6245 51.5473 31.2439 51.9292C30.8633 52.3112 30.8644 52.9295 31.2463 53.3101L32.7107 54.7686C33.1342 55.1891 33.1365 55.8735 32.716 56.2969C32.7142 56.2987 32.7125 56.3005 32.7107 56.3023C32.2811 56.7278 31.589 56.7278 31.1594 56.3023L12.8111 38.0731L21.5972 29.287H24.7319L17.5664 36.6204C17.1926 37.0029 17.1961 37.6148 17.5742 37.993C18.7841 39.215 20.4087 39.9383 22.1263 40.0197C23.8548 40.1112 25.5408 39.4642 26.7644 38.24C26.8076 38.1973 26.8464 38.1506 26.8806 38.1004L27.234 37.582C29.342 39.2441 32.09 39.8606 34.7061 39.2582L41.4929 46.0177C41.9163 46.4382 41.9187 47.1225 41.4982 47.546ZM40.7519 42.5198L36.6566 38.4411L37.3966 37.8778C37.4314 37.8507 37.4639 37.8211 37.4942 37.789L38.4704 36.8127L37.09 35.4324L36.1617 36.3608L35.3172 36.9973C32.7107 38.1122 29.6858 37.4893 27.7319 35.4353C27.3507 35.0539 26.7326 35.0539 26.3512 35.435C26.3083 35.478 26.2695 35.5247 26.2353 35.5749L25.3128 36.925C24.4785 37.7148 23.3577 38.1294 22.2103 38.0731C21.3129 38.0268 20.4451 37.7358 19.7014 37.2316L27.4595 29.287H36.4067L45.1928 38.0731L40.7519 42.5198ZM46.5732 36.6927L38.1912 28.3107L41.692 24.81L50.074 33.1919L46.5732 36.6927Z" fill="black"/>
<path d="M12.405 32.2158H10.4525V34.1683H12.405V32.2158Z" fill="black"/>
<path d="M47.5495 32.2158H45.597V34.1683H47.5495V32.2158Z" fill="black"/>
<path d="M30.9536 17.5722C35.2649 17.5673 38.7586 14.0736 38.7635 9.76234C38.7635 9.22321 38.3264 8.7861 37.7872 8.7861H35.8348C33.5899 8.78732 31.4549 9.75733 29.9774 11.4473V7.80987H30.9536C34.7259 7.8056 37.783 4.74852 37.7872 0.976234C37.7872 0.437109 37.3501 0 36.811 0H34.8585C32.4561 0.00378291 30.2321 1.26886 29.0011 3.33189C27.7701 1.26886 25.5461 0.00378291 23.1437 0H21.1912C20.6521 0 20.215 0.437109 20.215 0.976234C20.2193 4.74852 23.2764 7.8056 27.0486 7.80987H28.0249V11.4473C26.5474 9.75733 24.4123 8.78732 22.1675 8.7861H20.215C19.6759 8.7861 19.2388 9.22321 19.2388 9.76234C19.2437 14.0736 22.7374 17.5673 27.0486 17.5722H28.0249V19.1205L21.7633 25.3821H24.5241L29.0011 20.9051L33.4781 25.3821H36.2389L29.9774 19.1205V17.5722H30.9536ZM35.8348 10.7386H36.73C36.2498 13.555 33.8107 15.6162 30.9536 15.6197H30.0584C30.5384 12.8033 32.9776 10.7421 35.8348 10.7386ZM34.8585 1.95247H35.7371C35.2704 4.2238 33.2724 5.85484 30.9536 5.8574H30.075C30.5416 3.58607 32.5397 1.95503 34.8585 1.95247ZM27.0486 5.8574C24.7298 5.85484 22.7319 4.2238 22.2651 1.95247H23.1437C25.4625 1.95503 27.4605 3.58607 27.9273 5.8574H27.0486ZM27.0486 15.6197C24.1916 15.6162 21.7525 13.555 21.2723 10.7386H22.1675C25.0245 10.7421 27.4637 12.8033 27.9439 15.6197H27.0486Z" fill="black"/>
</svg>
