<svg width="48" height="51" viewBox="0 0 48 51" fill="none" xmlns="http://www.w3.org/2000/svg">
<path d="M38.7287 19.9539H19.7345V6.05077C20.2073 6.00093 20.5767 5.57773 20.5767 5.063V1.09209C20.5767 0.543809 20.1577 0.0993652 19.641 0.0993652H7.2901C6.77343 0.0993652 6.35443 0.543809 6.35443 1.09209V5.063C6.35443 5.57773 6.72374 6.00083 7.19654 6.05077V27.5806C7.19654 30.0847 7.80875 32.5613 8.96702 34.7431C10.038 36.7603 11.554 38.4846 13.372 39.759V49.9343C13.372 50.4825 13.791 50.927 14.3076 50.927H28.062C28.5787 50.927 28.9977 50.4825 28.9977 49.9343V41.7939C28.9977 40.9181 29.6693 40.2055 30.4948 40.2055C38.0274 40.2055 44.1556 33.7037 44.1556 25.7117C44.1556 22.5369 41.7212 19.9539 38.7287 19.9539ZM9.06788 6.05573H17.8632V24.719H9.06788V6.05573ZM8.22578 2.08482H18.7053V4.07027H8.22578V2.08482ZM30.4948 38.2201C28.6374 38.2201 27.1264 39.8232 27.1264 41.7939V48.9415H15.2433V39.2128C15.2433 38.8657 15.0725 38.5438 14.7926 38.3638C11.2616 36.0932 9.06788 31.9612 9.06788 27.5805V26.7045H26.7989C27.3156 26.7045 27.7345 26.2599 27.7345 25.7117C27.7345 25.1634 27.3156 24.719 26.7989 24.719H19.7345V21.9394H38.7287C40.3654 21.9394 41.7465 23.1191 42.1584 24.719H35.2199C34.7033 24.719 34.2843 25.1634 34.2843 25.7117C34.2843 26.2599 34.7033 26.7045 35.2199 26.7045H42.2472C41.7687 33.1392 36.6806 38.2201 30.4948 38.2201Z" fill="white"/>
<path d="M31.0089 24.7188C30.7628 24.7188 30.5224 24.8249 30.3474 25.0096C30.1734 25.1943 30.0732 25.4504 30.0732 25.7115C30.0732 25.9727 30.1733 26.2288 30.3474 26.4134C30.5224 26.598 30.7628 26.7043 31.0089 26.7043C31.255 26.7043 31.4964 26.5981 31.6703 26.4134C31.8453 26.2288 31.9454 25.9727 31.9454 25.7115C31.9454 25.4504 31.8453 25.1943 31.6703 25.0096C31.4964 24.8249 31.255 24.7188 31.0089 24.7188Z" fill="white"/>
<path d="M43.1343 38.4858C42.6176 38.4858 42.1986 38.9304 42.1986 39.4785V40.769C42.1986 41.3172 42.6176 41.7617 43.1343 41.7617C43.651 41.7617 44.07 41.3172 44.07 40.769V39.4785C44.07 38.9303 43.651 38.4858 43.1343 38.4858Z" fill="white"/>
<path d="M43.1343 45.3711C42.6176 45.3711 42.1986 45.8156 42.1986 46.3639V47.619C42.1986 48.1673 42.6176 48.6118 43.1343 48.6118C43.651 48.6118 44.07 48.1673 44.07 47.619V46.3639C44.07 45.8157 43.651 45.3711 43.1343 45.3711Z" fill="white"/>
<path d="M46.9707 42.5559H45.7543C45.2376 42.5559 44.8186 43.0005 44.8186 43.5487C44.8186 44.0969 45.2376 44.5415 45.7543 44.5415H46.9707C47.4873 44.5415 47.9063 44.0969 47.9063 43.5487C47.9063 43.0004 47.4873 42.5559 46.9707 42.5559Z" fill="white"/>
<path d="M40.5147 42.5559H39.2983C38.7817 42.5559 38.3627 43.0005 38.3627 43.5487C38.3627 44.0969 38.7817 44.5415 39.2983 44.5415H40.5147C41.0314 44.5415 41.4504 44.0969 41.4504 43.5487C41.4504 43.0004 41.0314 42.5559 40.5147 42.5559Z" fill="white"/>
<path d="M4.7721 38.4858C4.25542 38.4858 3.83643 38.9304 3.83643 39.4785V40.769C3.83643 41.3172 4.25542 41.7617 4.7721 41.7617C5.28878 41.7617 5.70777 41.3172 5.70777 40.769V39.4785C5.70777 38.9303 5.28878 38.4858 4.7721 38.4858Z" fill="white"/>
<path d="M4.7721 45.3711C4.25542 45.3711 3.83643 45.8156 3.83643 46.3639V47.619C3.83643 48.1673 4.25542 48.6118 4.7721 48.6118C5.28878 48.6118 5.70777 48.1673 5.70777 47.619V46.3639C5.70777 45.8157 5.28878 45.3711 4.7721 45.3711Z" fill="white"/>
<path d="M8.60798 42.5559H7.39161C6.87493 42.5559 6.45593 43.0005 6.45593 43.5487C6.45593 44.0969 6.87493 44.5415 7.39161 44.5415H8.60798C9.12466 44.5415 9.54366 44.0969 9.54366 43.5487C9.54366 43.0004 9.12466 42.5559 8.60798 42.5559Z" fill="white"/>
<path d="M2.15205 42.5559H0.935672C0.418901 42.5559 0 43.0005 0 43.5487C0 44.0969 0.418901 44.5415 0.935672 44.5415H2.15205C2.66873 44.5415 3.08772 44.0969 3.08772 43.5487C3.08772 43.0004 2.66873 42.5559 2.15205 42.5559Z" fill="white"/>
<path d="M35.9298 3.27588C36.4465 3.27588 36.8655 2.83135 36.8655 2.28319V0.992691C36.8655 0.444428 36.4465 0 35.9298 0C35.4131 0 34.9941 0.444428 34.9941 0.992691V2.28319C34.9941 2.83135 35.4131 3.27588 35.9298 3.27588Z" fill="white"/>
<path d="M35.9298 10.126C36.4465 10.126 36.8655 9.68137 36.8655 9.13311V7.87763C36.8655 7.32937 36.4465 6.88477 35.9298 6.88477C35.4131 6.88477 34.9941 7.32937 34.9941 7.87763V9.13311C34.9941 9.68137 35.4131 10.126 35.9298 10.126Z" fill="white"/>
<path d="M38.5497 6.05542H39.7661C40.2828 6.05542 40.7018 5.61095 40.7018 5.06287C40.7018 4.51478 40.2828 4.07031 39.7661 4.07031H38.5497C38.0331 4.07031 37.6141 4.51478 37.6141 5.06287C37.6141 5.61095 38.0331 6.05542 38.5497 6.05542Z" fill="white"/>
<path d="M32.0934 6.05542H33.3098C33.8264 6.05542 34.2454 5.61095 34.2454 5.06287C34.2454 4.51478 33.8264 4.07031 33.3098 4.07031H32.0934C31.5767 4.07031 31.1577 4.51478 31.1577 5.06287C31.1577 5.61095 31.5767 6.05542 32.0934 6.05542Z" fill="white"/>
</svg>
