<svg width="58" height="53" viewBox="0 0 58 53" fill="none" xmlns="http://www.w3.org/2000/svg">
<path d="M5.66401 29.6907C5.03874 29.6907 4.53119 30.1982 4.53119 30.8235C4.53119 31.4488 5.03874 31.9563 5.66401 31.9563C6.28927 31.9563 6.79682 31.4488 6.79682 30.8235C6.79682 30.1982 6.28927 29.6907 5.66401 29.6907Z" fill="black"/>
<path d="M52.0662 33.6191L41.3868 37.2905C41.4341 37.0277 41.4607 36.7595 41.4607 36.4874C41.4607 33.989 39.4282 31.9561 36.9294 31.9561H29.5935C29.3988 31.9561 29.2068 31.9061 29.0373 31.8105L23.0524 28.4444C21.8691 27.7775 20.5243 27.4249 19.1636 27.4249H11.133C10.6657 26.1066 9.40637 25.1597 7.92972 25.1597H1.13282C0.507113 25.1597 0 25.6668 0 26.2925V46.6828C0 47.3085 0.507113 47.8156 1.13282 47.8156H7.92972C9.37274 47.8156 10.61 46.9089 11.1012 45.6353C12.3836 45.7946 13.8673 46.1739 14.7996 46.7332L20.7239 50.2879C22.9683 51.6348 25.5379 52.3468 28.1558 52.3468C30.2303 52.3468 32.2402 51.9114 34.1301 51.0529L55.2735 41.7431C57.6153 40.793 58.7715 37.9835 57.4329 35.5072C56.4484 33.685 54.1425 32.8743 52.0662 33.6191ZM9.06254 44.4224C9.05988 45.0446 8.55233 45.5499 7.92972 45.5499H2.26563V27.4253H7.92972C8.5541 27.4253 9.06254 27.9333 9.06254 28.5581V44.4224ZM54.4128 39.6478C54.4009 39.6522 54.3889 39.6575 54.377 39.6624C54.377 39.6624 33.2022 48.986 33.1982 48.9878C31.6029 49.7135 29.9064 50.0812 28.1558 50.0812C25.9486 50.0812 23.7821 49.4812 21.8899 48.3453L15.9652 44.7906C14.697 44.0299 12.8809 43.5662 11.3282 43.3803V29.6909H19.1636C20.1354 29.6909 21.0956 29.9423 21.9413 30.4189L27.9262 33.785C28.4333 34.0709 29.0103 34.2222 29.5935 34.2222H36.9294C38.1786 34.2222 39.195 35.2382 39.195 36.4878C39.195 37.7326 38.1782 38.7535 36.9294 38.7535H25.4136C24.7879 38.7535 24.2808 39.2606 24.2808 39.8863C24.2808 40.5116 24.7879 41.0187 25.4136 41.0187H36.9294C37.6724 41.0187 38.4038 40.8341 39.053 40.4881C39.053 40.4881 52.8216 35.755 52.8269 35.7533C53.842 35.3869 54.9899 35.7515 55.4399 36.5843C56.1147 37.8326 55.5567 39.1898 54.4128 39.6478Z" fill="black"/>
<path d="M32.9927 27.477C33.206 27.6615 33.4702 27.7536 33.7348 27.7536C33.9994 27.7536 34.2641 27.6615 34.4769 27.477C43.7195 19.4668 49.4367 15.413 49.4367 9.11343C49.4367 4.12992 45.9086 0 40.9521 0C37.697 0 35.2044 1.87623 33.599 4.6919C31.9971 1.88242 29.5071 0 26.2472 0C22.4527 0 19.2803 2.45901 18.1652 6.26412C17.9891 6.86461 18.3334 7.49385 18.9338 7.66997C19.5343 7.84609 20.1636 7.50182 20.3393 6.90133C21.1645 4.08522 23.4833 2.26563 26.2472 2.26563C29.4788 2.26563 31.7457 5.13529 32.5073 7.80715C32.6432 8.29789 33.0901 8.63773 33.599 8.63773C34.1083 8.63773 34.5548 8.29789 34.6906 7.80715C34.7061 7.75183 36.2797 2.26563 40.9521 2.26563C44.4975 2.26563 47.1711 5.20919 47.1711 9.11343C47.1711 14.1527 42.2451 17.7857 33.7339 25.1242C28.5482 20.6708 24.4289 17.5361 22.0876 14.4695C21.7079 13.9721 20.9973 13.8766 20.4999 14.2562C20.0025 14.6359 19.9074 15.3466 20.2866 15.8444C22.9257 19.3008 27.3809 22.6125 32.9927 27.477Z" fill="black"/>
<path d="M19.1447 9.97986C18.5194 9.97986 18.0118 10.4874 18.0118 11.1127C18.0118 11.7379 18.5194 12.2455 19.1447 12.2455C19.7699 12.2455 20.2775 11.7379 20.2775 11.1127C20.2775 10.4874 19.7699 9.97986 19.1447 9.97986Z" fill="black"/>
</svg>
