<svg width="52" height="47" viewBox="0 0 52 47" fill="none" xmlns="http://www.w3.org/2000/svg">
<path d="M27.8866 0L26.3707 3.25368L15.5299 26.492L12.3451 22.7366L11.2481 24.8887L1.50761 44.0325L0 47H52L51.006 44.2657L46.0194 30.5454L45.052 27.8856L41.6146 31.939L29.3094 3.31248L27.8883 0H27.8866ZM27.7652 8.39293L32.8183 20.1454L31.5318 21.4468L27.742 17.6189L23.9538 21.4468L22.408 19.8808L27.7652 8.39293ZM27.7436 22.7797L31.5334 26.6077L34.3625 23.746L39.6815 36.1237L40.7154 38.5404L43.9267 34.7536L46.9519 43.0799H5.8692C8.24613 38.4052 10.6264 33.7305 13.005 29.0577L16.3094 32.9543L17.3766 30.6689C18.5085 28.2423 19.6421 25.8178 20.7724 23.3912L23.9538 26.6057L27.7436 22.7797Z" fill="black"/>
</svg>
