<svg width="48" height="48" viewBox="0 0 48 48" fill="none" xmlns="http://www.w3.org/2000/svg">
<path d="M47.7596 11.0126C47.4849 10.7381 47.0397 10.7381 46.7652 11.0126L43.1177 14.66C42.9577 14.8202 42.8844 15.0475 42.921 15.2709L43.1477 16.6565C43.4583 18.5553 42.8317 20.5012 41.4711 21.8617L35.2611 28.0717C34.9225 28.4104 34.4485 28.5477 33.997 28.4612V25.3359L36.9069 22.4259C37.1815 22.1512 37.1815 21.706 36.9069 21.4314C36.6323 21.157 36.187 21.1568 35.9125 21.4314L33.997 23.3469V20.646C33.997 19.1161 32.7523 17.8713 31.2224 17.8713C30.6715 17.8713 30.158 18.0334 29.7257 18.3114C29.3707 17.188 28.3188 16.3712 27.0796 16.3712C26.5822 16.3712 26.1155 16.5034 25.7114 16.7335V16.2393C25.7114 15.4021 25.3383 14.651 24.7501 14.1418L26.9896 11.9024C27.2642 11.6276 27.2642 11.1825 26.9896 10.9079C26.715 10.6333 26.2697 10.6333 25.9952 10.9079L24.0337 12.8693L19.0555 7.89121C17.6177 6.45334 15.5695 5.83576 13.5761 6.23986L13.0784 6.34074L6.94328 0.205892C6.66866 -0.0686306 6.2234 -0.0686306 5.94888 0.205892C5.67427 0.480602 5.67427 0.925763 5.94888 1.20038L12.1898 7.44117C12.4576 7.70904 12.8392 7.8237 13.2109 7.74889L13.8554 7.61819C15.3849 7.30813 16.9573 7.78198 18.0611 8.88579L22.6543 13.479C21.6224 13.5838 20.7564 14.2567 20.3735 15.1789C19.9249 14.867 19.3806 14.6835 18.794 14.6835C17.264 14.6835 16.0194 15.9281 16.0194 17.4582V25.3255C15.9512 25.2393 15.8792 25.1556 15.8008 25.0771L12.1549 21.4313C11.8803 21.1568 11.435 21.1568 11.1605 21.4313C10.8859 21.706 10.8859 22.1512 11.1605 22.4258L14.8063 26.0715C14.926 26.1913 15.0221 26.33 15.0916 26.4811C14.449 26.9384 14.0051 27.6573 13.9179 28.4815C13.5121 28.5138 13.1047 28.37 12.8062 28.0715L8.32423 23.5895C8.04962 23.315 7.60436 23.315 7.32984 23.5895C7.05522 23.8642 7.05522 24.3094 7.32984 24.584L11.8118 29.066C12.3523 29.6064 13.0717 29.8932 13.8052 29.8932C13.8375 29.8932 13.8697 29.8922 13.902 29.8911V37.5623C13.902 39.938 15.0536 42.1839 16.9826 43.5704L17.8299 44.1795V47.2965C17.8299 47.685 18.1448 47.9997 18.5331 47.9997C18.9215 47.9997 19.2363 47.685 19.2363 47.2965V43.8189C19.2363 43.5925 19.1274 43.38 18.9435 43.2479L17.8034 42.4284C16.241 41.3054 15.3083 39.4863 15.3083 37.5623V28.78C15.3083 28.0002 15.9428 27.3657 16.7226 27.3657C17.5024 27.3657 18.1368 28.0002 18.1368 28.78V33.936C18.1368 34.3244 18.4517 34.6392 18.84 34.6392C19.2283 34.6392 19.5432 34.3244 19.5432 33.936V28.78C19.5432 27.4673 18.642 26.3614 17.4258 26.0481V17.458C17.4258 16.7035 18.0395 16.0897 18.794 16.0897C19.5483 16.0897 20.1622 16.7035 20.1622 17.458V26.6625C20.1622 27.051 20.477 27.3657 20.8654 27.3657C21.2537 27.3657 21.5685 27.051 21.5685 26.6625V16.2395C21.5685 15.485 22.1823 14.8712 22.9367 14.8712C23.6912 14.8712 24.3049 15.485 24.3049 16.2395V27.0312C24.3049 27.4196 24.6198 27.7344 25.0081 27.7344C25.3965 27.7344 25.7113 27.4196 25.7113 27.0312V19.146C25.7113 18.3915 26.3251 17.7777 27.0795 17.7777C27.8339 17.7777 28.4477 18.3915 28.4477 19.146V27.0312C28.4477 27.4196 28.7626 27.7344 29.1509 27.7344C29.5393 27.7344 29.8541 27.4196 29.8541 27.0312V20.647C29.8541 20.6468 29.8541 20.6465 29.8541 20.6461C29.8541 19.8916 30.4678 19.2778 31.2223 19.2778C31.9768 19.2778 32.5905 19.8916 32.5905 20.6461V32.3688C32.5905 32.7573 32.9053 33.072 33.2937 33.072C33.682 33.072 33.9969 32.7573 33.9969 32.3688V29.8817C34.0854 29.8901 34.1741 29.8948 34.2626 29.8948C34.9925 29.8948 35.7118 29.6101 36.2554 29.0664L42.4654 22.8563C44.1453 21.1765 44.9191 18.774 44.5354 16.4296L44.3669 15.3998L47.7595 12.0073C48.0342 11.7325 48.0342 11.2873 47.7596 11.0126Z" fill="black"/>
<path d="M33.2938 34.6621C32.9055 34.6621 32.5906 34.9769 32.5906 35.3653V38.6309C32.5906 40.1917 31.814 41.6385 30.5131 42.501L29.965 42.8643C29.6491 43.0737 29.4604 43.425 29.4604 43.804V47.2966C29.4604 47.6851 29.7753 47.9998 30.1636 47.9998C30.552 47.9998 30.8668 47.6851 30.8668 47.2966V43.9538L31.2902 43.6732C32.9852 42.5495 33.997 40.6644 33.997 38.6309V35.3653C33.997 34.9769 33.6822 34.6621 33.2938 34.6621Z" fill="black"/>
<path d="M28.6115 9.98923C28.7914 9.98923 28.9714 9.9206 29.1087 9.78333L30.0063 8.88579C31.11 7.78208 32.6822 7.30804 34.2119 7.61819L34.8567 7.74898C35.228 7.8238 35.6099 7.70885 35.8775 7.44117L42.1184 1.20038C42.393 0.92567 42.393 0.480508 42.1184 0.205892C41.8438 -0.0686306 41.3985 -0.0686306 41.124 0.205892L34.989 6.34074L34.4913 6.23986C32.4984 5.83604 30.4499 6.45325 29.0118 7.89121L28.1142 8.78875C27.8395 9.06337 27.8395 9.50862 28.1142 9.78315C28.2515 9.9206 28.4314 9.98923 28.6115 9.98923Z" fill="black"/>
<path d="M4.91954 16.6565L5.14624 15.2709C5.18281 15.0475 5.10958 14.8202 4.94954 14.6601L1.20036 10.911C0.92574 10.6364 0.480485 10.6364 0.205962 10.911C-0.0686541 11.1857 -0.0686541 11.6308 0.205962 11.9055L3.70022 15.3996L3.53173 16.4295C3.18136 18.5704 3.78451 20.7481 5.18646 22.4042C5.32551 22.5685 5.5239 22.653 5.72351 22.653C5.88402 22.653 6.04538 22.5983 6.17748 22.4866C6.47385 22.2356 6.5107 21.7919 6.2598 21.4956C5.1243 20.1542 4.63573 18.3905 4.91954 16.6565Z" fill="black"/>
</svg>
