<svg width="48" height="44" viewBox="0 0 48 44" fill="none" xmlns="http://www.w3.org/2000/svg">
<path d="M46.2856 20.3478C46.0642 19.9702 45.5805 19.8406 45.2 20.0569L39.096 23.5809C39.063 23.509 39.019 23.4426 38.9656 23.3841L33.3656 17.7841C33.068 17.4865 32.5906 17.4704 32.2736 17.7473L25.8736 23.3473C25.5394 23.6363 25.5027 24.1415 25.7916 24.4757C26.0806 24.8099 26.5858 24.8466 26.92 24.5577C26.9221 24.5559 26.9242 24.554 26.9264 24.5521L32.7664 19.4441L37.7072 24.3849L23.2 32.7586V19.9498H23.3072C24.6398 19.8811 25.6643 18.7452 25.5957 17.4127C25.532 16.1762 24.5438 15.1879 23.3072 15.1242H23.2V12.7498C23.2 12.308 22.8418 11.9498 22.4 11.9498C21.9582 11.9498 21.6 12.308 21.6 12.7498V15.1242H18.4288L14.4 10.7722V10.3498C14.4 9.908 14.0418 9.5498 13.6 9.5498H8.79996C8.35816 9.5498 7.99996 9.908 7.99996 10.3498V19.929C7.99256 25.0917 6.30986 30.1125 3.20476 34.237C3.18436 34.2643 3.16566 34.2929 3.14876 34.3226C2.27106 35.8611 2.79296 37.8194 4.31996 38.717C4.80546 39.0007 5.35766 39.1501 5.91996 39.1498C6.19986 39.1497 6.47846 39.1128 6.74876 39.0402C7.55396 38.831 8.24256 38.3096 8.66236 37.5914L9.96876 35.6874C11.6069 33.2938 12.8194 30.6352 13.5528 27.829L15.2 28.6618V31.1498C15.2 32.4753 16.2745 33.5498 17.6 33.5498C18.9255 33.5498 20 32.4753 20 31.1498V25.749C20 25.4632 19.8475 25.1991 19.6 25.0562L14.3752 22.0466C14.3816 21.8186 14.4008 21.5922 14.4008 21.3642V17.1594L16.748 19.6938C16.8993 19.857 17.1118 19.9498 17.3344 19.9498H21.6V33.5114C21.6051 33.5633 21.6155 33.6145 21.6312 33.6642L6.39996 42.457C6.01586 42.6753 5.88146 43.1637 6.09976 43.5478C6.31806 43.9319 6.80646 44.0663 7.19056 43.848C7.19366 43.8462 7.19676 43.8444 7.19986 43.8426L45.9999 21.4426C46.3812 21.2191 46.509 20.729 46.2856 20.3478ZM8.64716 34.7834L7.30556 36.7418C6.87506 37.5054 5.90706 37.7755 5.14346 37.345C5.13696 37.3413 5.13046 37.3376 5.12396 37.3338C4.37056 36.8889 4.10196 35.9291 4.51516 35.1578C7.47216 31.2044 9.21576 26.4765 9.53356 21.5498H12.7928C12.7665 26.2765 11.3223 30.8865 8.64716 34.7834ZM12.8 19.9498H9.59996V11.1498H12.8V19.9498ZM18.4 26.2114V31.1498C18.4 31.5916 18.0418 31.9498 17.6 31.9498C17.1582 31.9498 16.8 31.5916 16.8 31.1498V28.1682C16.7997 27.8664 16.6295 27.5904 16.36 27.4546L13.92 26.2234C14.0736 25.4338 14.192 24.6362 14.2696 23.8306L18.4 26.2114ZM17.68 18.3466L14.4 14.8042V13.1242L17.4928 16.4642C17.6442 16.6279 17.857 16.721 18.08 16.721H22.144C22.3078 16.7893 22.4922 16.7893 22.656 16.721H23.3072C23.7561 16.793 24.0616 17.2153 23.9896 17.6642C23.9333 18.0151 23.6581 18.2902 23.3072 18.3466H17.68Z" fill="black"/>
<path d="M17.6001 3.17522H15.9201C15.4641 1.01362 13.3422 -0.368975 11.1806 0.0869245C9.019 0.542925 7.6364 2.66482 8.0923 4.82642C8.4821 6.67442 10.1114 7.99792 12 8.00082C13.907 7.99342 15.5456 6.64512 15.92 4.77522H17.6001C18.0419 4.77522 18.4001 4.41702 18.4001 3.97522C18.4001 3.53342 18.0419 3.17522 17.6001 3.17522ZM12.0001 6.40082C10.9791 6.39382 10.0743 5.74162 9.7449 4.77522H14.2553C13.9259 5.74162 13.0211 6.39382 12.0001 6.40082ZM9.7449 3.17522C10.0743 2.20882 10.9791 1.55662 12.0001 1.54962C13.0211 1.55662 13.9259 2.20882 14.2553 3.17522H9.7449Z" fill="black"/>
<path d="M3.2 5.5498C1.4327 5.5498 0 6.9825 0 8.7498V15.9498C0.004 19.0409 2.5089 21.5458 5.6 21.5498C6.0418 21.5498 6.4 21.1916 6.4 20.7498V8.7498C6.4 6.9825 4.9673 5.5498 3.2 5.5498ZM4.8 19.8698C2.9387 19.4873 1.6021 17.85 1.6 15.9498V8.7498C1.6 7.8661 2.3163 7.1498 3.2 7.1498C4.0837 7.1498 4.8 7.8661 4.8 8.7498V19.8698Z" fill="black"/>
<path d="M40 11.9497C38.2327 11.9497 36.8 13.3824 36.8 15.1497C36.8 16.917 38.2327 18.3497 40 18.3497C41.7673 18.3497 43.2 16.917 43.2 15.1497C43.2 13.3824 41.7673 11.9497 40 11.9497ZM40 16.7497C39.1163 16.7497 38.4 16.0334 38.4 15.1497C38.4 14.266 39.1163 13.5497 40 13.5497C40.8837 13.5497 41.6 14.266 41.6 15.1497C41.6 16.0334 40.8837 16.7497 40 16.7497Z" fill="black"/>
<path d="M44.1191 7.88188C44.1176 7.88098 44.1161 7.88008 44.1146 7.87918C43.7346 7.65378 43.2438 7.77898 43.0184 8.15898C43.0182 8.15928 43.018 8.15958 43.0178 8.15998L42.1962 9.54958C41.9709 9.92978 42.0964 10.4207 42.4766 10.646C42.8568 10.8713 43.3477 10.7458 43.573 10.3656L44.3946 8.97918C44.6215 8.60008 44.4982 8.10878 44.1191 7.88188Z" fill="black"/>
<path d="M47.0351 11.0052C46.8175 10.6367 46.3484 10.5046 45.9705 10.7056L44.5465 11.5056C44.1611 11.7216 44.0237 12.2092 44.2398 12.5946C44.2399 12.5948 44.24 12.595 44.2401 12.5952C44.4565 12.9801 44.9438 13.1169 45.3289 12.9008L46.7529 12.1008C47.1334 11.8762 47.2597 11.3856 47.0351 11.0052Z" fill="black"/>
<path d="M47.1999 14.3499H45.5559C45.1141 14.3499 44.7559 14.7081 44.7559 15.1499C44.7559 15.5917 45.1141 15.9499 45.5559 15.9499H47.1999C47.6417 15.9499 47.9999 15.5917 47.9999 15.1499C47.9999 14.7081 47.6417 14.3499 47.1999 14.3499Z" fill="black"/>
<path d="M34.4001 14.3499H32.7561C32.3143 14.3499 31.9561 14.7081 31.9561 15.1499C31.9561 15.5917 32.3143 15.9499 32.7561 15.9499H34.4001C34.8419 15.9499 35.2001 15.5917 35.2001 15.1499C35.2001 14.7081 34.8419 14.3499 34.4001 14.3499Z" fill="black"/>
<path d="M35.4159 11.3095L33.9919 10.5095C33.6066 10.293 33.1188 10.4298 32.9023 10.8151C32.6858 11.2004 32.8226 11.6882 33.2079 11.9047L34.6311 12.7047C35.0164 12.9214 35.5044 12.7848 35.7211 12.3995C35.9378 12.0142 35.8012 11.5262 35.4159 11.3095Z" fill="black"/>
<path d="M37.8177 9.54972L36.9961 8.16012C36.771 7.77992 36.2803 7.65422 35.9001 7.87932C35.5199 8.10442 35.3942 8.59512 35.6193 8.97532L36.4417 10.3617C36.6862 10.7297 37.1828 10.8298 37.5508 10.5853C37.8913 10.359 38.0064 9.91242 37.8177 9.54972Z" fill="black"/>
<path d="M40.0073 6.80322C39.5655 6.80322 39.2073 7.16142 39.2073 7.60322V9.20322C39.2073 9.64502 39.5655 10.0032 40.0073 10.0032C40.4491 10.0032 40.8073 9.64502 40.8073 9.20322V7.60322C40.8073 7.16142 40.4491 6.80322 40.0073 6.80322Z" fill="black"/>
</svg>
