<svg width="964" height="800" viewBox="0 0 964 800" fill="none" xmlns="http://www.w3.org/2000/svg">
<g clip-path="url(#clip0)">
<path d="M963.995 781.675L839.704 196.834C838.58 191.374 834.566 187.038 829.106 185.432C823.807 183.827 818.026 185.272 814.012 189.286L745.603 257.695C743.516 259.782 742.07 262.351 741.428 265.242L691.808 498.729L612.159 122.002C611.356 117.827 608.626 114.134 604.933 111.886L414.642 2.04743C409.985 -0.682475 404.205 -0.682475 399.388 2.04743L273.651 74.6307C269.958 76.7183 267.228 80.4116 266.425 84.5868L207.813 360.628L120.777 310.366C116.601 307.957 111.463 307.636 106.967 309.563C102.47 311.49 99.2592 315.504 98.2957 320.322L0.339813 781.514C-1.42659 789.704 3.87329 797.894 12.063 799.66C20.2527 801.427 28.4423 796.127 30.0481 787.937L123.667 347.299L210.703 397.562C214.878 399.97 220.017 400.292 224.513 398.365C229.01 396.438 232.221 392.423 233.184 387.606L294.848 97.7544L390.555 42.5143L357.315 198.44C356.352 202.936 358.438 207.593 362.453 209.841L463.46 268.132L489.313 391.138L332.104 548.349C329.534 550.918 328.41 554.611 329.213 558.144L377.869 787.135C378.993 792.113 383.329 795.646 388.307 795.646C389.11 795.646 389.752 795.485 390.555 795.325C396.336 794.04 400.029 788.419 398.745 782.638L351.213 559.429L508.423 402.219C510.992 399.649 512.116 395.956 511.313 392.423L483.211 258.979C482.569 256.089 480.802 253.52 478.072 251.914L379.635 195.068L413.358 36.2516L583.736 134.688L676.874 575.005C678.319 582.071 684.581 587.049 691.808 587.049C699.034 587.049 705.296 582.071 706.742 575.005L770.333 275.68L815.778 230.235L934.288 787.616C935.893 794.843 942.156 799.66 949.222 799.66C950.346 799.66 951.309 799.5 952.434 799.339C960.623 798.054 965.761 789.865 963.995 781.675Z" fill="#413D76"/>
</g>
<defs>
<clipPath id="clip0">
<rect width="964" height="800" fill="white"/>
</clipPath>
</defs>
</svg>
