<svg width="120" height="65" viewBox="0 0 120 65" fill="none" xmlns="http://www.w3.org/2000/svg">
<path d="M87.9569 46.2791L80.5526 11.6589C80.5226 11.4989 80.4481 11.3505 80.3378 11.2308C80.2274 11.1111 80.0858 11.0248 79.9287 10.9819C79.7727 10.9351 79.6066 10.931 79.4484 10.97C79.2902 11.0091 79.1453 11.0899 79.029 11.2041L74.9777 15.2553C74.8604 15.3845 74.7773 15.5407 74.735 15.7101L71.8045 29.5243L67.0766 7.21635C67.0513 7.09358 67.0008 6.97745 66.9279 6.87544C66.855 6.77344 66.7621 6.6878 66.6542 6.62402L55.3784 0.118839C55.2413 0.0409485 55.0856 0 54.928 0C54.7704 0 54.6157 0.0409485 54.4787 0.118839L47.0744 4.42389C46.9653 4.48758 46.8711 4.57303 46.7965 4.67493C46.7219 4.77684 46.6683 4.89302 46.6406 5.01623L43.1719 21.3585L38.0205 18.3862C37.8946 18.3213 37.7552 18.2874 37.6135 18.2874C37.4718 18.2874 37.3314 18.3213 37.2055 18.3862C37.075 18.4434 36.9599 18.5307 36.8698 18.6411C36.7797 18.7514 36.7179 18.8816 36.688 19.0209L30.8807 46.3214C30.8366 46.5539 30.8846 46.7944 31.015 46.9919C31.1453 47.1893 31.3479 47.3283 31.579 47.3792C31.8102 47.4263 32.0504 47.3807 32.2483 47.252C32.4462 47.1234 32.586 46.9221 32.6367 46.6916L38.1899 20.5969L43.3299 23.5692C43.4577 23.6342 43.5997 23.6681 43.7431 23.6681C43.8865 23.6681 44.0275 23.6342 44.1553 23.5692C44.2853 23.5129 44.3994 23.4256 44.4879 23.315C44.5764 23.2044 44.6371 23.0737 44.6635 22.9345L48.3119 5.76724L53.9715 2.49878L52.014 11.733C51.9881 11.8625 52.0034 11.997 52.0564 12.118C52.1093 12.2391 52.1977 12.341 52.3105 12.4099L58.2975 15.8687L59.8315 23.1461L50.5235 32.4543C50.4505 32.5305 50.3969 32.6232 50.3675 32.7245C50.338 32.8257 50.3334 32.9326 50.354 33.0361L53.2308 46.5858C53.2616 46.7269 53.3386 46.8536 53.4498 46.9456C53.5611 47.0377 53.7001 47.0898 53.8444 47.0936H53.9818C54.1457 47.0581 54.2883 46.9591 54.3795 46.8184C54.4707 46.6777 54.5029 46.5066 54.4683 46.3425L51.6545 33.1312L60.9625 23.8231C61.0378 23.7484 61.093 23.6559 61.1227 23.5541C61.1523 23.4523 61.1555 23.3446 61.132 23.2413L59.472 15.3505C59.4556 15.2643 59.4198 15.1827 59.3687 15.1115C59.3175 15.0402 59.2519 14.981 59.1755 14.9379L53.3476 11.5637L55.3463 2.17088L65.4373 7.99908L70.9482 34.0726C70.9916 34.2732 71.1025 34.4529 71.2622 34.5818C71.4219 34.7108 71.6209 34.7812 71.8262 34.7813C72.0327 34.7816 72.2328 34.7116 72.3943 34.5828C72.5558 34.454 72.6689 34.2741 72.7145 34.0726L76.4797 16.3553L79.1664 13.6581L86.1802 46.6704C86.2258 46.8719 86.3379 47.0518 86.4994 47.1806C86.6609 47.3094 86.862 47.3795 87.0685 47.3792C87.1281 47.389 87.1887 47.389 87.2483 47.3792C87.4807 47.3308 87.6846 47.1924 87.8154 46.9942C87.9462 46.796 87.9934 46.5542 87.9466 46.3214" fill="#413D76"/>
<path d="M0.333191 64.5228C0.248571 64.5228 0.16924 64.4911 0.0951976 64.4276C0.0317325 64.3641 0 64.2848 0 64.1896L0.0317325 64.0468L3.8555 53.8131C3.92954 53.5486 4.11465 53.4164 4.41082 53.4164H6.14024C6.41526 53.4164 6.60036 53.5486 6.69556 53.8131L10.5193 64.0468C10.5299 64.0785 10.5352 64.1261 10.5352 64.1896C10.5352 64.2848 10.5035 64.3641 10.44 64.4276C10.3765 64.4911 10.3025 64.5228 10.2179 64.5228H8.83751C8.7 64.5228 8.59422 64.4911 8.52018 64.4276C8.44614 64.3641 8.39854 64.2954 8.37739 64.2213L7.63167 62.2857H2.91939L2.17368 64.2213C2.08906 64.4223 1.93568 64.5228 1.71356 64.5228H0.333191ZM7.07635 60.461L5.2676 55.5584L3.47471 60.461H7.07635Z" fill="#413D76"/>
<path d="M12.7146 64.5228C12.6088 64.5228 12.5189 64.4858 12.4448 64.4117C12.3708 64.3377 12.3338 64.2478 12.3338 64.142V53.8131C12.3338 53.6967 12.3655 53.6015 12.429 53.5275C12.503 53.4534 12.5982 53.4164 12.7146 53.4164H13.9363C14.0632 53.4164 14.1584 53.4429 14.2219 53.4957C14.2853 53.5381 14.3435 53.5962 14.3964 53.6703L18.9659 60.7784V53.8131C18.9659 53.6967 18.9976 53.6015 19.0611 53.5275C19.1351 53.4534 19.2303 53.4164 19.3467 53.4164H20.6794C20.7958 53.4164 20.891 53.4534 20.965 53.5275C21.0391 53.6015 21.0761 53.6967 21.0761 53.8131V64.1261C21.0761 64.2425 21.0391 64.3377 20.965 64.4117C20.891 64.4858 20.8011 64.5228 20.6953 64.5228H19.4577C19.2779 64.5228 19.1245 64.4382 18.9976 64.2689L14.444 57.3195V64.142C14.444 64.2584 14.407 64.3536 14.3329 64.4276C14.2589 64.4911 14.1637 64.5228 14.0473 64.5228H12.7146Z" fill="#413D76"/>
<path d="M24.2498 64.5228C24.1441 64.5228 24.0542 64.4858 23.9801 64.4117C23.9061 64.3377 23.8691 64.2478 23.8691 64.142V53.8131C23.8691 53.6967 23.9008 53.6015 23.9643 53.5275C24.0383 53.4534 24.1335 53.4164 24.2498 53.4164H28.1212C31.231 53.4164 32.8176 54.855 32.8811 57.732C32.9022 58.3455 32.9128 58.7581 32.9128 58.9696C32.9128 59.1706 32.9022 59.5778 32.8811 60.1913C32.8388 61.6722 32.4421 62.7669 31.6911 63.4756C30.9401 64.1737 29.7766 64.5228 28.2005 64.5228H24.2498ZM28.1212 62.6982C29.0097 62.6982 29.6497 62.5025 30.041 62.1111C30.4324 61.7092 30.6387 61.0534 30.6598 60.1437C30.681 59.5091 30.6915 59.1124 30.6915 58.9537C30.6915 58.7845 30.681 58.3931 30.6598 57.7796C30.6387 56.9123 30.4165 56.2723 29.9934 55.8598C29.5809 55.4473 28.9304 55.241 28.0419 55.241H26.0745V62.6982H28.1212Z" fill="#413D76"/>
<path d="M35.7231 64.5228C35.6174 64.5228 35.5275 64.4858 35.4534 64.4117C35.3794 64.3377 35.3423 64.2478 35.3423 64.142V53.8131C35.3423 53.6967 35.3741 53.6015 35.4375 53.5275C35.5116 53.4534 35.6068 53.4164 35.7231 53.4164H42.7043C42.8206 53.4164 42.9158 53.4534 42.9899 53.5275C43.0639 53.6015 43.1009 53.6967 43.1009 53.8131V54.8602C43.1009 54.9766 43.0639 55.0718 42.9899 55.1458C42.9158 55.2093 42.8206 55.241 42.7043 55.241H37.4843V58.0494H42.3552C42.4716 58.0494 42.5668 58.0864 42.6408 58.1604C42.7149 58.2239 42.7519 58.3138 42.7519 58.4302V59.4139C42.7519 59.5302 42.7149 59.6254 42.6408 59.6995C42.5668 59.7629 42.4716 59.7947 42.3552 59.7947H37.4843V62.6982H42.8312C42.9476 62.6982 43.0428 62.7352 43.1168 62.8092C43.1909 62.8833 43.2279 62.9785 43.2279 63.0948V64.142C43.2279 64.2584 43.1909 64.3536 43.1168 64.4276C43.0428 64.4911 42.9476 64.5228 42.8312 64.5228H35.7231Z" fill="#413D76"/>
<path d="M49.3851 64.6815C48.4437 64.6815 47.6345 64.5387 46.9576 64.2531C46.2806 63.9675 45.7676 63.592 45.4185 63.1266C45.0695 62.6612 44.8844 62.1587 44.8632 61.6193C44.8632 61.5241 44.895 61.4447 44.9584 61.3813C45.0219 61.3178 45.1012 61.2861 45.1964 61.2861H46.6085C46.7354 61.2861 46.8306 61.3125 46.8941 61.3654C46.9681 61.4077 47.0369 61.4818 47.1004 61.5875C47.2061 61.9472 47.4494 62.2486 47.8302 62.4919C48.211 62.7352 48.7293 62.8568 49.3851 62.8568C50.1361 62.8568 50.702 62.7352 51.0828 62.4919C51.4636 62.2381 51.654 61.889 51.654 61.4447C51.654 61.1486 51.5535 60.9053 51.3525 60.7149C51.1621 60.5245 50.8712 60.3605 50.4799 60.223C50.0991 60.0855 49.5279 59.9163 48.7663 59.7153C47.5182 59.4191 46.6032 59.0278 46.0215 58.5412C45.4503 58.0441 45.1647 57.3407 45.1647 56.431C45.1647 55.8175 45.3286 55.2728 45.6565 54.7968C45.995 54.3208 46.4763 53.9453 47.1004 53.6703C47.735 53.3953 48.4701 53.2578 49.3058 53.2578C50.1731 53.2578 50.9241 53.4111 51.5588 53.7179C52.1934 54.0246 52.6747 54.4107 53.0026 54.8761C53.3411 55.3309 53.5209 55.7858 53.5421 56.2406C53.5421 56.3358 53.5103 56.4151 53.4469 56.4786C53.3834 56.5421 53.3041 56.5738 53.2089 56.5738H51.7333C51.5112 56.5738 51.3578 56.4733 51.2732 56.2723C51.2097 55.9339 50.9982 55.6536 50.6385 55.4314C50.2789 55.1987 49.8346 55.0824 49.3058 55.0824C48.7134 55.0824 48.248 55.1934 47.9095 55.4156C47.5711 55.6377 47.4018 55.9603 47.4018 56.3834C47.4018 56.6796 47.4864 56.9229 47.6557 57.1133C47.8249 57.3036 48.0894 57.4729 48.449 57.621C48.8192 57.7691 49.3481 57.933 50.0356 58.1128C50.9664 58.3244 51.7069 58.5624 52.2569 58.8268C52.8175 59.0912 53.23 59.4244 53.4945 59.8264C53.7589 60.2283 53.8911 60.7413 53.8911 61.3654C53.8911 62.0424 53.7007 62.6347 53.3199 63.1424C52.9497 63.6396 52.4208 64.0204 51.7333 64.2848C51.0563 64.5492 50.2736 64.6815 49.3851 64.6815Z" fill="#413D76"/>
<path d="M60.3106 64.6815C58.8509 64.6815 57.7191 64.306 56.9152 63.555C56.1219 62.804 55.6988 61.7462 55.646 60.3817C55.6354 60.0961 55.6301 59.6307 55.6301 58.9855C55.6301 58.3297 55.6354 57.8537 55.646 57.5575C55.6988 56.2036 56.1272 55.1511 56.9311 54.4001C57.7456 53.6385 58.8721 53.2578 60.3106 53.2578C61.252 53.2578 62.0718 53.4217 62.7699 53.7496C63.468 54.0669 64.0075 54.5059 64.3883 55.0665C64.7691 55.6165 64.97 56.2406 64.9912 56.9387V56.9705C64.9912 57.0551 64.9542 57.1291 64.8801 57.1926C64.8167 57.2455 64.7426 57.2719 64.658 57.2719H63.1507C63.0238 57.2719 62.9286 57.2455 62.8651 57.1926C62.8016 57.1397 62.7487 57.0392 62.7064 56.8911C62.5372 56.2247 62.2569 55.7593 61.8655 55.4949C61.4742 55.2199 60.9506 55.0824 60.2948 55.0824C58.7716 55.0824 57.9783 55.9339 57.9148 57.6368C57.9043 57.9224 57.899 58.3614 57.899 58.9537C57.899 59.5461 57.9043 59.9956 57.9148 60.3024C57.9783 62.0054 58.7716 62.8568 60.2948 62.8568C60.9506 62.8568 61.4742 62.7193 61.8655 62.4443C62.2675 62.1693 62.5478 61.7039 62.7064 61.0481C62.7382 60.9 62.7858 60.7995 62.8492 60.7466C62.9233 60.6937 63.0238 60.6673 63.1507 60.6673H64.658C64.7532 60.6673 64.8325 60.699 64.896 60.7625C64.97 60.826 65.0018 60.9053 64.9912 61.0005C64.97 61.6986 64.7691 62.328 64.3883 62.8886C64.0075 63.4386 63.468 63.8776 62.7699 64.2055C62.0718 64.5228 61.252 64.6815 60.3106 64.6815Z" fill="#413D76"/>
<path d="M66.3839 64.5228C66.2993 64.5228 66.22 64.4911 66.1459 64.4276C66.0825 64.3641 66.0507 64.2848 66.0507 64.1896L66.0825 64.0468L69.9062 53.8131C69.9803 53.5486 70.1654 53.4164 70.4616 53.4164H72.191C72.466 53.4164 72.6511 53.5486 72.7463 53.8131L76.5701 64.0468C76.5807 64.0785 76.5859 64.1261 76.5859 64.1896C76.5859 64.2848 76.5542 64.3641 76.4907 64.4276C76.4273 64.4911 76.3532 64.5228 76.2686 64.5228H74.8883C74.7507 64.5228 74.645 64.4911 74.5709 64.4276C74.4969 64.3641 74.4493 64.2954 74.4281 64.2213L73.6824 62.2857H68.9701L68.2244 64.2213C68.1398 64.4223 67.9864 64.5228 67.7643 64.5228H66.3839ZM73.1271 60.461L71.3183 55.5584L69.5255 60.461H73.1271Z" fill="#413D76"/>
<path d="M78.7653 64.5228C78.6595 64.5228 78.5696 64.4858 78.4956 64.4117C78.4216 64.3377 78.3845 64.2478 78.3845 64.142V53.7972C78.3845 53.6809 78.4216 53.5909 78.4956 53.5275C78.5696 53.4534 78.6595 53.4164 78.7653 53.4164H80.2409C80.3572 53.4164 80.4471 53.4534 80.5106 53.5275C80.5847 53.5909 80.6217 53.6809 80.6217 53.7972V62.6347H85.6513C85.7676 62.6347 85.8628 62.6717 85.9369 62.7458C86.0109 62.8198 86.0479 62.915 86.0479 63.0314V64.142C86.0479 64.2584 86.0109 64.3536 85.9369 64.4276C85.8628 64.4911 85.7676 64.5228 85.6513 64.5228H78.7653Z" fill="#413D76"/>
<path d="M87.2233 64.5228C87.1387 64.5228 87.0593 64.4911 86.9853 64.4276C86.9218 64.3641 86.8901 64.2848 86.8901 64.1896L86.9218 64.0468L90.7456 53.8131C90.8196 53.5486 91.0047 53.4164 91.3009 53.4164H93.0303C93.3054 53.4164 93.4905 53.5486 93.5857 53.8131L97.4094 64.0468C97.42 64.0785 97.4253 64.1261 97.4253 64.1896C97.4253 64.2848 97.3936 64.3641 97.3301 64.4276C97.2666 64.4911 97.1926 64.5228 97.108 64.5228H95.7276C95.5901 64.5228 95.4843 64.4911 95.4103 64.4276C95.3362 64.3641 95.2886 64.2954 95.2675 64.2213L94.5218 62.2857H89.8095L89.0638 64.2213C88.9791 64.4223 88.8258 64.5228 88.6036 64.5228H87.2233ZM93.9664 60.461L92.1577 55.5584L90.3648 60.461H93.9664Z" fill="#413D76"/>
<path d="M99.6047 64.5228C99.4989 64.5228 99.409 64.4858 99.3349 64.4117C99.2609 64.3377 99.2239 64.2478 99.2239 64.142V53.8131C99.2239 53.6967 99.2556 53.6015 99.3191 53.5275C99.3931 53.4534 99.4883 53.4164 99.6047 53.4164H103.476C106.586 53.4164 108.172 54.855 108.236 57.732C108.257 58.3455 108.268 58.7581 108.268 58.9696C108.268 59.1706 108.257 59.5778 108.236 60.1913C108.194 61.6722 107.797 62.7669 107.046 63.4756C106.295 64.1737 105.131 64.5228 103.555 64.5228H99.6047ZM103.476 62.6982C104.365 62.6982 105.004 62.5025 105.396 62.1111C105.787 61.7092 105.993 61.0534 106.015 60.1437C106.036 59.5091 106.046 59.1124 106.046 58.9537C106.046 58.7845 106.036 58.3931 106.015 57.7796C105.993 56.9123 105.771 56.2723 105.348 55.8598C104.936 55.4473 104.285 55.241 103.397 55.241H101.429V62.6982H103.476Z" fill="#413D76"/>
<path d="M109.798 64.5228C109.713 64.5228 109.634 64.4911 109.56 64.4276C109.497 64.3641 109.465 64.2848 109.465 64.1896L109.497 64.0468L113.32 53.8131C113.394 53.5486 113.579 53.4164 113.876 53.4164H115.605C115.88 53.4164 116.065 53.5486 116.16 53.8131L119.984 64.0468C119.995 64.0785 120 64.1261 120 64.1896C120 64.2848 119.968 64.3641 119.905 64.4276C119.841 64.4911 119.767 64.5228 119.683 64.5228H118.302C118.165 64.5228 118.059 64.4911 117.985 64.4276C117.911 64.3641 117.863 64.2954 117.842 64.2213L117.096 62.2857H112.384L111.638 64.2213C111.554 64.4223 111.4 64.5228 111.178 64.5228H109.798ZM116.541 60.461L114.732 55.5584L112.94 60.461H116.541Z" fill="#413D76"/>
</svg>
