<svg width="115" height="12" viewBox="0 0 115 12" fill="none" xmlns="http://www.w3.org/2000/svg">
<path d="M6.105 0.499999C6.265 0.499999 6.385 0.544999 6.465 0.634999C6.545 0.714999 6.615 0.84 6.675 1.01L10.35 10.49C10.36 10.52 10.365 10.555 10.365 10.595C10.365 10.705 10.325 10.8 10.245 10.88C10.165 10.96 10.07 11 9.96 11H8.88C8.68 11 8.54 10.96 8.46 10.88C8.38 10.79 8.325 10.705 8.295 10.625L7.65 8.96H2.91L2.265 10.625C2.235 10.705 2.18 10.79 2.1 10.88C2.02 10.96 1.88 11 1.68 11H0.6C0.49 11 0.395 10.96 0.315 10.88C0.235 10.8 0.195 10.705 0.195 10.595C0.195 10.555 0.2 10.52 0.21 10.49L3.885 1.01C3.945 0.84 4.015 0.714999 4.095 0.634999C4.175 0.544999 4.295 0.499999 4.455 0.499999H6.105ZM6.93 7.085L5.28 2.81L3.63 7.085H6.93ZM18.8415 11C18.6715 11 18.5415 10.955 18.4515 10.865C18.3615 10.775 18.2965 10.705 18.2565 10.655L14.0565 4.415V10.595C14.0565 10.705 14.0165 10.8 13.9365 10.88C13.8565 10.96 13.7615 11 13.6515 11H12.4365C12.3265 11 12.2315 10.96 12.1515 10.88C12.0715 10.8 12.0315 10.705 12.0315 10.595V0.904999C12.0315 0.795 12.0715 0.7 12.1515 0.62C12.2315 0.539999 12.3265 0.499999 12.4365 0.499999H13.4865C13.6565 0.499999 13.7865 0.544999 13.8765 0.634999C13.9665 0.724999 14.0315 0.794999 14.0715 0.844999L18.2715 7.085V0.904999C18.2715 0.795 18.3115 0.7 18.3915 0.62C18.4715 0.539999 18.5665 0.499999 18.6765 0.499999H19.8915C20.0015 0.499999 20.0965 0.539999 20.1765 0.62C20.2565 0.7 20.2965 0.795 20.2965 0.904999V10.595C20.2965 10.705 20.2565 10.8 20.1765 10.88C20.0965 10.96 20.0015 11 19.8915 11H18.8415ZM27.047 0.499999C27.787 0.499999 28.427 0.599999 28.967 0.8C29.517 0.99 29.972 1.265 30.332 1.625C30.702 1.985 30.982 2.42 31.172 2.93C31.372 3.44 31.492 4.01 31.532 4.64C31.572 5.38 31.572 6.12 31.532 6.86C31.492 7.49 31.372 8.06 31.172 8.57C30.982 9.08 30.707 9.515 30.347 9.875C29.987 10.235 29.537 10.515 28.997 10.715C28.467 10.905 27.842 11 27.122 11H23.342C23.232 11 23.137 10.96 23.057 10.88C22.977 10.8 22.937 10.705 22.937 10.595V0.904999C22.937 0.795 22.977 0.7 23.057 0.62C23.137 0.539999 23.232 0.499999 23.342 0.499999H27.047ZM29.507 4.64C29.487 4.32 29.422 4.025 29.312 3.755C29.212 3.475 29.057 3.235 28.847 3.035C28.647 2.825 28.392 2.665 28.082 2.555C27.772 2.435 27.402 2.375 26.972 2.375H24.962V9.125H27.047C27.457 9.125 27.812 9.07 28.112 8.96C28.412 8.84 28.662 8.68 28.862 8.48C29.062 8.28 29.212 8.04 29.312 7.76C29.422 7.48 29.487 7.18 29.507 6.86C29.547 6.12 29.547 5.38 29.507 4.64ZM40.7885 9.125C40.8985 9.125 40.9935 9.165 41.0735 9.245C41.1535 9.325 41.1935 9.42 41.1935 9.53V10.595C41.1935 10.705 41.1535 10.8 41.0735 10.88C40.9935 10.96 40.8985 11 40.7885 11H34.2035C34.0935 11 33.9985 10.96 33.9185 10.88C33.8385 10.8 33.7985 10.705 33.7985 10.595V0.904999C33.7985 0.795 33.8385 0.7 33.9185 0.62C33.9985 0.539999 34.0935 0.499999 34.2035 0.499999H40.6685C40.7785 0.499999 40.8735 0.539999 40.9535 0.62C41.0335 0.7 41.0735 0.795 41.0735 0.904999V1.97C41.0735 2.08 41.0335 2.175 40.9535 2.255C40.8735 2.335 40.7785 2.375 40.6685 2.375H35.8235V4.76H40.3385C40.4485 4.76 40.5435 4.8 40.6235 4.88C40.7035 4.96 40.7435 5.055 40.7435 5.165V6.23C40.7435 6.34 40.7035 6.435 40.6235 6.515C40.5435 6.595 40.4485 6.635 40.3385 6.635H35.8235V9.125H40.7885ZM46.9563 0.349999C47.6263 0.349999 48.2163 0.439999 48.7263 0.62C49.2363 0.8 49.6613 1.025 50.0013 1.295C50.3413 1.565 50.5963 1.865 50.7663 2.195C50.9463 2.515 51.0463 2.82 51.0663 3.11C51.0763 3.23 51.0363 3.33 50.9463 3.41C50.8663 3.48 50.7713 3.515 50.6613 3.515H49.6113C49.4413 3.515 49.3113 3.485 49.2213 3.425C49.1413 3.355 49.0663 3.265 48.9963 3.155C48.8463 2.905 48.6163 2.69 48.3063 2.51C48.0063 2.32 47.5563 2.225 46.9563 2.225C46.6963 2.225 46.4463 2.255 46.2063 2.315C45.9763 2.365 45.7713 2.445 45.5913 2.555C45.4213 2.655 45.2863 2.78 45.1863 2.93C45.0863 3.08 45.0363 3.25 45.0363 3.44C45.0363 3.67 45.0813 3.86 45.1713 4.01C45.2713 4.15 45.4313 4.275 45.6513 4.385C45.8813 4.485 46.1813 4.58 46.5513 4.67C46.9213 4.76 47.3813 4.865 47.9313 4.985C48.5313 5.115 49.0463 5.27 49.4763 5.45C49.9163 5.62 50.2713 5.83 50.5413 6.08C50.8213 6.32 51.0263 6.6 51.1563 6.92C51.2963 7.24 51.3663 7.605 51.3663 8.015C51.3663 8.465 51.2663 8.885 51.0663 9.275C50.8663 9.655 50.5813 9.985 50.2113 10.265C49.8413 10.535 49.3863 10.75 48.8463 10.91C48.3063 11.07 47.7013 11.15 47.0313 11.15C46.4713 11.15 45.9363 11.085 45.4263 10.955C44.9163 10.815 44.4613 10.62 44.0613 10.37C43.6713 10.11 43.3563 9.8 43.1163 9.44C42.8763 9.08 42.7413 8.68 42.7113 8.24C42.7013 8.12 42.7363 8.025 42.8163 7.955C42.9063 7.875 43.0063 7.835 43.1163 7.835H44.1663C44.3363 7.835 44.4663 7.865 44.5563 7.925C44.6463 7.985 44.7213 8.075 44.7813 8.195C44.8513 8.325 44.9363 8.455 45.0363 8.585C45.1363 8.715 45.2713 8.83 45.4413 8.93C45.6113 9.03 45.8213 9.115 46.0713 9.185C46.3313 9.245 46.6513 9.275 47.0313 9.275C47.3313 9.275 47.6213 9.255 47.9013 9.215C48.1813 9.165 48.4263 9.09 48.6363 8.99C48.8463 8.88 49.0163 8.75 49.1463 8.6C49.2763 8.44 49.3413 8.245 49.3413 8.015C49.3413 7.795 49.2713 7.615 49.1313 7.475C48.9913 7.335 48.7763 7.215 48.4863 7.115C48.2063 7.015 47.8563 6.92 47.4363 6.83C47.0163 6.74 46.5313 6.625 45.9813 6.485C45.4813 6.365 45.0413 6.225 44.6613 6.065C44.2913 5.895 43.9813 5.69 43.7313 5.45C43.4913 5.21 43.3113 4.93 43.1913 4.61C43.0713 4.28 43.0113 3.89 43.0113 3.44C43.0113 2.99 43.1113 2.575 43.3113 2.195C43.5113 1.815 43.7863 1.49 44.1363 1.22C44.4863 0.95 44.9013 0.74 45.3813 0.59C45.8713 0.43 46.3963 0.349999 46.9563 0.349999ZM59.8329 7.67C59.8529 7.54 59.9029 7.445 59.9829 7.385C60.0729 7.315 60.1679 7.28 60.2679 7.28H61.4829C61.5929 7.28 61.6879 7.32 61.7679 7.4C61.8579 7.47 61.8979 7.565 61.8879 7.685C61.8579 8.095 61.7529 8.505 61.5729 8.915C61.4029 9.325 61.1379 9.695 60.7779 10.025C60.4179 10.355 59.9629 10.625 59.4129 10.835C58.8629 11.045 58.1979 11.15 57.4179 11.15C56.7279 11.15 56.1179 11.05 55.5879 10.85C55.0579 10.64 54.6079 10.355 54.2379 9.995C53.8679 9.625 53.5779 9.185 53.3679 8.675C53.1679 8.165 53.0479 7.61 53.0079 7.01C52.9879 6.63 52.9779 6.21 52.9779 5.75C52.9779 5.29 52.9879 4.87 53.0079 4.49C53.0479 3.89 53.1679 3.335 53.3679 2.825C53.5779 2.315 53.8679 1.88 54.2379 1.52C54.6079 1.15 55.0579 0.865 55.5879 0.665C56.1179 0.455 56.7279 0.349999 57.4179 0.349999C58.1979 0.349999 58.8629 0.455 59.4129 0.665C59.9629 0.875 60.4179 1.145 60.7779 1.475C61.1379 1.805 61.4029 2.18 61.5729 2.6C61.7529 3.01 61.8579 3.415 61.8879 3.815C61.8979 3.935 61.8579 4.035 61.7679 4.115C61.6879 4.185 61.5929 4.22 61.4829 4.22H60.2679C60.1679 4.22 60.0729 4.19 59.9829 4.13C59.8929 4.06 59.8379 3.96 59.8179 3.83C59.7879 3.63 59.7179 3.435 59.6079 3.245C59.4979 3.055 59.3479 2.885 59.1579 2.735C58.9679 2.585 58.7279 2.465 58.4379 2.375C58.1479 2.275 57.8079 2.225 57.4179 2.225C57.0279 2.225 56.6879 2.285 56.3979 2.405C56.1079 2.525 55.8629 2.685 55.6629 2.885C55.4729 3.085 55.3229 3.325 55.2129 3.605C55.1129 3.885 55.0529 4.18 55.0329 4.49C55.0129 4.87 55.0029 5.29 55.0029 5.75C55.0029 6.21 55.0129 6.63 55.0329 7.01C55.0529 7.33 55.1129 7.63 55.2129 7.91C55.3229 8.18 55.4729 8.415 55.6629 8.615C55.8629 8.815 56.1079 8.975 56.3979 9.095C56.6879 9.215 57.0279 9.275 57.4179 9.275C57.8079 9.275 58.1479 9.23 58.4379 9.14C58.7279 9.04 58.9679 8.915 59.1579 8.765C59.3579 8.615 59.5129 8.445 59.6229 8.255C59.7329 8.065 59.8029 7.87 59.8329 7.67ZM68.7693 0.499999C68.9293 0.499999 69.0493 0.544999 69.1293 0.634999C69.2093 0.714999 69.2793 0.84 69.3393 1.01L73.0143 10.49C73.0243 10.52 73.0293 10.555 73.0293 10.595C73.0293 10.705 72.9893 10.8 72.9093 10.88C72.8293 10.96 72.7343 11 72.6243 11H71.5443C71.3443 11 71.2043 10.96 71.1243 10.88C71.0443 10.79 70.9893 10.705 70.9593 10.625L70.3143 8.96H65.5743L64.9293 10.625C64.8993 10.705 64.8443 10.79 64.7643 10.88C64.6843 10.96 64.5443 11 64.3443 11H63.2643C63.1543 11 63.0593 10.96 62.9793 10.88C62.8993 10.8 62.8593 10.705 62.8593 10.595C62.8593 10.555 62.8643 10.52 62.8743 10.49L66.5493 1.01C66.6093 0.84 66.6793 0.714999 66.7593 0.634999C66.8393 0.544999 66.9593 0.499999 67.1193 0.499999H68.7693ZM69.5943 7.085L67.9443 2.81L66.2943 7.085H69.5943ZM81.6708 9.125C81.7808 9.125 81.8758 9.165 81.9558 9.245C82.0358 9.325 82.0758 9.42 82.0758 9.53V10.595C82.0758 10.705 82.0358 10.8 81.9558 10.88C81.8758 10.96 81.7808 11 81.6708 11H75.1008C74.9908 11 74.8958 10.96 74.8158 10.88C74.7358 10.8 74.6958 10.705 74.6958 10.595V0.904999C74.6958 0.795 74.7358 0.7 74.8158 0.62C74.8958 0.539999 74.9908 0.499999 75.1008 0.499999H76.3158C76.4258 0.499999 76.5208 0.539999 76.6008 0.62C76.6808 0.7 76.7208 0.795 76.7208 0.904999V9.125H81.6708ZM88.7491 0.499999C88.9091 0.499999 89.0291 0.544999 89.1091 0.634999C89.1891 0.714999 89.2591 0.84 89.3191 1.01L92.9941 10.49C93.0041 10.52 93.0091 10.555 93.0091 10.595C93.0091 10.705 92.9691 10.8 92.8891 10.88C92.8091 10.96 92.7141 11 92.6041 11H91.5241C91.3241 11 91.1841 10.96 91.1041 10.88C91.0241 10.79 90.9691 10.705 90.9391 10.625L90.2941 8.96H85.5541L84.9091 10.625C84.8791 10.705 84.8241 10.79 84.7441 10.88C84.6641 10.96 84.5241 11 84.3241 11H83.2441C83.1341 11 83.0391 10.96 82.9591 10.88C82.8791 10.8 82.8391 10.705 82.8391 10.595C82.8391 10.555 82.8441 10.52 82.8541 10.49L86.5291 1.01C86.5891 0.84 86.6591 0.714999 86.7391 0.634999C86.8191 0.544999 86.9391 0.499999 87.0991 0.499999H88.7491ZM89.5741 7.085L87.9241 2.81L86.2741 7.085H89.5741ZM98.7857 0.499999C99.5257 0.499999 100.166 0.599999 100.706 0.8C101.256 0.99 101.711 1.265 102.071 1.625C102.441 1.985 102.721 2.42 102.911 2.93C103.111 3.44 103.231 4.01 103.271 4.64C103.311 5.38 103.311 6.12 103.271 6.86C103.231 7.49 103.111 8.06 102.911 8.57C102.721 9.08 102.446 9.515 102.086 9.875C101.726 10.235 101.276 10.515 100.736 10.715C100.206 10.905 99.5807 11 98.8607 11H95.0807C94.9707 11 94.8757 10.96 94.7957 10.88C94.7157 10.8 94.6757 10.705 94.6757 10.595V0.904999C94.6757 0.795 94.7157 0.7 94.7957 0.62C94.8757 0.539999 94.9707 0.499999 95.0807 0.499999H98.7857ZM101.246 4.64C101.226 4.32 101.161 4.025 101.051 3.755C100.951 3.475 100.796 3.235 100.586 3.035C100.386 2.825 100.131 2.665 99.8207 2.555C99.5107 2.435 99.1407 2.375 98.7107 2.375H96.7007V9.125H98.7857C99.1957 9.125 99.5507 9.07 99.8507 8.96C100.151 8.84 100.401 8.68 100.601 8.48C100.801 8.28 100.951 8.04 101.051 7.76C101.161 7.48 101.226 7.18 101.246 6.86C101.286 6.12 101.286 5.38 101.246 4.64ZM110.252 0.499999C110.412 0.499999 110.532 0.544999 110.612 0.634999C110.692 0.714999 110.762 0.84 110.822 1.01L114.497 10.49C114.507 10.52 114.512 10.555 114.512 10.595C114.512 10.705 114.472 10.8 114.392 10.88C114.312 10.96 114.217 11 114.107 11H113.027C112.827 11 112.687 10.96 112.607 10.88C112.527 10.79 112.472 10.705 112.442 10.625L111.797 8.96H107.057L106.412 10.625C106.382 10.705 106.327 10.79 106.247 10.88C106.167 10.96 106.027 11 105.827 11H104.747C104.637 11 104.542 10.96 104.462 10.88C104.382 10.8 104.342 10.705 104.342 10.595C104.342 10.555 104.347 10.52 104.357 10.49L108.032 1.01C108.092 0.84 108.162 0.714999 108.242 0.634999C108.322 0.544999 108.442 0.499999 108.602 0.499999H110.252ZM111.077 7.085L109.427 2.81L107.777 7.085H111.077Z" fill="white"/>
</svg>
