<?xml version="1.0"?>
<svg xmlns="http://www.w3.org/2000/svg" id="Outline" viewBox="0 0 512 512"><path d="M180.59,325.964a20.857,20.857,0,0,1,8.633,13.757l7.07,41.588A22.415,22.415,0,0,0,208,397.487V456a8,8,0,0,0,8,8h1.754l6.485,25.94A8,8,0,0,0,232,496h48a8,8,0,0,0,7.761-6.06L294.246,464H296a8,8,0,0,0,8-8V397.487a22.414,22.414,0,0,0,11.707-16.175l7.08-41.6a20.964,20.964,0,0,1,8.7-13.8c38.676-26.337,61.16-70.084,60.488-117.319,6.756-6.325,12.21-13.5,15.457-21.622,17.034-42.587-7.042-99.711-8.075-102.122a8,8,0,0,0-8.922-4.694c-1.261.252-23.15,4.841-47.794,23.016A131.706,131.706,0,0,0,255.905,72C180.967,72.89,120,135.064,120,210.6A139.171,139.171,0,0,0,180.59,325.964ZM248,432h40v16H224V400h64v16H248a8,8,0,0,0,0,16Zm25.754,48H238.246l-4-16h43.508ZM392.572,181.029c-9.512,23.78-47.418,38.739-69,45.506q-1.614-3.518-3.511-7.117c21.07-34.911,44.511-52.842,44.745-53.019a8,8,0,1,0-9.6-12.8c-1.021.765-23.034,17.5-44.515,50.627-.874-1.222-1.763-2.412-2.663-3.581.279-17.775,3.819-41.637,18.226-59.649,22.263-27.829,48.874-39.288,60.883-43.3C392.558,113.058,404.093,152.228,392.572,181.029ZM228.846,215.353c.514.22,48.787,21.172,86.467,55.594-14.582,8.489-48.361,21.9-86.663-5.457-21.209-15.149-33.876-37.022-37.649-65.011a129.792,129.792,0,0,1-.137-32.776c49.8-1.472,86.487,15.052,109.1,49.161a126.576,126.576,0,0,1,15.3,32.888c-37.211-30.519-78.113-48.246-80.118-49.106a8,8,0,0,0-6.305,14.707ZM256.094,88a116.006,116.006,0,0,1,73.957,25.544,155.751,155.751,0,0,0-16.3,17.46c-11.13,13.917-18.133,32.187-20.667,53.505-32.989-29.583-76.216-34.455-109.555-32.494a8,8,0,0,0-7.34,6.251,138.265,138.265,0,0,0-1.123,43.77c4.22,32.352,19.533,58.8,44.283,76.475,20.557,14.683,40.166,19.239,56.589,19.239a90.81,90.81,0,0,0,23.1-3.013,95.171,95.171,0,0,0,34.086-16.59,8,8,0,0,0,2.86-6.678,131.3,131.3,0,0,0-6.526-30.007c13.978-4.43,31.149-11.091,46.1-20.439a122.449,122.449,0,0,1-53.09,91.669,37.048,37.048,0,0,0-15.458,24.337l-7.08,41.6A6.3,6.3,0,0,1,293.81,384H218.19a6.3,6.3,0,0,1-6.123-5.371L205,337.035a36.935,36.935,0,0,0-15.407-24.3A123.183,123.183,0,0,1,136,210.6C136,143.783,189.875,88.785,256.094,88Z"/><path d="M248,24V48a8,8,0,0,0,16,0V24a8,8,0,0,0-16,0Z"/><path d="M112,256a8,8,0,0,0-8-8H80a8,8,0,0,0,0,16h24A8,8,0,0,0,112,256Z"/><path d="M400,256a8,8,0,0,0,8,8h24a8,8,0,0,0,0-16H408A8,8,0,0,0,400,256Z"/><path d="M97.373,108.687l16.97,16.97a8,8,0,0,0,11.314-11.314L108.686,97.372a8,8,0,0,0-11.313,11.315Z"/><path d="M149.657,373.657l16.97-16.97a8,8,0,1,0-11.313-11.315l-16.971,16.971a8,8,0,0,0,11.314,11.314Z"/><path d="M345.373,345.372a8,8,0,0,0,0,11.315l16.97,16.97a8,8,0,0,0,11.314-11.314l-16.971-16.971A8,8,0,0,0,345.373,345.372Z"/></svg>
