<?xml version="1.0"?>
<svg xmlns="http://www.w3.org/2000/svg" id="Outline" viewBox="0 0 512 512"><path d="M461.458,90.384a118.223,118.223,0,0,0-166.7,0L256,128.988l-38.752-38.6a118.223,118.223,0,0,0-166.706,0,117.185,117.185,0,0,0,0,166.163L152.273,357.9h0l33.953,33.822c14.063,13.847,60.316,59.3,65.072,62.753a8,8,0,0,0,9.4,0c4.756-3.454,51.009-48.906,65.1-62.785l135.65-135.14a117.185,117.185,0,0,0,0-166.164ZM256,437.256c-11.509-10.817-40-38.674-58.517-56.9L186.2,369.113,228.209,345.1a56,56,0,0,1,55.582,0L325.8,369.113l-11.249,11.206C295.991,398.592,267.461,426.483,256,437.256Zm62.507-233.9a8,8,0,0,0-11.16-1.861L264,232.455V232a56.063,56.063,0,0,1,56-56h48v8a56.063,56.063,0,0,1-56,56H280.964l35.686-25.49A8,8,0,0,0,318.51,203.351ZM248,280.455,204.65,249.49a8,8,0,0,0-9.3,13.02L231.036,288H200a56.063,56.063,0,0,1-56-56v-8h48a56.063,56.063,0,0,1,56,56Zm202.164-35.242L337.551,357.4l-45.82-26.191A72.094,72.094,0,0,0,264,322.176V256h48a72.081,72.081,0,0,0,72-72V168a8,8,0,0,0-8-8H320a72.081,72.081,0,0,0-72,72v2.815A71.883,71.883,0,0,0,192,208H136a8,8,0,0,0-8,8v16a72.081,72.081,0,0,0,72,72h48v18.176a72.094,72.094,0,0,0-27.731,9.035L174.448,357.4l-10.882-10.841h0L61.835,245.212A101.466,101.466,0,0,1,133.91,72a101.373,101.373,0,0,1,72.044,29.718l44.4,44.23a8,8,0,0,0,11.292,0l44.4-44.232a101.688,101.688,0,1,1,144.117,143.5Z"/></svg>
